#N canvas -8 -8 1920 997 12;
#X obj 8 13 loadbang;
#X obj 172 128 osc~;
#X obj 428 423 dac~;
#X obj 223 9 receive freq;
#X obj 225 129 *~ 0.8;
#X obj 293 131 *~ 0.667;
#X obj 242 167 osc~;
#X obj 318 161 osc~;
#X obj 244 213 *~ 0.333;
#X obj 94 10 receive left;
#X obj 499 10 receive right;
#X obj 668 10 receive hits;
#X obj 485 177 noise~;
#X obj 376 8 receive gain;
#X obj 287 265 *~;
#X obj 351 205 line~;
#X obj 240 333 *~;
#X obj 346 331 *~;
#X obj 93 130 pack 0 10;
#X obj 188 268 line~;
#X obj 475 127 pack 0 10;
#X obj 388 262 line~;
#X obj 225 42 pack 0 10;
#X obj 224 80 line~;
#X obj 502 335 *~;
#X obj 465 222 lop~ 220;
#X obj 461 274 *~ 0.25;
#X msg 8 46 \; freq 110 \; gain 1 \; left 0 \; right 0 \; hits 0;
#X obj 380 129 pack 0 50;
#X connect 0 0 27 0;
#X connect 1 0 8 0;
#X connect 3 0 22 0;
#X connect 4 0 6 0;
#X connect 5 0 7 0;
#X connect 6 0 8 0;
#X connect 7 0 8 0;
#X connect 8 0 14 0;
#X connect 9 0 18 0;
#X connect 10 0 20 0;
#X connect 11 0 24 1;
#X connect 12 0 25 0;
#X connect 13 0 28 0;
#X connect 14 0 16 0;
#X connect 14 0 17 0;
#X connect 15 0 14 1;
#X connect 16 0 2 0;
#X connect 17 0 2 1;
#X connect 18 0 19 0;
#X connect 19 0 16 1;
#X connect 20 0 21 0;
#X connect 21 0 17 1;
#X connect 22 0 23 0;
#X connect 23 0 1 0;
#X connect 23 0 4 0;
#X connect 23 0 5 0;
#X connect 24 0 2 0;
#X connect 24 0 2 1;
#X connect 25 0 26 0;
#X connect 26 0 24 0;
#X connect 28 0 15 0;
