#N canvas 67 55 1853 1000 12;
#X obj 904 1438 dac~;
#X floatatom 383 369 4 0 0 0 - - -, f 4;
#X floatatom 313 1107 5 0 1 0 - - -, f 5;
#X obj 230 1155 noise~, f 8;
#X floatatom 1041 1321 5 0 1 0 - - -, f 5;
#X obj 916 1371 *~;
#X obj 940 1350 expr 1-$f1;
#X obj 344 335 hsl 100 15 0 180 0 0 empty empty empty -2 -8 0 10 #fcfcfc
#000000 #000000 0 1;
#X floatatom 378 1152 5 0 1 0 - - -, f 5;
#X obj 25 -36 loadbang;
#X obj 102 -36 bng 15 250 50 0 empty empty empty 17 7 0 10 #fcfcfc
#000000 #000000;
#X obj 343 296 r pointer_target_angle;
#X obj 313 1072 r pointing_to_the_target;
#X obj 378 1123 r inside_target;
#X obj 1065 1293 r mute;
#X text 127 -36 to click if params have changed;
#X text 151 86 100 dB <=> unchanged loudness;
#X obj 149 58 switch~;
#X obj 149 1 inlet;
#X text 212 58 turn patch off/on;
#X floatatom 149 28 5 0 0 0 - - -, f 5;
#X floatatom 769 220 5 0 0 0 - - -, f 5;
#X obj 793 149 bondo 4;
#X msg 720 215 \; af \$1;
#X floatatom 1311 173 5 0 0 0 - - -, f 5;
#X obj 1309 109 bondo 3;
#X obj 1257 73 r fmin;
#X obj 1331 72 r af;
#X obj 1381 72 r thetamax;
#X msg 1261 175 \; bf \$1;
#X floatatom 180 680 5 0 0 0 - - -, f 5;
#X obj 129 603 bondo 3;
#X obj 99 540 r af;
#X obj 174 540 r bf;
#X floatatom 236 530 5 0 0 0 - - -, f 5;
#X obj 160 1065 osc~;
#X obj 231 1077 osc~;
#X obj 214 1047 expr $f1*1;
#X obj 159 1111 expr~ ($v1+$v2);
#X floatatom 909 578 5 0 1 0 - - -, f 5;
#X obj 822 602 bondo 2;
#X obj 908 543 r target_behind;
#X floatatom 817 728 5 0 1 0 - - -, f 5;
#X obj 1260 140 expr log($f1)-$f2*log($f3);
#X obj 1463 796 r db;
#X obj 915 1296 *~;
#X floatatom 1496 845 5 0 0 0 - - -, f 5;
#X obj 785 110 r fmin;
#X obj 732 110 r fmax;
#X obj 929 104 r thetamax;
#X obj 852 105 r thetamin;
#X obj 1126 1114 dbtorms~;
#X obj 1178 959 r between_O_P;
#X obj 1210 1070 expr if($f1 == 1 \, $f2 \, $f3);
#X obj 1282 812 r between_O_P;
#X obj 1304 908 tgl 18 0 empty empty empty 17 7 0 10 #fcfcfc #000000
#000000 0 1;
#X floatatom 1221 1099 5 0 0 0 - - -, f 5;
#X obj 1278 959 expr $f1*$f2;
#X obj 1297 1029 bondo 3;
#X floatatom 1259 906 5 0 0 0 - - -, f 5;
#X obj 1295 933 bondo 2;
#X obj 1301 853 edge, f 5;
#X obj 1302 877 metro 75;
#X obj 720 180 expr (log($f1)-log($f2))/(log($f3)-log($f4));
#X obj 80 640 expr exp($f1*log($f3)+$f2);
#X floatatom 219 999 5 0 0 0 - - -, f 5;
#X obj 249 900 bondo 3;
#X obj 346 859 r fmax;
#X obj 278 860 r fmin;
#X obj 160 956 expr if($f1<$f2 \, $f2 \, if($f1>$f3 \, $f3 \, $f1))
;
#X obj 750 650 expr if($f1<90&&$f2==0 \, 1 \, 0);
#X obj 160 1200 expr~ ((1-$v4)*(0.5*$v1+0.6*$v2*$v3)+0.8*$v2*$v4)*$f5
;
#X text 720 50 Calcul du coefficient directeur de la droite;
#X text 1240 40 Calcul de l'ordonnée à l'origine de la droite;
#X text 310 260 Donnée spatiale d'entrée : angle POT;
#X text 998 638 Si la cible est derrière le participant : absence
de son;
#X text 290 640 Calcul de la fréquence en fonction de l'angle POT
;
#X text 560 1200 Expression du bruit blanc;
#X text 400 990 La fréquence est bornée;
#X text 750 1430 Sortie audio finale;
#X text 1440 950 Dépassement de la cible "bip bip";
#X msg 24 4 \; fmin 110 \; fmax 440 \; fcst 220 \; dmin 0.15 \; dmax
3 \; dbmin 50 \; dbmax 80 \; thetamin 5 \; thetamax 90 \; db 80;
#X connect 1 0 40 0;
#X connect 2 0 71 2;
#X connect 3 0 71 1;
#X connect 4 0 6 0;
#X connect 5 0 0 0;
#X connect 5 0 0 1;
#X connect 6 0 5 1;
#X connect 7 0 1 0;
#X connect 8 0 71 3;
#X connect 9 0 81 0;
#X connect 10 0 81 0;
#X connect 11 0 7 0;
#X connect 11 0 34 0;
#X connect 12 0 2 0;
#X connect 13 0 8 0;
#X connect 14 0 4 0;
#X connect 18 0 20 0;
#X connect 20 0 17 0;
#X connect 22 0 63 0;
#X connect 22 1 63 1;
#X connect 22 2 63 2;
#X connect 22 3 63 3;
#X connect 25 0 43 0;
#X connect 25 1 43 1;
#X connect 25 2 43 2;
#X connect 26 0 25 0;
#X connect 27 0 25 1;
#X connect 28 0 25 2;
#X connect 31 0 64 0;
#X connect 31 1 64 1;
#X connect 31 2 64 2;
#X connect 32 0 31 0;
#X connect 33 0 31 1;
#X connect 34 0 31 2;
#X connect 35 0 38 0;
#X connect 36 0 38 1;
#X connect 37 0 36 0;
#X connect 38 0 71 0;
#X connect 39 0 40 1;
#X connect 40 0 70 0;
#X connect 40 1 70 1;
#X connect 41 0 39 0;
#X connect 43 0 29 0;
#X connect 43 0 24 0;
#X connect 44 0 46 0;
#X connect 44 0 60 1;
#X connect 44 0 58 2;
#X connect 45 0 5 0;
#X connect 47 0 22 1;
#X connect 48 0 22 0;
#X connect 49 0 22 3;
#X connect 50 0 22 2;
#X connect 51 0 45 1;
#X connect 52 0 58 0;
#X connect 53 0 56 0;
#X connect 53 0 51 0;
#X connect 54 0 61 0;
#X connect 55 0 60 0;
#X connect 57 0 58 1;
#X connect 58 0 53 0;
#X connect 58 1 53 1;
#X connect 58 2 53 2;
#X connect 60 0 57 0;
#X connect 60 1 57 1;
#X connect 61 0 62 0;
#X connect 62 0 59 0;
#X connect 62 0 55 0;
#X connect 63 0 23 0;
#X connect 63 0 21 0;
#X connect 64 0 30 0;
#X connect 64 0 66 0;
#X connect 66 0 69 0;
#X connect 66 1 69 1;
#X connect 66 2 69 2;
#X connect 67 0 66 2;
#X connect 68 0 66 1;
#X connect 69 0 65 0;
#X connect 69 0 35 0;
#X connect 69 0 37 0;
#X connect 70 0 42 0;
#X connect 70 0 71 4;
#X connect 71 0 45 0;
