#N canvas 298 144 1389 759 12;
#X obj 910 730 r PTDeltaZ;
#X floatatom 950 790 5 0 0 0 - - -, f 5;
#X obj 68 40 loadbang;
#X obj 145 40 bng 15 250 50 0 empty empty empty 17 7 0 10 #fcfcfc #000000
#000000;
#X text 170 40 to click if params have changed;
#X text 194 162 100 dB <=> unchanged loudness;
#X obj 192 134 switch~;
#X obj 192 77 inlet;
#X text 255 134 turn patch off/on;
#X floatatom 192 104 5 0 0 0 - - -, f 5;
#X obj 1565 767 r db;
#X floatatom 1598 816 5 0 0 0 - - -, f 5;
#X obj 1280 930 r between_O_P;
#X obj 1312 1041 expr if($f1 == 1 \, $f2 \, $f3);
#X obj 1384 783 r between_O_P;
#X obj 1406 879 tgl 18 0 empty empty empty 17 7 0 10 #fcfcfc #000000
#000000 0 1;
#X obj 1380 930 expr $f1*$f2;
#X obj 1399 1000 bondo 3;
#X floatatom 1361 877 5 0 0 0 - - -, f 5;
#X obj 1397 904 bondo 2;
#X obj 1403 824 edge, f 5;
#X obj 1404 848 metro 75;
#X obj 320 1050 noise~;
#X obj 500 1000 r inside_the_target;
#X floatatom 520 1040 5 0 0 0 - - -, f 5;
#X obj 930 1400 dac~;
#X obj 1552 1101 dbtorms~;
#X floatatom 1332 1081 5 0 0 0 - - -, f 5;
#X obj 930 1240 *~;
#X obj 950 830 abs;
#X floatatom 950 870 5 0 0 0 - - -, f 5;
#X obj 190 960 osc~;
#X obj 910 60 r fmax;
#X obj 1000 60 r fmin;
#X obj 1080 60 r thetamin;
#X obj 1190 60 r thetamax;
#X obj 1060 100 bondo 4;
#X obj 930 170 expr (log($f1)-log($f2))/(log($f3)-log($f4));
#X floatatom 1000 210 5 0 0 0 - - -, f 5;
#X obj 1460 70 r fmin;
#X obj 1600 70 r thetamax;
#X obj 1530 120 bondo 3;
#X obj 1530 180 expr log($f1)-$f2*log($f3);
#X floatatom 1570 220 5 0 0 0 - - -, f 5;
#X obj 410 260 r AngleTOPHorizontal;
#X obj 940 930 expr if( $f1 < 0.15 \, 1 \, 0);
#X floatatom 530 450 5 0 0 0 - - -, f 5;
#X floatatom 879 508 5 0 1 0 - - -, f 5;
#X obj 790 530 bondo 2;
#X obj 878 473 r target_behind;
#X obj 720 580 expr if($f1 < 90 && $f2==0 \, 1 \, 0);
#X floatatom 720 640 5 0 0 0 - - -, f 5;
#X obj 280 710 bondo 3;
#X obj 210 760 expr exp($f1*log($f3)+$f2);
#X floatatom 310 800 5 0 0 0 - - -, f 5;
#X obj 380 810 r fmin;
#X obj 470 810 r fmax;
#X obj 350 870 bondo 3;
#X obj 290 910 expr if($f1 < $f2 \, $f2 \, if($f1 > $f3 \, $f3 \, $f1))
;
#X floatatom 300 950 5 0 0 0 - - -, f 5;
#X obj 310 1100 expr~ ((1-$v4)*(0.5*$v1+0*$v2*$v3+0.8*$v2*$v6)+0.8*$v2*$v4)*$f5
;
#X obj 370 960 r pointing_to_the_target;
#X floatatom 400 1020 5 0 0 0 - - -, f 5;
#X text 900 20 Calcul du coefficient directeur de la droite;
#X text 1400 20 Calcul de l'ordonnée à l'origine de la droite;
#X text 1000 1390 Sortie audio finale;
#X text 810 1040 Condition : si la valeur absolue de PTDeltaZ est inférieure
à 15cm \, alors il y a déclenchement du bruit blanc;
#X text 540 1150 Expression du bruit blanc;
#X text 900 680 Encodage de la verticale : un bruit blanc se déclenche
si je suis à la hauteur de la sphère;
#X text 430 220 Encodage de l'horizontal : angle fréquence;
#X text 570 280 Paramètre spatial d'entrée : projection angle POT
;
#X text 40 760 Calcul de la fréquence;
#X text 40 910 La fréquence est bornée;
#X msg 930 230 \; aaf \$1;
#X msg 1530 250 \; baf \$1;
#X obj 190 660 r aaf;
#X obj 1530 70 r aaf;
#X obj 270 660 r baf;
#X obj 420 360 abs;
#X floatatom 390 600 5 0 0 0 - - -, f 5;
#X text 1480 700 Si la cible se trouve entre le point P et le point
O (i.e. si on a dépassé la cible avec notre doigt) \, alors un "bip
bip" nous le signale;
#X obj 1080 1240 r mute;
#X floatatom 1080 1270 5 0 0 0 - - -, f 5;
#X obj 1080 1310 expr 1-$f1;
#X obj 930 1350 *~;
#X text 290 1030 (bruit blanc);
#X text 1160 1280 Coupe le son à la fin de l'essai;
#X msg 67 90 \; fmin 110 \; fmax 440 \; thetamin 5 \; thetamax 90;
#X connect 0 0 1 0;
#X connect 1 0 29 0;
#X connect 2 0 87 0;
#X connect 3 0 87 0;
#X connect 7 0 9 0;
#X connect 9 0 6 0;
#X connect 10 0 11 0;
#X connect 10 0 19 1;
#X connect 10 0 17 2;
#X connect 12 0 17 0;
#X connect 13 0 27 0;
#X connect 14 0 20 0;
#X connect 15 0 19 0;
#X connect 16 0 17 1;
#X connect 17 0 13 0;
#X connect 17 1 13 1;
#X connect 17 2 13 2;
#X connect 19 0 16 0;
#X connect 19 1 16 1;
#X connect 20 0 21 0;
#X connect 21 0 18 0;
#X connect 21 0 15 0;
#X connect 22 0 60 1;
#X connect 23 0 24 0;
#X connect 24 0 60 3;
#X connect 26 0 28 1;
#X connect 27 0 26 0;
#X connect 28 0 84 0;
#X connect 29 0 30 0;
#X connect 30 0 45 0;
#X connect 31 0 60 0;
#X connect 32 0 36 0;
#X connect 33 0 36 1;
#X connect 34 0 36 2;
#X connect 35 0 36 3;
#X connect 36 0 37 0;
#X connect 36 1 37 1;
#X connect 36 2 37 2;
#X connect 36 3 37 3;
#X connect 37 0 73 0;
#X connect 37 0 38 0;
#X connect 39 0 41 0;
#X connect 40 0 41 2;
#X connect 41 0 42 0;
#X connect 41 1 42 1;
#X connect 41 2 42 2;
#X connect 42 0 43 0;
#X connect 42 0 74 0;
#X connect 44 0 78 0;
#X connect 45 0 60 5;
#X connect 46 0 48 0;
#X connect 47 0 48 1;
#X connect 48 0 50 0;
#X connect 48 1 50 1;
#X connect 49 0 47 0;
#X connect 50 0 51 0;
#X connect 51 0 60 4;
#X connect 52 0 53 0;
#X connect 52 1 53 1;
#X connect 52 2 53 2;
#X connect 53 0 54 0;
#X connect 53 0 57 0;
#X connect 55 0 57 1;
#X connect 56 0 57 2;
#X connect 57 0 58 0;
#X connect 57 1 58 1;
#X connect 57 2 58 2;
#X connect 58 0 59 0;
#X connect 58 0 31 0;
#X connect 60 0 28 0;
#X connect 61 0 62 0;
#X connect 62 0 60 2;
#X connect 75 0 52 0;
#X connect 76 0 41 1;
#X connect 77 0 52 1;
#X connect 78 0 46 0;
#X connect 78 0 79 0;
#X connect 79 0 52 2;
#X connect 81 0 82 0;
#X connect 82 0 83 0;
#X connect 83 0 84 1;
#X connect 84 0 25 0;
#X connect 84 0 25 1;
