#N canvas 67 55 1853 1000 12;
#X obj 910 730 r PTDeltaZ;
#X floatatom 950 790 5 0 0 0 - - -, f 5;
#X obj 68 40 loadbang;
#X obj 145 40 bng 15 250 50 0 empty empty empty 17 7 0 10 #fcfcfc #000000
#000000;
#X text 170 40 to click if params have changed;
#X text 194 162 100 dB <=> unchanged loudness;
#X obj 192 134 switch~;
#X obj 192 77 inlet;
#X text 255 134 turn patch off/on;
#X floatatom 192 104 5 0 0 0 - - -, f 5;
#X obj 320 1050 noise~;
#X obj 500 1000 r inside_the_target;
#X floatatom 520 1040 5 0 0 0 - - -, f 5;
#X obj 390 1520 dac~;
#X obj 950 830 abs;
#X floatatom 950 870 5 0 0 0 - - -, f 5;
#X obj 190 960 osc~;
#X obj 910 60 r fmax;
#X obj 1000 60 r fmin;
#X obj 1080 60 r thetamin;
#X obj 1190 60 r thetamax;
#X obj 1060 100 bondo 4;
#X obj 930 170 expr (log($f1)-log($f2))/(log($f3)-log($f4));
#X floatatom 1000 210 5 0 0 0 - - -, f 5;
#X obj 1460 70 r fmin;
#X obj 1600 70 r thetamax;
#X obj 1530 120 bondo 3;
#X obj 1530 180 expr log($f1)-$f2*log($f3);
#X floatatom 1570 220 5 0 0 0 - - -, f 5;
#X obj 410 260 r AngleTOPHorizontal;
#X floatatom 530 450 5 0 0 0 - - -, f 5;
#X floatatom 771 445 5 0 1 0 - - -, f 5;
#X obj 770 410 r target_behind;
#X floatatom 720 640 5 0 0 0 - - -, f 5;
#X obj 280 710 bondo 3;
#X obj 210 760 expr exp($f1*log($f3)+$f2);
#X floatatom 310 800 5 0 0 0 - - -, f 5;
#X obj 380 810 r fmin;
#X obj 470 810 r fmax;
#X obj 350 870 bondo 3;
#X obj 290 910 expr if($f1 < $f2 \, $f2 \, if($f1 > $f3 \, $f3 \, $f1))
;
#X floatatom 300 950 5 0 0 0 - - -, f 5;
#X obj 370 960 r pointing_to_the_target;
#X floatatom 400 1020 5 0 0 0 - - -, f 5;
#X text 900 20 Calcul du coefficient directeur de la droite;
#X text 1400 20 Calcul de l'ordonnée à l'origine de la droite;
#X text 460 1510 Sortie audio finale;
#X text 960 970 Condition : si la valeur absolue de PTDeltaZ est inférieure
à 15cm \, alors il y a déclenchement du bruit blanc;
#X text 900 680 Encodage de la verticale : un bruit blanc se déclenche
si je suis à la hauteur de la sphère;
#X text 430 220 Encodage de l'horizontal : angle fréquence;
#X text 570 280 Paramètre spatial d'entrée : projection angle POT
;
#X text 40 760 Calcul de la fréquence;
#X text 40 910 La fréquence est bornée;
#X msg 930 230 \; aaf \$1;
#X msg 1530 250 \; baf \$1;
#X obj 190 660 r aaf;
#X obj 1530 70 r aaf;
#X obj 270 660 r baf;
#X obj 420 360 abs;
#X floatatom 390 600 5 0 0 0 - - -, f 5;
#X obj 540 1360 r mute;
#X floatatom 540 1390 5 0 0 0 - - -, f 5;
#X obj 540 1430 expr 1-$f1;
#X obj 390 1470 *~;
#X text 540 1150 Expression du déclenchement du bruit blanc;
#X text 280 1000 (bruit blanc);
#X text 600 1380 Coupe le son à la fin de l'essai;
#X obj 310 1100 expr~ ((1-$v4)*(0.5*$v1+0*$v2*$v3+0.5*$v2*$v6)+0.5*$v2*$v4)*$f5
;
#X obj 100 1164 phasor~ 55;
#X obj 360 1310 r between_O_P;
#X text 400 1220 Si la cible se trouve entre le point P et le point
O (i.e. si on a dépassé la cible avec notre doigt) \, alors un "buzzer"
nous le signale;
#X obj 940 930 expr if( $f1 < $f2 \, 1 \, 0);
#X obj 1100 860 r radiustarget;
#X text 20 1110 Création d'un signal créneau;
#X obj 790 530 bondo 3;
#X obj 940 450 r thetamax;
#X obj 60 1200 expr~ if($v1 > 0.5 \, 1 \, 0);
#X obj 720 580 expr if(($f1 < $f3) && ($f2==0) \, 1 \, 0);
#X obj 120 1370 expr~ if($v3==1 \, $v1 \, $v2);
#X msg 40 100 \; fmin 110 \; fmax 440 \; thetamin 5 \; thetamax 90
\; radiustarget 0.15;
#X connect 0 0 1 0;
#X connect 1 0 14 0;
#X connect 2 0 79 0;
#X connect 3 0 79 0;
#X connect 7 0 9 0;
#X connect 9 0 6 0;
#X connect 10 0 67 1;
#X connect 11 0 12 0;
#X connect 12 0 67 3;
#X connect 14 0 15 0;
#X connect 15 0 71 0;
#X connect 16 0 67 0;
#X connect 17 0 21 0;
#X connect 18 0 21 1;
#X connect 19 0 21 2;
#X connect 20 0 21 3;
#X connect 21 0 22 0;
#X connect 21 1 22 1;
#X connect 21 2 22 2;
#X connect 21 3 22 3;
#X connect 22 0 53 0;
#X connect 22 0 23 0;
#X connect 24 0 26 0;
#X connect 25 0 26 2;
#X connect 26 0 27 0;
#X connect 26 1 27 1;
#X connect 26 2 27 2;
#X connect 27 0 28 0;
#X connect 27 0 54 0;
#X connect 29 0 58 0;
#X connect 30 0 74 0;
#X connect 31 0 74 1;
#X connect 32 0 31 0;
#X connect 33 0 67 4;
#X connect 34 0 35 0;
#X connect 34 1 35 1;
#X connect 34 2 35 2;
#X connect 35 0 36 0;
#X connect 35 0 39 0;
#X connect 37 0 39 1;
#X connect 38 0 39 2;
#X connect 39 0 40 0;
#X connect 39 1 40 1;
#X connect 39 2 40 2;
#X connect 40 0 41 0;
#X connect 40 0 16 0;
#X connect 42 0 43 0;
#X connect 43 0 67 2;
#X connect 55 0 34 0;
#X connect 56 0 26 1;
#X connect 57 0 34 1;
#X connect 58 0 30 0;
#X connect 58 0 59 0;
#X connect 59 0 34 2;
#X connect 60 0 61 0;
#X connect 61 0 62 0;
#X connect 62 0 63 1;
#X connect 63 0 13 0;
#X connect 63 0 13 1;
#X connect 67 0 78 1;
#X connect 68 0 76 0;
#X connect 69 0 78 2;
#X connect 71 0 67 5;
#X connect 72 0 71 1;
#X connect 74 0 77 0;
#X connect 74 1 77 1;
#X connect 74 2 77 2;
#X connect 75 0 74 2;
#X connect 76 0 78 0;
#X connect 77 0 33 0;
#X connect 78 0 63 0;
