#N canvas 67 55 1853 1000 12;
#X obj 68 40 loadbang;
#X obj 145 40 bng 15 250 50 0 empty empty empty 17 7 0 10 #fcfcfc #000000
#000000;
#X text 170 40 to click if params have changed;
#X text 194 162 100 dB <=> unchanged loudness;
#X obj 192 134 switch~;
#X obj 192 77 inlet;
#X text 255 134 turn patch off/on;
#X floatatom 192 104 5 0 0 0 - - -, f 5;
#X text 780 50 Calcul de la fréquence du sinus en fonction de z;
#X obj 650 90 r PTDeltaZ;
#X obj 900 90 r fmin;
#X obj 1000 90 r fmid;
#X obj 1110 90 r fmax;
#X obj 760 90 r radiustarget;
#X obj 840 150 bondo 5;
#X obj 710 300 osc~;
#X obj 800 370 noise~;
#X obj 1100 370 r angletarget;
#X obj 1240 370 r PTDeltaZ;
#X obj 1360 370 r radiustarget;
#X obj 880 310 r AngleTOPHorizontal;
#X obj 710 420 expr~ if (((abs($v3) < $v4) && (abs($v5) < $v6)) \,
$v2 \, $v1);
#X obj 520 480 phasor~;
#X text 1170 280 Bruit blanc si la cible est pointée \, sinon \, envoi
du sinus;
#X obj 300 917 r angletarget;
#X obj 100 917 r AngleTOPHorizontal;
#X text 100 867 Son dans l'oreille gauche;
#X text 1180 580 Si la cible est dépassée \, signal carré \, sinon
signal sinusoïdal;
#X obj 420 1047 *~;
#X obj 1300 909 r AngleTOPHorizontal;
#X obj 1500 909 r angletarget;
#X obj 1190 1039 *~;
#X text 1400 869 Son dans l'oreille droite;
#X obj 909 948 r angletarget;
#X obj 650 1346 *~;
#X obj 420 1450 *~;
#X obj 310 1346 r mute;
#X obj 280 1420 expr~ (1-$v1);
#X obj 1130 1446 *~;
#X obj 1020 1376 r mute;
#X obj 990 1416 expr~ (1-$v1);
#X obj 650 1426 *~;
#X obj 540 1356 r mute;
#X obj 510 1396 expr~ (1-$v1);
#X obj 420 1714 dac~;
#X obj 520 530 expr~ if($v1 > 0.5 \, 1 \, 0);
#X obj 1390 939 bondo 2;
#X obj 829 978 bondo 2;
#X obj 200 947 bondo 2;
#X obj 880 550 r between_O_P;
#X floatatom 950 600 5 0 0 0 - - -, f 5;
#X obj 710 670 expr~ if( $v3 == 1 \, $v1 \, $v2);
#X floatatom 930 360 5 0 0 0 - - -, f 5;
#X floatatom 520 430 5 0 0 0 - - -, f 5;
#X obj 40 977 expr if(($f1 > 90) || ($f1 < -$f2) \, 0 \, if($f1 > $f2
\, 1 \, 0));
#X obj 1240 969 expr if(($f1 < -90) || ($f1 > $f2) \, 0 \, if($f1 <
-$f2 \, 1 \, 0));
#X obj 699 1018 expr if (($f1 > -$f2) && ($f1 < $f2) \, 1.25 \, 0)
;
#X obj 709 948 r AngleTOPHorizontal;
#X obj 1359 1267 expr if( $f1 > $f2 \, 0.75 \, 1.25);
#X msg 40 100 \; fmin 110 \; fmax 440 \; fmid 220 \; thetamin 5 \;
thetamax 90 \; angletarget 5 \; radiustarget 0.15 \; distanceperiperso
1.5;
#X obj 1360 1150 r PTHorizontal;
#X obj 1539 1217 r distanceperiperso;
#X msg 1400 1510 \; PTHorizontal \$1;
#X obj 1400 1430 hsl 200 15 0.3 5 0 0 empty empty empty -2 -8 0 10
#fcfcfc #000000 #000000 9250 1;
#X floatatom 1540 1480 5 0 0 0 - - -, f 5;
#X text 1130 190 Permutation des fréquences;
#X obj 710 190 expr if( $f1 < -$f2 \, $f5 \, if( $f1 < $f2 \, $f4 \,
$f3 ));
#X connect 0 0 59 0;
#X connect 1 0 59 0;
#X connect 5 0 7 0;
#X connect 7 0 4 0;
#X connect 9 0 14 0;
#X connect 10 0 14 2;
#X connect 11 0 14 3;
#X connect 12 0 14 4;
#X connect 13 0 14 1;
#X connect 14 0 66 0;
#X connect 14 1 66 1;
#X connect 14 2 66 2;
#X connect 14 3 66 3;
#X connect 14 4 66 4;
#X connect 15 0 21 0;
#X connect 16 0 21 1;
#X connect 17 0 21 3;
#X connect 18 0 21 4;
#X connect 19 0 21 5;
#X connect 20 0 21 2;
#X connect 20 0 52 0;
#X connect 21 0 51 1;
#X connect 22 0 45 0;
#X connect 24 0 48 1;
#X connect 25 0 48 0;
#X connect 28 0 35 1;
#X connect 29 0 46 0;
#X connect 30 0 46 1;
#X connect 31 0 38 1;
#X connect 33 0 47 1;
#X connect 34 0 41 1;
#X connect 35 0 44 0;
#X connect 36 0 37 0;
#X connect 37 0 35 0;
#X connect 38 0 44 1;
#X connect 39 0 40 0;
#X connect 40 0 38 0;
#X connect 41 0 44 0;
#X connect 41 0 44 1;
#X connect 42 0 43 0;
#X connect 43 0 41 0;
#X connect 45 0 51 0;
#X connect 46 0 55 0;
#X connect 46 1 55 1;
#X connect 47 0 56 0;
#X connect 47 1 56 1;
#X connect 48 0 54 0;
#X connect 48 1 54 1;
#X connect 49 0 50 0;
#X connect 50 0 51 2;
#X connect 51 0 28 1;
#X connect 51 0 31 0;
#X connect 51 0 34 0;
#X connect 53 0 22 0;
#X connect 54 0 28 0;
#X connect 55 0 31 1;
#X connect 56 0 34 1;
#X connect 57 0 47 0;
#X connect 58 0 38 1;
#X connect 58 0 34 1;
#X connect 58 0 35 1;
#X connect 60 0 58 0;
#X connect 61 0 58 1;
#X connect 63 0 62 0;
#X connect 63 0 64 0;
#X connect 66 0 15 0;
