#N canvas 61 30 1859 1025 12;
#X msg 105 -203 \; pd dsp 0;
#X text 128 -161 OFF;
#X msg 23 -203 \; pd dsp 1;
#X text 41 -161 ON;
#X obj 340 173 import mrpeach;
#X obj 340 282 routeOSC /advis;
#X obj 340 208 mrpeach/udpreceive 3011;
#X obj 340 240 mrpeach/unpackOSC;
#X obj 23 576 son-chaud-froid-modalite-0;
#X msg 380 449 \; pointer_target_angle \$1;
#X msg 433 492 \; pointing_to_the_target \$1;
#X msg 483 537 \; inside_target \$1;
#X msg 538 582 \; distance_to_the_target \$1;
#X msg 590 625 \; mute \$1;
#X obj 39 637 son-chaud-froid-modalite-1;
#X msg 25 424 0;
#X msg 61 424 1;
#X msg 98 424 2;
#X obj 23 550 tgl 15 0 empty empty empty 17 7 0 10 -262144 -1 -1 0
1;
#X obj 39 609 tgl 15 0 empty empty empty 17 7 0 10 -262144 -1 -1 0
1;
#X obj 50 669 tgl 15 0 empty empty empty 17 7 0 10 -262144 -1 -1 0
1;
#X text 25 391 a;
#X text 67 390 z;
#X text 107 391 e;
#X floatatom 380 413 5 0 1 0 - - -, f 5;
#X floatatom 432 412 5 0 1 0 - - -, f 5;
#X floatatom 484 412 5 0 1 0 - - -, f 5;
#X floatatom 536 412 5 0 1 0 - - -, f 5;
#X floatatom 590 411 5 0 1 0 - - -, f 5;
#X text 146 391 r;
#X obj 67 739 tgl 15 0 empty empty empty 17 7 0 10 -262144 -1 -1 0
1;
#X obj 68 767 son-chaud-froid-modalite-3;
#X msg 137 424 3;
#X obj 47 706 son-chaud-froid-modalite-2-log;
#X obj 22 194 loadbang;
#X floatatom 641 412 5 0 1 0 - - -, f 5;
#X msg 639 674 \; target_behind \$1;
#X obj 275 766 son-chaud-froid-modalite-2;
#X msg 21 231 \; pointer_target_angle 0 \; pointing_to_the_target 0
\; inside_target 0 \; distance_to_the_target 0 \; mute 0 \; target_behind
0;
#X floatatom 692 413 5 0 1 0 - - -, f 5;
#X msg 697 726 \; pointer_length \$1;
#X obj 84 842 son-chaud-froid-modalite-torche;
#X text 187 391 t;
#X msg 179 424 4;
#X obj 23 515 Decode 5;
#X obj 84 814 tgl 15 0 empty empty empty 17 7 0 10 -262144 -1 -1 0
1;
#X obj 1166 58 soundfiler;
#X floatatom 1169 93 5 0 0 0 - - -, f 5;
#X obj 1163 242 line~;
#X obj 1167 282 tabread~ victory_array;
#X obj 1170 338 dac~;
#N canvas 979 299 450 300 (subpatch) 0;
#X array victory_array 20822 float 2 black black;
#X coords 0 1 20822 -1 200 140 1;
#X restore 1339 81 graph;
#X floatatom 1061 173 5 0 0 0 - - -, f 5;
#X obj 1104 126 edge, f 5;
#X floatatom 743 413 5 0 1 0 - - -, f 5;
#X msg 746 779 \; victory \$1;
#X obj 1024 86 r victory;
#X text 212 -201 t b float pour bang à chaque changement de valeur
peut-etre bondo permettrait d'être plus compact \; dbtorms https://fr.flossmanuals.net/puredata/la-synthese-audio/
\; line http://booki.flossmanuals.net/pure-data/audio-tutorials/envelope-generator
\; manuel: https://fr.flossmanuals.net/puredata/introduction/pb
son: sudo alsa force-reloadhttps://itsfoss.com/fix-sound-ubuntu-1304-quick-tip/son
jeux vidéo:https://fr.audioblocks.com/royalty-free-audiobbcsfx.acropolis.org.uk
, f 100;
#X floatatom 795 413 5 0 1 0 - - -, f 5;
#X obj 1164 466 soundfiler;
#X floatatom 1167 501 5 0 0 0 - - -, f 5;
#X obj 1161 650 line~;
#X obj 1168 746 dac~;
#X floatatom 1058 581 5 0 0 0 - - -, f 5;
#X obj 1103 534 edge, f 5;
#X obj 1022 494 r defeat;
#X obj 1166 690 tabread~ defeat_array;
#X msg 797 823 \; defeat \$1;
#X msg 1166 405 read -resize -maxsize 1e+10 ../../data/sound/fail/defeat.wav
defeat_array;
#N canvas 658 288 450 300 (subpatch) 0;
#X array defeat_array 28454 float 2 black black;
#X coords 0 1 28454 -1 200 140 1;
#X restore 1346 501 graph;
#X msg 1167 0 read -resize -maxsize 1e+10 ../../data/sound/victory/victory.wav
victory_array;
#N canvas 977 17 930 990 angle-intensite 0;
#X obj 39 1083 dac~;
#X floatatom 362 172 4 0 0 0 - - -, f 4;
#X floatatom 375 515 5 0 1 0 - - -, f 5;
#X floatatom 188 604 5 0 1 0 - - -, f 5;
#X obj 109 607 noise~, f 8;
#X floatatom 144 971 5 0 1 0 - - -, f 5;
#X obj 40 1038 *~;
#X obj 66 1010 expr 1-$f1;
#X obj 360 141 hsl 100 15 0 180 0 0 empty empty empty -2 -8 0 10 -262144
-1 -1 0 1;
#X floatatom 252 600 5 0 1 0 - - -, f 5;
#X obj 15 -52 loadbang;
#X obj 91 -52 bng 15 250 50 0 empty empty empty 17 7 0 10 -262144 -1
-1;
#X obj 361 106 r pointer_target_angle;
#X obj 186 517 r pointing_to_the_target;
#X obj 251 561 r inside_target;
#X obj 185 933 r mute;
#X text 117 -52 to click if params have changed;
#X text 140 63 100 dB <=> unchanged loudness;
#X obj 139 35 switch~;
#X obj 139 -23 inlet;
#X text 202 35 turn patch off/on;
#X floatatom 139 5 5 0 0 0 - - -, f 5;
#X floatatom 474 46 5 0 0 0 - - -, f 5;
#X obj 747 -43 r ad;
#X obj 599 -42 r dmax;
#X obj 544 -42 r dmin;
#X obj 473 -42 r dbmax;
#X obj 421 11 expr ($f1-$f2)/log($f4/$f3);
#X obj 407 -42 r dbmin;
#X floatatom 727 46 5 0 0 0 - - -, f 5;
#X obj 494 -10 bondo 4;
#X obj 725 -5 bondo 3;
#X obj 674 -43 r dbmin;
#X obj 797 -43 r dmax;
#X msg 421 46 \; ad \$1;
#X msg 676 44 \; bd \$1;
#X obj 676 11 expr $f1-$f2*log($f3);
#X floatatom 1066 54 5 0 0 0 - - -, f 5;
#X obj 1090 -8 bondo 4;
#X msg 1017 54 \; af \$1;
#X obj 1005 -40 r fmin;
#X obj 1070 -40 r fmax;
#X obj 1019 19 expr (log($f1)-log($f2))/($f4-$f3);
#X floatatom 1394 53 5 0 0 0 - - -, f 5;
#X obj 1392 -5 bondo 3;
#X obj 1341 -42 r fmin;
#X obj 1414 -43 r af;
#X msg 1344 55 \; bf \$1;
#X obj 1343 20 expr log($f1)-$f2*$f3;
#X floatatom 304 296 5 0 1 0 - - -, f 5;
#X obj 217 321 bondo 2;
#X obj 303 262 r target_behind;
#X obj 28 316 new-behind;
#X floatatom 43 424 5 0 0 0 - - -, f 5;
#X obj 34 383 r freq;
#X floatatom 426 321 5 0 0 0 - - -, f 5;
#X obj 523 310 r anglediscr;
#X obj 622 309 r anglestep;
#X obj 37 871 *~;
#X obj 325 723 dbtorms~;
#X floatatom 800 509 5 0 0 0 - - -, f 5;
#X obj 545 354 bondo 3;
#X obj 448 405 expr if($f2<1 \, 0.45*$f1 \, $f3*(floor(abs($f1-0.1)/$f3)))
;
#X obj 498 252 expr 180-$f1;
#X obj 1233 687 soundfiler;
#X floatatom 1235 724 5 0 0 0 - - -, f 5;
#X obj 1249 873 line~;
#X obj 1252 913 tabread~ victory_array;
#X obj 1256 969 dac~;
#N canvas 992 312 450 300 (subpatch) 0;
#X array victory_array 20822 float 2 black black;
#X coords 0 1 20822 -1 200 140 1;
#X restore 1350 703 graph;
#X floatatom 1145 804 5 0 0 0 - - -, f 5;
#X obj 1189 757 edge, f 5;
#X obj 1144 705 r victory;
#X obj 1632 630 soundfiler;
#X floatatom 1659 665 5 0 0 0 - - -, f 5;
#X obj 1674 821 line~;
#X obj 1681 917 dac~;
#X floatatom 1576 732 5 0 0 0 - - -, f 5;
#X obj 1615 705 edge, f 5;
#X obj 1570 664 r defeat;
#X obj 1678 861 tabread~ defeat_array;
#X msg 1540 564 read -resize -maxsize 1e+10 ../../data/sound/fail/defeat.wav
defeat_array;
#N canvas 658 288 450 300 (subpatch) 0;
#X array defeat_array 28454 float 2 black black;
#X coords 0 1 28454 -1 200 140 1;
#X restore 1731 611 graph;
#X msg 1197 639 read -resize -maxsize 1e+10 ../../data/sound/victory/victory.wav
victory_array;
#X msg 1240 820 0 \, 23294 971;
#X floatatom 1638 47 5 0 0 0 - - -, f 5;
#X obj 1663 -15 bondo 4;
#X floatatom 1681 193 5 0 0 0 - - -, f 5;
#X obj 1679 128 bondo 3;
#X obj 1577 -47 r dbmin;
#X obj 1713 -47 r tmin;
#X obj 1799 -47 r tmax;
#X msg 1631 194 \; ba \$1;
#X msg 1589 47 \; aa \$1;
#X obj 1751 92 r tmax;
#X obj 1701 92 r aa;
#X obj 1627 92 r dbmin;
#X obj 1458 303 soundfiler;
#X floatatom 1460 338 5 0 0 0 - - -, f 5;
#X obj 1448 433 line~;
#X obj 1455 529 dac~;
#X floatatom 1368 360 5 0 0 0 - - -, f 5;
#X obj 1389 317 edge, f 5;
#X obj 1362 268 r start;
#N canvas 684 314 450 300 (subpatch) 0;
#X array start_array 11321 float 2 black black;
#X coords 0 1 11321 -1 200 140 1;
#X restore 1567 309 graph;
#X obj 1452 473 tabread~ start_array;
#X msg 1459 242 read -resize -maxsize 1e+10 ../../data/sound/start/start.wav
start_array;
#X obj 1459 208 loadbang;
#X obj 1195 601 loadbang;
#X obj 1537 530 loadbang;
#X floatatom 759 266 5 0 0 0 - - -, f 5;
#X obj 882 259 r anglediscr;
#X obj 985 260 r anglestep;
#X obj 863 302 bondo 3;
#X obj 792 350 expr if($f2<1 \, $f1 \, $f3*(floor(abs($f1-0.1)/$f3)))
;
#X obj 936 489 bondo 3;
#X floatatom 998 450 5 0 0 0 - - -, f 5;
#X obj 913 448 r aa;
#X obj 956 449 r ba;
#X obj 1590 13 expr ($f1-$f2)/log($f4/$f3);
#X obj 1631 159 expr $f1-$f2*log($f3);
#X obj 1642 -47 r dbmax;
#X obj 660 165 expr if($f1<90 \, $f1 \, 180-$f1);
#X obj 900 540 expr $f1*log($f3)+($f2);
#X obj 704 688 expr if($f3<$f1 \, $f1 \, if($f3>$f2 \, $f2 \, $f3))
;
#X obj 827 608 r dbmax;
#X obj 765 609 r dbmin;
#X floatatom 904 766 5 0 0 0 - - -, f 5;
#X obj 831 650 bondo 3;
#X floatatom 923 574 5 0 0 0 - - -, f 5;
#X obj 559 160 expr 180-$f1;
#X obj 32 533 osc~;
#X obj 103 545 osc~;
#X obj 86 515 expr $f1*1;
#X obj 31 579 expr~ ($v1+$v2);
#X obj 145 369 expr if($f1<90&&$f2==0 \, 1 \, 0);
#X obj 31 650 expr~ ((1-$v4)*($v1+0.3*$v2*$v3)+$v2*$v4)*$f5;
#X obj 419 499 r between_O_P;
#X obj 426 662 expr if($f1 == 1 \, $f2 \, $f3);
#X obj 451 440 r between_O_P;
#X obj 532 518 tgl 18 0 empty empty empty 17 7 0 10 -262144 -1 -1 0
1;
#X floatatom 435 692 5 0 0 0 - - -, f 5;
#X obj 531 567 expr $f1*$f2;
#X obj 507 618 bondo 3;
#X floatatom 483 540 5 0 0 0 - - -, f 5;
#X obj 554 542 bondo 2;
#X obj 520 471 edge, f 5;
#X obj 521 492 metro 75;
#X msg 1666 768 0 \, 85655 1942;
#X obj 607 1030 dbtorms~;
#X obj 659 875 r between_O_P;
#X obj 691 986 expr if($f1 == 1 \, $f2 \, $f3);
#X obj 689 739 r between_O_P;
#X obj 785 824 tgl 18 0 empty empty empty 17 7 0 10 -262144 -1 -1 0
1;
#X floatatom 702 1015 5 0 0 0 - - -, f 5;
#X obj 759 875 expr $f1*$f2;
#X obj 778 945 bondo 3;
#X floatatom 740 823 5 0 0 0 - - -, f 5;
#X obj 776 849 bondo 2;
#X obj 782 769 edge, f 5;
#X obj 783 793 metro 75;
#X obj 1140 -40 r tmin;
#X obj 1227 -40 r tmax;
#X obj 1464 -43 r tmax;
#X msg 1439 380 0 \, 11321 221;
#X msg 16 -4 \; fmin 110 \; fmax 440 \; fcst 220 \; dmin 0.4 \; dmax
6 \; dbmin 0 \; dbmax 80 \; thetamin 0 \; thetamax 90 \; anglediscr
0 \; anglestep 30 \; freq 220 \; tmax 90 \; tmin 1 \; test 1;
#X connect 1 0 50 0;
#X connect 1 0 110 0;
#X connect 1 0 63 0;
#X connect 2 0 136 4;
#X connect 3 0 136 2;
#X connect 4 0 136 1;
#X connect 5 0 7 0;
#X connect 6 0 0 0;
#X connect 6 0 0 1;
#X connect 7 0 6 1;
#X connect 8 0 1 0;
#X connect 9 0 136 3;
#X connect 10 0 165 0;
#X connect 11 0 165 0;
#X connect 12 0 8 0;
#X connect 13 0 3 0;
#X connect 14 0 9 0;
#X connect 15 0 5 0;
#X connect 19 0 21 0;
#X connect 21 0 18 0;
#X connect 23 0 31 1;
#X connect 24 0 30 3;
#X connect 25 0 30 2;
#X connect 26 0 30 1;
#X connect 27 0 34 0;
#X connect 27 0 22 0;
#X connect 28 0 30 0;
#X connect 30 0 27 0;
#X connect 30 1 27 1;
#X connect 30 2 27 2;
#X connect 30 3 27 3;
#X connect 31 0 36 0;
#X connect 31 1 36 1;
#X connect 31 2 36 2;
#X connect 32 0 31 0;
#X connect 33 0 31 2;
#X connect 36 0 35 0;
#X connect 36 0 29 0;
#X connect 38 0 42 0;
#X connect 38 1 42 1;
#X connect 38 2 42 2;
#X connect 38 3 42 3;
#X connect 40 0 38 0;
#X connect 41 0 38 1;
#X connect 42 0 39 0;
#X connect 42 0 37 0;
#X connect 44 0 48 0;
#X connect 44 1 48 1;
#X connect 44 2 48 2;
#X connect 45 0 44 0;
#X connect 46 0 44 1;
#X connect 48 0 47 0;
#X connect 48 0 43 0;
#X connect 49 0 50 1;
#X connect 50 0 135 0;
#X connect 50 1 135 1;
#X connect 51 0 49 0;
#X connect 53 0 133 0;
#X connect 54 0 53 0;
#X connect 54 0 131 0;
#X connect 55 0 61 0;
#X connect 56 0 61 1;
#X connect 57 0 61 2;
#X connect 58 0 6 0;
#X connect 60 0 143 2;
#X connect 60 0 145 1;
#X connect 61 0 62 0;
#X connect 61 1 62 1;
#X connect 61 2 62 2;
#X connect 62 0 60 0;
#X connect 63 0 55 0;
#X connect 64 0 65 0;
#X connect 66 0 67 0;
#X connect 67 0 68 0;
#X connect 67 0 68 1;
#X connect 71 0 84 0;
#X connect 72 0 70 0;
#X connect 72 0 71 0;
#X connect 73 0 74 0;
#X connect 75 0 80 0;
#X connect 78 0 148 0;
#X connect 79 0 77 0;
#X connect 79 0 78 0;
#X connect 80 0 76 0;
#X connect 80 0 76 1;
#X connect 81 0 73 0;
#X connect 83 0 64 0;
#X connect 84 0 66 0;
#X connect 86 0 119 0;
#X connect 86 1 119 1;
#X connect 86 2 119 2;
#X connect 86 3 119 3;
#X connect 88 0 120 0;
#X connect 88 1 120 1;
#X connect 88 2 120 2;
#X connect 89 0 86 0;
#X connect 90 0 86 2;
#X connect 91 0 86 3;
#X connect 94 0 88 2;
#X connect 95 0 88 1;
#X connect 96 0 88 0;
#X connect 97 0 98 0;
#X connect 99 0 105 0;
#X connect 102 0 164 0;
#X connect 103 0 101 0;
#X connect 103 0 102 0;
#X connect 105 0 100 0;
#X connect 105 0 100 1;
#X connect 106 0 97 0;
#X connect 107 0 106 0;
#X connect 108 0 83 0;
#X connect 109 0 81 0;
#X connect 110 0 113 0;
#X connect 111 0 113 1;
#X connect 112 0 113 2;
#X connect 113 0 114 0;
#X connect 113 1 114 1;
#X connect 113 2 114 2;
#X connect 114 0 116 0;
#X connect 115 0 123 0;
#X connect 115 1 123 1;
#X connect 115 2 123 2;
#X connect 116 0 115 2;
#X connect 117 0 115 0;
#X connect 118 0 115 1;
#X connect 119 0 93 0;
#X connect 119 0 85 0;
#X connect 120 0 92 0;
#X connect 120 0 87 0;
#X connect 121 0 86 1;
#X connect 123 0 128 2;
#X connect 123 0 129 0;
#X connect 124 0 127 0;
#X connect 125 0 128 1;
#X connect 126 0 128 0;
#X connect 127 0 158 1;
#X connect 127 0 156 2;
#X connect 128 0 124 0;
#X connect 128 1 124 1;
#X connect 128 2 124 2;
#X connect 131 0 134 0;
#X connect 132 0 134 1;
#X connect 133 0 132 0;
#X connect 134 0 136 0;
#X connect 135 0 2 0;
#X connect 136 0 58 0;
#X connect 137 0 143 0;
#X connect 138 0 141 0;
#X connect 138 0 59 0;
#X connect 139 0 146 0;
#X connect 140 0 145 0;
#X connect 142 0 143 1;
#X connect 143 0 138 0;
#X connect 143 1 138 1;
#X connect 143 2 138 2;
#X connect 145 0 142 0;
#X connect 145 1 142 1;
#X connect 146 0 147 0;
#X connect 147 0 144 0;
#X connect 147 0 140 0;
#X connect 148 0 75 0;
#X connect 149 0 58 1;
#X connect 150 0 156 0;
#X connect 151 0 154 0;
#X connect 151 0 149 0;
#X connect 152 0 159 0;
#X connect 153 0 158 0;
#X connect 155 0 156 1;
#X connect 156 0 151 0;
#X connect 156 1 151 1;
#X connect 156 2 151 2;
#X connect 158 0 155 0;
#X connect 158 1 155 1;
#X connect 159 0 160 0;
#X connect 160 0 157 0;
#X connect 160 0 153 0;
#X connect 161 0 38 2;
#X connect 162 0 38 3;
#X connect 163 0 44 2;
#X connect 164 0 99 0;
#X restore 242 577 pd angle-intensite;
#X obj 302 643 angle-frequence;
#X obj 295 796 distance-intensite-log;
#X msg 1155 189 0 \, 23294 971;
#X floatatom 848 413 5 0 1 0 - - -, f 5;
#X obj 1175 868 soundfiler;
#X floatatom 1177 903 5 0 0 0 - - -, f 5;
#X obj 1172 1052 line~;
#X obj 1175 1154 dac~;
#X floatatom 1069 983 5 0 0 0 - - -, f 5;
#X obj 1113 936 edge, f 5;
#X msg 1163 999 0 \, 28454 981;
#X obj 1033 896 r start;
#N canvas 671 301 450 300 (subpatch) 0;
#X array start_array 11321 float 2 black black;
#X coords 0 1 11321 -1 200 140 1;
#X restore 1414 878 graph;
#X obj 1176 1092 tabread~ start_array;
#X msg 852 870 \; start \$1;
#X msg 1176 807 read -resize -maxsize 1e+10 ../../data/sound/start/start.wav
start_array;
#N canvas 48 17 930 990 angle-intensite-decroissant 1;
#X obj 1369 2447 dac~;
#X floatatom 1689 1536 4 0 0 0 - - -, f 4;
#X obj 1439 1971 noise~, f 8;
#X floatatom 1453 2352 5 0 1 0 - - -, f 5;
#X obj 1370 2402 *~;
#X obj 1389 2377 expr 1-$f1;
#X obj 1690 1505 hsl 100 15 0 180 0 0 empty empty empty -2 -8 0 10
-262144 -1 -1 0 1;
#X floatatom 1582 1964 5 0 1 0 - - -, f 5;
#X obj 1345 1312 loadbang;
#X obj 1421 1312 bng 15 250 50 0 empty empty empty 17 7 0 10 -262144
-1 -1;
#X obj 1691 1470 r pointer_target_angle;
#X obj 1581 1925 r inside_target;
#X obj 1498 2326 r mute;
#X text 1447 1312 to click if params have changed;
#X text 1470 1427 100 dB <=> unchanged loudness;
#X obj 1469 1399 switch~;
#X obj 1469 1341 inlet;
#X text 1532 1399 turn patch off/on;
#X floatatom 1469 1369 5 0 0 0 - - -, f 5;
#X floatatom 1804 1410 5 0 0 0 - - -, f 5;
#X obj 2077 1321 r ad;
#X obj 1929 1322 r dmax;
#X obj 1874 1322 r dmin;
#X obj 1803 1322 r dbmax;
#X obj 1751 1375 expr ($f1-$f2)/log($f4/$f3);
#X obj 1737 1322 r dbmin;
#X floatatom 2057 1410 5 0 0 0 - - -, f 5;
#X obj 1824 1354 bondo 4;
#X obj 2055 1359 bondo 3;
#X obj 2004 1321 r dbmin;
#X obj 2127 1321 r dmax;
#X msg 1751 1410 \; ad \$1;
#X msg 2006 1408 \; bd \$1;
#X obj 2006 1375 expr $f1-$f2*log($f3);
#X floatatom 2396 1418 5 0 0 0 - - -, f 5;
#X obj 2420 1356 bondo 4;
#X msg 2347 1418 \; af \$1;
#X obj 2335 1324 r fmin;
#X obj 2400 1324 r fmax;
#X obj 2349 1383 expr (log($f1)-log($f2))/($f4-$f3);
#X floatatom 2724 1417 5 0 0 0 - - -, f 5;
#X obj 2722 1359 bondo 3;
#X obj 2671 1322 r fmin;
#X obj 2744 1321 r af;
#X msg 2674 1419 \; bf \$1;
#X obj 2673 1384 expr log($f1)-$f2*$f3;
#X obj 1358 1680 new-behind;
#X floatatom 1373 1788 5 0 0 0 - - -, f 5;
#X obj 1364 1747 r freq;
#X obj 1367 2235 *~;
#X obj 2563 2051 soundfiler;
#X floatatom 2565 2088 5 0 0 0 - - -, f 5;
#X obj 2579 2237 line~;
#X obj 2582 2277 tabread~ victory_array;
#X obj 2586 2333 dac~;
#N canvas 992 312 450 300 (subpatch) 0;
#X array victory_array 20822 float 2 black black;
#X coords 0 1 20822 -1 200 140 1;
#X restore 2680 2067 graph;
#X floatatom 2475 2168 5 0 0 0 - - -, f 5;
#X obj 2519 2121 edge, f 5;
#X obj 2474 2069 r victory;
#X obj 2962 1994 soundfiler;
#X floatatom 2989 2029 5 0 0 0 - - -, f 5;
#X obj 3004 2185 line~;
#X obj 3011 2281 dac~;
#X floatatom 2906 2096 5 0 0 0 - - -, f 5;
#X obj 2945 2069 edge, f 5;
#X obj 2900 2028 r defeat;
#X obj 3008 2225 tabread~ defeat_array;
#X msg 2870 1928 read -resize -maxsize 1e+10 ../../data/sound/fail/defeat.wav
defeat_array;
#N canvas 658 288 450 300 (subpatch) 0;
#X array defeat_array 28454 float 2 black black;
#X coords 0 1 28454 -1 200 140 1;
#X restore 3061 1975 graph;
#X msg 2527 2003 read -resize -maxsize 1e+10 ../../data/sound/victory/victory.wav
victory_array;
#X msg 2570 2184 0 \, 23294 971;
#X floatatom 2968 1411 5 0 0 0 - - -, f 5;
#X obj 2993 1349 bondo 4;
#X floatatom 3011 1557 5 0 0 0 - - -, f 5;
#X obj 3009 1492 bondo 3;
#X obj 2907 1317 r dbmin;
#X obj 3043 1317 r tmin;
#X obj 3129 1317 r tmax;
#X msg 2961 1558 \; ba \$1;
#X msg 2919 1411 \; aa \$1;
#X obj 3031 1456 r aa;
#X obj 2788 1667 soundfiler;
#X floatatom 2790 1702 5 0 0 0 - - -, f 5;
#X obj 2778 1797 line~;
#X obj 2785 1893 dac~;
#X floatatom 2698 1724 5 0 0 0 - - -, f 5;
#X obj 2719 1681 edge, f 5;
#X msg 2769 1744 0 \, 28454 981;
#X obj 2692 1632 r start;
#N canvas 684 314 450 300 (subpatch) 0;
#X array start_array 11321 float 2 black black;
#X coords 0 1 11321 -1 200 140 1;
#X restore 2897 1673 graph;
#X obj 2782 1837 tabread~ start_array;
#X msg 2789 1606 read -resize -maxsize 1e+10 ../../data/sound/start/start.wav
start_array;
#X obj 2789 1561 loadbang;
#X obj 2525 1965 loadbang;
#X obj 2867 1894 loadbang;
#X floatatom 1862 1603 5 0 0 0 - - -, f 5;
#X obj 1985 1596 r anglediscr;
#X obj 2088 1597 r anglestep;
#X obj 1966 1639 bondo 3;
#X obj 1895 1687 expr if($f2<1 \, $f1 \, $f3*(floor(abs($f1-0.1)/$f3)))
;
#X obj 1973 1795 bondo 3;
#X floatatom 2044 1751 5 0 0 0 - - -, f 5;
#X obj 1950 1754 r aa;
#X obj 1998 1752 r ba;
#X obj 2961 1523 expr $f1-$f2*log($f3);
#X obj 2972 1317 r dbmax;
#X obj 1990 1529 expr if($f1<90 \, $f1 \, 180-$f1);
#X obj 2011 1943 r dbmax;
#X obj 1950 1944 r dbmin;
#X floatatom 2070 2107 5 0 0 0 - - -, f 5;
#X floatatom 1917 1895 5 0 0 0 - - -, f 5;
#X obj 1362 1897 osc~;
#X obj 1433 1909 osc~;
#X obj 1416 1879 expr $f1*1;
#X obj 1361 1943 expr~ ($v1+$v2);
#X msg 2996 2132 0 \, 85655 1942;
#X obj 1616 2245 dbtorms~;
#X obj 1835 2245 r between_O_P;
#X obj 1869 2319 expr if($f1 == 1 \, $f2 \, $f3);
#X obj 1711 2076 r between_O_P;
#X obj 1951 2165 tgl 18 0 empty empty empty 17 7 0 10 -262144 -1 -1
0 1;
#X floatatom 1863 2357 5 0 0 0 - - -, f 5;
#X obj 1935 2221 expr $f1*$f2;
#X obj 1944 2286 bondo 3;
#X floatatom 1871 2175 5 0 0 0 - - -, f 5;
#X obj 1955 2190 bondo 2;
#X obj 1773 2117 edge, f 5;
#X obj 1812 2143 metro 75;
#X obj 1620 1678 bondo 2;
#X obj 1490 1616 r pointing_to_the_target;
#X floatatom 1511 1795 5 0 1 0 - - -, f 5;
#X obj 1437 1738 expr if($f1==1 && $f2>90 \, 0 \, if($f1==1 \, 1 \,
0));
#X floatatom 1481 1669 5 0 1 0 - - -, f 5;
#X text 3080 1417 remplacer dbmin par dbmax;
#X obj 2471 1324 r tmin;
#X obj 2557 1324 r tmax;
#X obj 2794 1321 r tmax;
#X obj 2920 1377 expr ($f2-$f1)/log($f4/$f3);
#X obj 3081 1456 r tmin;
#X obj 2964 1453 r dbmin;
#X obj 1937 1846 expr $f1*log($f3)+$f2;
#X obj 1862 1568 expr 90-$f1;
#X obj 1905 1987 bondo 4;
#X obj 1779 2022 expr if($f1 > 90 \, $f4 \, if($f2<$f3 \, $f3 \, if($f2>$f4
\, $f4 \, $f2)));
#X msg 1345 1359 \; fmin 110 \; fmax 440 \; fcst 220 \; dmin 0.4 \;
dmax 6 \; dbmin 50 \; dbmax 80 \; thetamin 0 \; thetamax 180 \; anglediscr
0 \; anglestep 30 \; freq 220 \; tmax 90 \; tmin 1 \; test 1;
#X obj 1363 2018 expr~ ((1-$v4)*($v1+0.3*$v2*$v3)+($v2*$v4*2));
#X connect 1 0 128 1;
#X connect 1 0 141 0;
#X connect 1 0 142 0;
#X connect 2 0 145 1;
#X connect 3 0 5 0;
#X connect 4 0 0 0;
#X connect 4 0 0 1;
#X connect 5 0 4 1;
#X connect 6 0 1 0;
#X connect 7 0 145 3;
#X connect 8 0 144 0;
#X connect 9 0 144 0;
#X connect 10 0 6 0;
#X connect 11 0 7 0;
#X connect 12 0 3 0;
#X connect 16 0 18 0;
#X connect 18 0 15 0;
#X connect 20 0 28 1;
#X connect 21 0 27 3;
#X connect 22 0 27 2;
#X connect 23 0 27 1;
#X connect 24 0 31 0;
#X connect 24 0 19 0;
#X connect 25 0 27 0;
#X connect 27 0 24 0;
#X connect 27 1 24 1;
#X connect 27 2 24 2;
#X connect 27 3 24 3;
#X connect 28 0 33 0;
#X connect 28 1 33 1;
#X connect 28 2 33 2;
#X connect 29 0 28 0;
#X connect 30 0 28 2;
#X connect 33 0 32 0;
#X connect 33 0 26 0;
#X connect 35 0 39 0;
#X connect 35 1 39 1;
#X connect 35 2 39 2;
#X connect 35 3 39 3;
#X connect 37 0 35 0;
#X connect 38 0 35 1;
#X connect 39 0 36 0;
#X connect 39 0 34 0;
#X connect 41 0 45 0;
#X connect 41 1 45 1;
#X connect 41 2 45 2;
#X connect 42 0 41 0;
#X connect 43 0 41 1;
#X connect 45 0 44 0;
#X connect 45 0 40 0;
#X connect 47 0 113 0;
#X connect 48 0 47 0;
#X connect 48 0 111 0;
#X connect 49 0 4 0;
#X connect 50 0 51 0;
#X connect 52 0 53 0;
#X connect 53 0 54 0;
#X connect 53 0 54 1;
#X connect 57 0 70 0;
#X connect 58 0 56 0;
#X connect 58 0 57 0;
#X connect 59 0 60 0;
#X connect 61 0 66 0;
#X connect 64 0 115 0;
#X connect 65 0 63 0;
#X connect 65 0 64 0;
#X connect 66 0 62 0;
#X connect 66 0 62 1;
#X connect 67 0 59 0;
#X connect 69 0 50 0;
#X connect 70 0 52 0;
#X connect 72 0 137 0;
#X connect 72 1 137 1;
#X connect 72 2 137 2;
#X connect 72 3 137 3;
#X connect 74 0 104 0;
#X connect 74 1 104 1;
#X connect 74 2 104 2;
#X connect 75 0 72 0;
#X connect 76 0 72 2;
#X connect 77 0 72 3;
#X connect 80 0 74 1;
#X connect 81 0 82 0;
#X connect 83 0 90 0;
#X connect 86 0 87 0;
#X connect 87 0 83 0;
#X connect 88 0 85 0;
#X connect 88 0 86 0;
#X connect 90 0 84 0;
#X connect 90 0 84 1;
#X connect 91 0 81 0;
#X connect 92 0 91 0;
#X connect 93 0 69 0;
#X connect 94 0 67 0;
#X connect 95 0 98 0;
#X connect 96 0 98 1;
#X connect 97 0 98 2;
#X connect 98 0 99 0;
#X connect 98 1 99 1;
#X connect 98 2 99 2;
#X connect 99 0 101 0;
#X connect 100 0 140 0;
#X connect 100 1 140 1;
#X connect 100 2 140 2;
#X connect 101 0 100 2;
#X connect 102 0 100 0;
#X connect 103 0 100 1;
#X connect 104 0 78 0;
#X connect 104 0 73 0;
#X connect 105 0 72 1;
#X connect 107 0 142 3;
#X connect 108 0 142 2;
#X connect 109 0 125 1;
#X connect 109 0 123 2;
#X connect 110 0 142 1;
#X connect 111 0 114 0;
#X connect 112 0 114 1;
#X connect 113 0 112 0;
#X connect 114 0 145 0;
#X connect 115 0 61 0;
#X connect 116 0 49 1;
#X connect 117 0 123 0;
#X connect 118 0 121 0;
#X connect 118 0 116 0;
#X connect 119 0 126 0;
#X connect 120 0 125 0;
#X connect 122 0 123 1;
#X connect 123 0 118 0;
#X connect 123 1 118 1;
#X connect 123 2 118 2;
#X connect 125 0 122 0;
#X connect 125 1 122 1;
#X connect 126 0 127 0;
#X connect 127 0 124 0;
#X connect 127 0 120 0;
#X connect 128 0 131 0;
#X connect 128 1 131 1;
#X connect 129 0 128 0;
#X connect 129 0 132 0;
#X connect 130 0 145 2;
#X connect 131 0 130 0;
#X connect 134 0 35 2;
#X connect 135 0 35 3;
#X connect 136 0 41 2;
#X connect 137 0 79 0;
#X connect 137 0 71 0;
#X connect 138 0 74 2;
#X connect 139 0 74 0;
#X connect 140 0 110 0;
#X connect 141 0 95 0;
#X connect 142 0 143 0;
#X connect 142 1 143 1;
#X connect 142 2 143 2;
#X connect 142 3 143 3;
#X connect 143 0 109 0;
#X connect 145 0 49 0;
#X restore 246 606 pd angle-intensite-decroissant;
#X floatatom 900 411 5 0 1 0 - - -, f 5;
#X obj 340 319 routeOSC /modality_number /pointer_target_angle /pointing_to_the_target
/inside_target /distance_to_the_target /mute /target_behind /pointer_length
/victory /defeat /start /between_O_P;
#X msg 901 921 \; between_O_P \$1;
#X msg 1152 596 0 \, 85655 1942;
#X obj 303 672 angle-frequence-decroissant;
#X obj 287 708 Angle-Distance-decroissant;
#X connect 4 0 6 0;
#X connect 5 0 90 0;
#X connect 6 0 7 0;
#X connect 7 0 5 0;
#X connect 15 0 44 0;
#X connect 16 0 44 0;
#X connect 17 0 44 0;
#X connect 18 0 8 0;
#X connect 19 0 88 0;
#X connect 20 0 94 0;
#X connect 24 0 9 0;
#X connect 25 0 10 0;
#X connect 26 0 11 0;
#X connect 27 0 12 0;
#X connect 28 0 13 0;
#X connect 30 0 31 0;
#X connect 32 0 44 0;
#X connect 34 0 38 0;
#X connect 35 0 36 0;
#X connect 39 0 40 0;
#X connect 43 0 44 0;
#X connect 44 0 18 0;
#X connect 44 1 19 0;
#X connect 44 2 20 0;
#X connect 44 3 30 0;
#X connect 44 4 45 0;
#X connect 45 0 41 0;
#X connect 46 0 47 0;
#X connect 48 0 49 0;
#X connect 49 0 50 0;
#X connect 49 0 50 1;
#X connect 53 0 74 0;
#X connect 54 0 55 0;
#X connect 56 0 52 0;
#X connect 56 0 53 0;
#X connect 58 0 67 0;
#X connect 59 0 60 0;
#X connect 61 0 66 0;
#X connect 64 0 92 0;
#X connect 65 0 63 0;
#X connect 65 0 64 0;
#X connect 66 0 62 0;
#X connect 66 0 62 1;
#X connect 68 0 59 0;
#X connect 70 0 46 0;
#X connect 74 0 48 0;
#X connect 75 0 86 0;
#X connect 76 0 77 0;
#X connect 78 0 85 0;
#X connect 81 0 82 0;
#X connect 82 0 78 0;
#X connect 83 0 80 0;
#X connect 83 0 81 0;
#X connect 85 0 79 0;
#X connect 85 0 79 1;
#X connect 87 0 76 0;
#X connect 89 0 91 0;
#X connect 90 0 44 0;
#X connect 90 1 24 0;
#X connect 90 2 25 0;
#X connect 90 3 26 0;
#X connect 90 4 27 0;
#X connect 90 5 28 0;
#X connect 90 6 35 0;
#X connect 90 7 39 0;
#X connect 90 8 54 0;
#X connect 90 9 58 0;
#X connect 90 10 75 0;
#X connect 90 11 89 0;
#X connect 92 0 61 0;
