#N canvas 1316 600 3235 1529 24;
#X msg 210 -419 \; pd dsp 0;
#X text 256 -335 OFF;
#X msg 46 -419 \; pd dsp 1;
#X text 82 -335 ON;
#X obj 678 346 import mrpeach;
#X obj 678 564 routeOSC /advis;
#X obj 678 416 mrpeach/udpreceive 3011;
#X obj 678 480 mrpeach/unpackOSC;
#X obj 46 1152 son-chaud-froid-modalite-0;
#X msg 760 898 \; pointer_target_angle \$1;
#X msg 866 984 \; pointing_to_the_target \$1;
#X msg 966 1074 \; inside_target \$1;
#X msg 1076 1164 \; distance_to_the_target \$1;
#X msg 1180 1250 \; mute \$1;
#X obj 76 1274 son-chaud-froid-modalite-1;
#X msg 48 846 0;
#X msg 122 846 1;
#X msg 196 846 2;
#X obj 46 1098 tgl 15 0 empty empty empty 17 7 0 10 -262144 -1 -1 0
1;
#X obj 76 1218 tgl 15 0 empty empty empty 17 7 0 10 -262144 -1 -1 1
1;
#X obj 108 1346 tgl 15 0 empty empty empty 17 7 0 10 -262144 -1 -1
0 1;
#X text 50 782 a;
#X text 134 780 z;
#X text 214 782 e;
#X floatatom 760 826 5 0 1 0 - - -, f 5;
#X floatatom 864 824 5 0 1 0 - - -, f 5;
#X floatatom 968 824 5 0 1 0 - - -, f 5;
#X floatatom 1072 824 5 0 1 0 - - -, f 5;
#X floatatom 1180 822 5 0 1 0 - - -, f 5;
#X text 292 782 r;
#X obj 138 1480 tgl 15 0 empty empty empty 17 7 0 10 -262144 -1 -1
0 1;
#X obj 138 1536 son-chaud-froid-modalite-3;
#X msg 274 846 3;
#X obj 108 1404 son-chaud-froid-modalite-2-log;
#X obj 44 388 loadbang;
#X floatatom 1280 824 5 0 1 0 - - -, f 5;
#X msg 1278 1348 \; target_behind \$1;
#X obj 562 1404 son-chaud-froid-modalite-2;
#X msg 42 462 \; pointer_target_angle 0 \; pointing_to_the_target 0
\; inside_target 0 \; distance_to_the_target 0 \; mute 0 \; target_behind
0;
#X floatatom 1384 826 5 0 1 0 - - -, f 5;
#X msg 1392 1452 \; pointer_length \$1;
#X obj 168 1684 son-chaud-froid-modalite-torche;
#X text 374 782 t;
#X msg 356 846 4;
#X obj 46 1030 Decode 5;
#X obj 168 1628 tgl 15 0 empty empty empty 17 7 0 10 -262144 -1 -1
0 1;
#X obj 2332 116 soundfiler;
#X floatatom 2338 186 5 0 0 0 - - -, f 5;
#X msg 2310 378 0 \, 20550 466;
#X obj 2326 484 line~;
#X obj 2334 564 tabread~ victory_array;
#X obj 2340 676 dac~;
#N canvas 1083 403 450 300 (subpatch) 1;
#X array victory_array 20822 float 2 black black;
#X coords 0 1 20822 -1 200 140 1;
#X restore 2678 160 graph;
#X floatatom 2120 346 5 0 0 0 - - -, f 5;
#X obj 2208 252 edge, f 5;
#X floatatom 1486 826 5 0 1 0 - - -, f 5;
#X msg 1492 1558 \; victory \$1;
#X obj 2048 172 r victory;
#X text 424 -417 t b float pour bang à chaque changement de valeur
peut-etre bondo permettrait d'être plus compact \; dbtorms https://fr.flossmanuals.net/puredata/la-synthese-audio/
\; line http://booki.flossmanuals.net/pure-data/audio-tutorials/envelope-generator
\; manuel: https://fr.flossmanuals.net/puredata/introduction/pb
son: sudo alsa force-reloadhttps://itsfoss.com/fix-sound-ubuntu-1304-quick-tip/son
jeux vidéo:https://fr.audioblocks.com/royalty-free-audiobbcsfx.acropolis.org.uk
, f 100;
#X obj 680 636 routeOSC /modality_number /pointer_target_angle /pointing_to_the_target
/inside_target /distance_to_the_target /mute /target_behind /pointer_length
/victory /defeat;
#X floatatom 1589 826 5 0 1 0 - - -, f 5;
#X obj 2327 931 soundfiler;
#X floatatom 2333 1001 5 0 0 0 - - -, f 5;
#X obj 2321 1299 line~;
#X obj 2335 1491 dac~;
#X floatatom 2115 1161 5 0 0 0 - - -, f 5;
#X obj 2203 1067 edge, f 5;
#X obj 2043 987 r defeat;
#X obj 2330 1380 tabread~ defeat_array;
#X msg 1594 1644 \; defeat \$1;
#X msg 2305 1193 0 \, 36192 1508;
#X msg 2329 810 read -resize -maxsize 1e+10 ../../data/sound/fail/defeat.wav
defeat_array;
#N canvas 0 0 450 300 (subpatch) 0;
#X array defeat_array 36209 float 2 black black;
#X coords 0 1 36209 -1 200 140 1;
#X restore 2691 999 graph;
#X msg 2334 -5 read -resize -maxsize 1e+10 ../../data/sound/victory/victory.wav
victory_array;
#N canvas 1928 256 1859 1025 angle-intensite 1;
#X obj 24 2440 dac~;
#X floatatom 1548 622 4 0 0 0 - - -, f 4;
#X floatatom 976 1100 5 0 1 0 - - -, f 5;
#X floatatom 1350 1104 5 0 1 0 - - -, f 5;
#X obj 352 1416 noise~, f 8;
#X floatatom 264 2164 5 0 1 0 - - -, f 5;
#X obj 48 2306 *~;
#X obj 108 2242 expr 1-$f1;
#X obj 1534 572 hsl 100 15 0 180 0 0 empty empty empty -2 -8 0 10 -262144
-1 -1 3311 1;
#X floatatom 1494 1154 5 0 1 0 - - -, f 5;
#X obj 30 -117 loadbang;
#X obj 182 -117 bng 15 250 50 0 empty empty empty 17 7 0 10 -262144
-1 -1;
#X obj 1552 512 r pointer_target_angle;
#X obj 1350 1034 r pointing_to_the_target;
#X obj 1494 1096 r inside_target;
#X obj 346 2088 r mute;
#X text 234 -117 to click if params have changed;
#X text 280 126 100 dB <=> unchanged loudness;
#X obj 278 70 switch~;
#X obj 278 -33 inlet;
#X text 404 70 turn patch off/on;
#X floatatom 278 10 5 0 0 0 - - -, f 5;
#X floatatom 948 91 5 0 0 0 - - -, f 5;
#X obj 1754 -93 r ad;
#X obj 1196 -97 r dmax;
#X obj 1088 -97 r dmin;
#X obj 946 -97 r dbmax;
#X obj 842 20 expr ($f1-$f2)/log($f4/$f3);
#X obj 814 -97 r dbmin;
#X floatatom 1714 96 5 0 0 0 - - -, f 5;
#X obj 986 -33 bondo 4;
#X obj 1710 -19 bondo 3;
#X obj 1608 -93 r dbmin;
#X obj 1854 -93 r dmax;
#X msg 842 90 \; ad \$1;
#X msg 1612 94 \; bd \$1;
#X obj 1612 28 expr $f1-$f2*log($f3);
#X floatatom 956 444 5 0 0 0 - - -, f 5;
#X obj 1004 310 bondo 4;
#X msg 858 444 \; af \$1;
#X obj 834 244 r fmin;
#X obj 964 244 r fmax;
#X obj 1106 244 r thetamin;
#X obj 1278 244 r thetamax;
#X obj 860 374 expr (log($f1)-log($f2))/($f4-$f3);
#X floatatom 1706 430 5 0 0 0 - - -, f 5;
#X obj 1702 302 bondo 3;
#X obj 1598 230 r fmin;
#X obj 1746 228 r af;
#X obj 1846 228 r thetamax;
#X msg 1606 434 \; bf \$1;
#X obj 1604 364 expr log($f1)-$f2*$f3;
#X text 1080 1100 target behind;
#X obj 336 1284 pythagorean-chord;
#X floatatom 1366 802 5 0 1 0 - - -, f 5;
#X obj 1204 836 bondo 2;
#X obj 1430 750 r target_behind;
#X obj 976 934 expr if($f1<90&&$f2==0 \, 0 \, 1);
#X obj 64 1276 new-behind;
#X floatatom 90 1190 5 0 0 0 - - -, f 5;
#X obj 58 1106 r freq;
#X msg 30 -33 \; fmin 110 \; fmax 440 \; fcst 220 \; dmin 0.3 \; dmax
6 \; dbmin 55 \; dbmax 80 \; thetamin 0 \; thetamax 90 \; anglediscr
0 \; anglestep 30 \; freq 220;
#X floatatom 1852 1098 5 0 0 0 - - -, f 5;
#X obj 2046 1076 r anglediscr;
#X obj 2268 1070 r anglestep;
#X obj 56 1986 *~;
#X obj 342 1890 dbtorms~;
#X floatatom 1846 1352 5 0 0 0 - - -, f 5;
#X obj 2090 1164 bondo 3;
#X obj 62 1508 expr~ (1-$v4)*($v1+0.3*$v2*$v3)+$v2*$v4;
#X obj 1754 1280 expr if($f2<1 \, 0.45*$f1 \, $f3*(floor(abs($f1-0.1)/$f3)))
;
#X obj 1022 1976 soundfiler;
#X floatatom 1032 2062 5 0 0 0 - - -, f 5;
#X msg 934 2150 0 \, 20550 466;
#X obj 950 2256 line~;
#X obj 958 2336 tabread~ victory_array;
#X obj 964 2448 dac~;
#N canvas 1109 429 450 300 (subpatch) 0;
#X array victory_array 20822 float 2 black black;
#X coords 0 1 20822 -1 200 140 1;
#X restore 1368 2020 graph;
#X msg 1020 1838 read -resize -maxsize 1e+10 ../../data/sound/victory.wav
victory_array;
#X floatatom 744 2118 5 0 0 0 - - -, f 5;
#X obj 832 2024 edge, f 5;
#X obj 672 1944 r victory;
#X obj 1758 812 expr 180-$f1;
#X connect 1 0 55 0;
#X connect 1 0 82 0;
#X connect 2 0 58 1;
#X connect 3 0 69 2;
#X connect 4 0 69 1;
#X connect 5 0 7 0;
#X connect 6 0 0 0;
#X connect 6 0 0 1;
#X connect 7 0 6 1;
#X connect 8 0 1 0;
#X connect 9 0 69 3;
#X connect 10 0 61 0;
#X connect 10 0 78 0;
#X connect 11 0 61 0;
#X connect 12 0 8 0;
#X connect 13 0 3 0;
#X connect 14 0 9 0;
#X connect 15 0 5 0;
#X connect 19 0 21 0;
#X connect 21 0 18 0;
#X connect 23 0 31 1;
#X connect 24 0 30 3;
#X connect 25 0 30 2;
#X connect 26 0 30 1;
#X connect 27 0 34 0;
#X connect 27 0 22 0;
#X connect 28 0 30 0;
#X connect 30 0 27 0;
#X connect 30 1 27 1;
#X connect 30 2 27 2;
#X connect 30 3 27 3;
#X connect 31 0 36 0;
#X connect 31 1 36 1;
#X connect 31 2 36 2;
#X connect 32 0 31 0;
#X connect 33 0 31 2;
#X connect 36 0 35 0;
#X connect 36 0 29 0;
#X connect 38 0 44 0;
#X connect 38 1 44 1;
#X connect 38 2 44 2;
#X connect 38 3 44 3;
#X connect 40 0 38 0;
#X connect 41 0 38 1;
#X connect 42 0 38 2;
#X connect 43 0 38 3;
#X connect 44 0 39 0;
#X connect 44 0 37 0;
#X connect 46 0 51 0;
#X connect 46 1 51 1;
#X connect 46 2 51 2;
#X connect 47 0 46 0;
#X connect 48 0 46 1;
#X connect 49 0 46 2;
#X connect 51 0 50 0;
#X connect 51 0 45 0;
#X connect 54 0 55 1;
#X connect 55 0 57 0;
#X connect 55 1 57 1;
#X connect 56 0 54 0;
#X connect 57 0 2 0;
#X connect 58 0 69 0;
#X connect 60 0 59 0;
#X connect 60 0 58 0;
#X connect 62 0 68 0;
#X connect 63 0 68 1;
#X connect 64 0 68 2;
#X connect 65 0 6 0;
#X connect 66 0 65 1;
#X connect 68 0 70 0;
#X connect 68 1 70 1;
#X connect 68 2 70 2;
#X connect 69 0 65 0;
#X connect 70 0 66 0;
#X connect 70 0 67 0;
#X connect 71 0 72 0;
#X connect 73 0 74 0;
#X connect 74 0 75 0;
#X connect 75 0 76 0;
#X connect 75 0 76 1;
#X connect 78 0 71 0;
#X connect 80 0 73 0;
#X connect 81 0 79 0;
#X connect 81 0 80 0;
#X connect 82 0 62 0;
#X restore 484 1125 pd angle-intensite;
#N canvas 48 17 1859 1025 distance-frequence 0;
#X obj 1228 2358 dac~;
#X floatatom 2396 722 4 0 0 0 - - -, f 4;
#X floatatom 2166 1376 5 0 1 0 - - -, f 5;
#X floatatom 2540 1380 5 0 1 0 - - -, f 5;
#X obj 1450 1680 noise~, f 8;
#X floatatom 2354 1844 5 0 1 0 - - -, f 5;
#X obj 1252 2224 *~;
#X obj 1312 2160 expr 1-$f1;
#X obj 2396 652 hsl 100 15 0 180 0 0 empty empty empty -2 -8 0 10 -262144
-1 -1 3311 1;
#X floatatom 2540 1514 5 0 1 0 - - -, f 5;
#X obj 2396 562 r pointer_target_angle;
#X obj 2540 1310 r pointing_to_the_target;
#X obj 2540 1456 r inside_target;
#X obj 2354 1774 r mute;
#X text 2270 1376 target behind;
#X obj 1526 1560 pythagorean-chord;
#X floatatom 2662 1052 5 0 1 0 - - -, f 5;
#X obj 2394 1112 bondo 2;
#X obj 2662 962 r target_behind;
#X obj 2166 1210 expr if($f1<90&&$f2==0 \, 0 \, 1);
#X obj 1254 1552 new-behind;
#X obj 1820 948 bondo 3;
#X obj 2852 406 loadbang;
#X obj 3004 406 bng 15 250 50 0 empty empty empty 17 7 0 10 -262144
-1 -1;
#X text 3056 406 to click if params have changed;
#X text 3102 660 100 dB <=> unchanged loudness;
#X obj 3100 604 switch~;
#X obj 3100 490 inlet;
#X text 3226 604 turn patch off/on;
#X floatatom 3100 544 5 0 0 0 - - -, f 5;
#X floatatom 3760 624 5 0 0 0 - - -, f 5;
#X obj 4576 428 r ad;
#X obj 4018 426 r dmax;
#X obj 3910 426 r dmin;
#X obj 3768 426 r dbmax;
#X obj 3664 554 expr ($f1-$f2)/log($f4/$f3);
#X obj 3636 426 r dbmin;
#X floatatom 4536 630 5 0 0 0 - - -, f 5;
#X obj 3808 490 bondo 4;
#X obj 4532 502 bondo 3;
#X obj 4430 430 r dbmin;
#X obj 4676 428 r dmax;
#X msg 3664 624 \; ad \$1;
#X msg 4434 628 \; bd \$1;
#X obj 4434 562 expr $f1-$f2*log($f3);
#X floatatom 3778 978 5 0 0 0 - - -, f 5;
#X obj 3826 844 bondo 4;
#X msg 3680 978 \; af \$1;
#X obj 3656 778 r fmin;
#X obj 3786 778 r fmax;
#X obj 3928 778 r thetamin;
#X obj 4100 778 r thetamax;
#X obj 3682 908 expr (log($f1)-log($f2))/($f4-$f3);
#X floatatom 4528 964 5 0 0 0 - - -, f 5;
#X obj 4524 836 bondo 3;
#X obj 4420 764 r fmin;
#X obj 4568 762 r af;
#X obj 4668 762 r thetamax;
#X msg 4428 968 \; bf \$1;
#X obj 4426 898 expr log($f1)-$f2*$f3;
#X obj 1706 632 hsl 200 15 0 10 0 0 empty empty empty -2 -8 0 10 -262144
-1 -1 4704 1;
#X floatatom 1854 730 5 0 0 0 - - -, f 5;
#X obj 1852 872 r dmin;
#X obj 2000 868 r dmax;
#X floatatom 1684 1092 5 0 0 0 - - -, f 5;
#X floatatom 1722 1378 5 0 0 0 - - -, f 5;
#X obj 1704 552 r distance_to_the_target;
#X obj 1768 1094 r ad;
#X obj 1886 1094 r bd;
#X obj 1770 1186 bondo 3;
#X obj 1680 1294 expr $f2*log($f1)+$f3;
#X msg 2852 492 \; fmin 110 \; fmax 440 \; fcst 220 \; dmin 0.3 \;
dmax 6 \; dbmin 50 \; dbmax 80 \; thetamin 0 \; thetamax 90 \; anglediscr
0 \; anglestep 30 \; freq 220;
#X obj 1652 1024 expr if($f3<$f1 \, $f3 \, if($f2>$f1 \, $f2 \, $f1))
;
#X obj 1680 1294 expr 2.5*($f2*log($f1)+$f3);
#X obj 1250 1784 expr~ (1-$v4)*($v1+0.2*$v2*$v3)+0.6*$v2*$v4;
#X connect 1 0 17 0;
#X connect 2 0 20 1;
#X connect 3 0 74 2;
#X connect 4 0 74 1;
#X connect 5 0 7 0;
#X connect 6 0 0 0;
#X connect 6 0 0 1;
#X connect 7 0 6 1;
#X connect 8 0 1 0;
#X connect 9 0 74 3;
#X connect 10 0 8 0;
#X connect 11 0 3 0;
#X connect 12 0 9 0;
#X connect 13 0 5 0;
#X connect 16 0 17 1;
#X connect 17 0 19 0;
#X connect 17 1 19 1;
#X connect 18 0 16 0;
#X connect 19 0 2 0;
#X connect 20 0 74 0;
#X connect 21 0 72 0;
#X connect 21 1 72 1;
#X connect 21 2 72 2;
#X connect 22 0 71 0;
#X connect 23 0 71 0;
#X connect 27 0 29 0;
#X connect 29 0 26 0;
#X connect 31 0 39 1;
#X connect 32 0 38 3;
#X connect 33 0 38 2;
#X connect 34 0 38 1;
#X connect 35 0 42 0;
#X connect 35 0 30 0;
#X connect 36 0 38 0;
#X connect 38 0 35 0;
#X connect 38 1 35 1;
#X connect 38 2 35 2;
#X connect 38 3 35 3;
#X connect 39 0 44 0;
#X connect 39 1 44 1;
#X connect 39 2 44 2;
#X connect 40 0 39 0;
#X connect 41 0 39 2;
#X connect 44 0 43 0;
#X connect 44 0 37 0;
#X connect 46 0 52 0;
#X connect 46 1 52 1;
#X connect 46 2 52 2;
#X connect 46 3 52 3;
#X connect 48 0 46 0;
#X connect 49 0 46 1;
#X connect 50 0 46 2;
#X connect 51 0 46 3;
#X connect 52 0 47 0;
#X connect 52 0 45 0;
#X connect 54 0 59 0;
#X connect 54 1 59 1;
#X connect 54 2 59 2;
#X connect 55 0 54 0;
#X connect 56 0 54 1;
#X connect 57 0 54 2;
#X connect 59 0 58 0;
#X connect 59 0 53 0;
#X connect 60 0 61 0;
#X connect 60 0 21 0;
#X connect 62 0 21 1;
#X connect 63 0 21 2;
#X connect 64 0 69 0;
#X connect 66 0 60 0;
#X connect 67 0 69 1;
#X connect 68 0 69 2;
#X connect 69 0 73 0;
#X connect 69 1 73 1;
#X connect 69 2 73 2;
#X connect 70 0 20 0;
#X connect 72 0 64 0;
#X connect 73 0 65 0;
#X connect 73 0 20 0;
#X connect 74 0 6 0;
#X restore 495 1203 pd distance-frequence;
#X obj 502 1262 angle-frequence;
#X obj 498 1320 distance-intensite-log;
#X connect 4 0 6 0;
#X connect 5 0 59 0;
#X connect 6 0 7 0;
#X connect 7 0 5 0;
#X connect 15 0 44 0;
#X connect 16 0 44 0;
#X connect 17 0 44 0;
#X connect 18 0 8 0;
#X connect 19 0 74 0;
#X connect 20 0 33 0;
#X connect 24 0 9 0;
#X connect 25 0 10 0;
#X connect 26 0 11 0;
#X connect 27 0 12 0;
#X connect 28 0 13 0;
#X connect 30 0 31 0;
#X connect 32 0 44 0;
#X connect 34 0 38 0;
#X connect 35 0 36 0;
#X connect 39 0 40 0;
#X connect 43 0 44 0;
#X connect 44 0 18 0;
#X connect 44 1 19 0;
#X connect 44 2 20 0;
#X connect 44 3 30 0;
#X connect 44 4 45 0;
#X connect 45 0 41 0;
#X connect 46 0 47 0;
#X connect 48 0 49 0;
#X connect 49 0 50 0;
#X connect 50 0 51 0;
#X connect 50 0 51 1;
#X connect 54 0 48 0;
#X connect 55 0 56 0;
#X connect 57 0 53 0;
#X connect 57 0 54 0;
#X connect 59 0 44 0;
#X connect 59 1 24 0;
#X connect 59 2 25 0;
#X connect 59 3 26 0;
#X connect 59 4 27 0;
#X connect 59 5 28 0;
#X connect 59 6 35 0;
#X connect 59 7 39 0;
#X connect 59 8 55 0;
#X connect 59 9 60 0;
#X connect 60 0 69 0;
#X connect 61 0 62 0;
#X connect 63 0 68 0;
#X connect 66 0 70 0;
#X connect 67 0 65 0;
#X connect 67 0 66 0;
#X connect 68 0 64 0;
#X connect 68 0 64 1;
#X connect 70 0 63 0;
#X connect 71 0 61 0;
#X connect 73 0 46 0;
