#N canvas 977 17 930 990 10;
#X obj 7 579 dac~;
#X floatatom 591 -728 4 0 0 0 - - -, f 4;
#X floatatom 22 -409 5 0 0 0 - - -, f 5;
#X obj 135 1 noise~, f 8;
#X floatatom 146 427 5 0 1 0 - - -, f 5;
#X obj 19 512 *~;
#X obj 19 442 *~;
#X obj 550 74 hsl 200 15 0 10 0 0 empty empty empty -2 -8 0 10 -262144
-1 -1 7450 1;
#X obj 49 480 expr 1-$f1;
#X obj 591 -770 hsl 100 15 0 180 0 0 empty empty empty -2 -8 0 10 -262144
-1 -1 3900 1;
#X floatatom 296 16 5 0 1 0 - - -, f 5;
#X floatatom 550 105 5 0 0 0 - - -, f 5;
#X obj 2 -1147 loadbang;
#X obj 78 -1147 bng 15 250 50 0 empty empty empty 17 7 0 10 -262144
-1 -1;
#X obj 327 112 r dmin;
#X obj 388 111 r dmax;
#X floatatom 234 219 5 0 0 0 - - -, f 5;
#X floatatom 253 362 5 0 0 0 - - -, f 5;
#X obj 591 -808 r pointer_target_angle;
#X obj 262 -11 r inside_target;
#X obj 550 44 r distance_to_the_target;
#X obj 162 409 r mute;
#X text 104 -1147 to click if params have changed;
#X text 127 -1020 100 dB <=> unchanged loudness;
#X obj 98 385 dbtorms~;
#X obj 126 -1048 switch~;
#X obj 126 -1105 inlet;
#X text 189 -1048 turn patch off/on;
#X floatatom 126 -1078 5 0 0 0 - - -, f 5;
#X floatatom 456 -1038 5 0 0 0 - - -, f 5;
#X obj 864 -1136 r ad;
#X obj 585 -1137 r dmax;
#X obj 531 -1137 r dmin;
#X obj 460 -1137 r dbmax;
#X obj 394 -1137 r dbmin;
#X floatatom 844 -1035 5 0 0 0 - - -, f 5;
#X obj 480 -1105 bondo 4;
#X obj 842 -1099 bondo 3;
#X obj 914 -1136 r dmax;
#X msg 408 -1038 \; ad \$1;
#X msg 793 -1036 \; bd \$1;
#X obj 793 -1069 expr $f1-$f2*log($f3);
#X obj 365 143 bondo 3;
#X obj 235 182 expr if($f3<$f1 \, $f1 \, if($f3>$f2 \, $f2 \, $f3))
;
#X obj 276 220 r ad;
#X obj 335 220 r bd;
#X obj 277 266 bondo 3;
#X obj 232 320 expr $f2*log($f1)+$f3;
#X floatatom 465 -861 5 0 0 0 - - -, f 5;
#X obj 489 -928 bondo 4;
#X msg 416 -861 \; af \$1;
#X obj 404 -961 r fmin;
#X obj 469 -961 r fmax;
#X obj 540 -961 r thetamin;
#X obj 626 -961 r thetamax;
#X floatatom 840 -868 5 0 0 0 - - -, f 5;
#X obj 838 -932 bondo 3;
#X obj 786 -968 r fmin;
#X obj 860 -969 r af;
#X obj 910 -969 r thetamax;
#X msg 790 -866 \; bf \$1;
#X obj 64 -498 bondo 3;
#X obj 34 -561 r af;
#X obj 109 -561 r bf;
#X floatatom 167 -563 5 0 0 0 - - -, f 5;
#X obj 358 -632 bondo 3;
#X obj 414 -674 r anglediscr;
#X obj 497 -674 r anglestep;
#X obj 232 -600 expr if($f2<1 \, $f1 \, $f3*(floor(abs($f1-0.1)/$f3)))
;
#X floatatom 370 -670 5 0 0 0 - - -, f 5;
#X obj 1153 -1042 soundfiler;
#X floatatom 1155 -1005 5 0 0 0 - - -, f 5;
#X obj 1169 -856 line~;
#X obj 1172 -816 tabread~ victory_array;
#X obj 1176 -760 dac~;
#N canvas 992 312 450 300 (subpatch) 0;
#X array victory_array 20822 float 2 black black;
#X coords 0 1 20822 -1 200 140 1;
#X restore 1270 -1026 graph;
#X floatatom 1065 -925 5 0 0 0 - - -, f 5;
#X obj 1109 -972 edge, f 5;
#X obj 1064 -1024 r victory;
#X obj 1143 -586 soundfiler;
#X floatatom 1170 -551 5 0 0 0 - - -, f 5;
#X obj 1185 -395 line~;
#X obj 1192 -299 dac~;
#X floatatom 1087 -484 5 0 0 0 - - -, f 5;
#X obj 1126 -511 edge, f 5;
#X obj 1081 -552 r defeat;
#X obj 1189 -355 tabread~ defeat_array;
#X msg 1051 -652 read -resize -maxsize 1e+10 ../../data/sound/fail/defeat.wav
defeat_array;
#N canvas 658 288 450 300 (subpatch) 0;
#X array defeat_array 28454 float 2 black black;
#X coords 0 1 28454 -1 200 140 1;
#X restore 1242 -605 graph;
#X msg 1117 -1090 read -resize -maxsize 1e+10 ../../data/sound/victory/victory.wav
victory_array;
#X msg 1160 -909 0 \, 23294 971;
#X obj 1472 -763 soundfiler;
#X floatatom 1474 -728 5 0 0 0 - - -, f 5;
#X obj 1462 -633 line~;
#X obj 1469 -537 dac~;
#X floatatom 1382 -706 5 0 0 0 - - -, f 5;
#X obj 1403 -749 edge, f 5;
#X msg 1453 -686 0 \, 28454 981;
#X obj 1376 -798 r start;
#N canvas 684 314 450 300 (subpatch) 0;
#X array start_array 11321 float 2 black black;
#X coords 0 1 11321 -1 200 140 1;
#X restore 1577 -746 graph;
#X obj 1466 -593 tabread~ start_array;
#X msg 1473 -824 read -resize -maxsize 1e+10 ../../data/sound/start/start.wav
start_array;
#X obj 1115 -1128 loadbang;
#X obj 1048 -686 loadbang;
#X msg 1177 -448 0 \, 85655 1942;
#X obj 1466 -857 loadbang;
#X obj 22 -24 osc~;
#X obj 93 -21 osc~;
#X obj 67 -53 expr $f1*1;
#X obj 22 9 expr~ ($v1+$v2);
#X obj 425 -154 bondo 2;
#X obj 333 -249 r pointing_to_the_target;
#X floatatom 400 -78 5 0 1 0 - - -, f 5;
#X obj 288 -116 expr if($f1==1 && $f2>90 \, 0 \, if($f1==1 \, 1 \,
0));
#X floatatom 399 -207 5 0 1 0 - - -, f 5;
#X obj 15 -461 expr exp($f1*log($f3)+$f2);
#X obj 789 -901 expr log($f1)-$f2*log($f3);
#X obj 417 -895 expr (log($f1)-log($f2))/log($f4-$f3);
#X obj 366 -702 expr 90-$f1;
#X obj 141 -365 bondo 4;
#X obj 180 -397 r fmin;
#X obj 227 -398 r fmax;
#X floatatom 49 -276 5 0 0 0 - - -, f 5;
#X obj 21 -322 expr if($f1 > 90 \, $f4 \, if($f2<$f3 \, $f3 \, if($f2>$f4
\, $f4 \, $f2)));
#X obj 408 -1073 expr ($f1-$f2)/(log($f3)-log($f4));
#X msg 2 -1104 \; fmin 110 \; fmax 440 \; dmin 0.4 \; dmax 6 \; dbmin
50 \; dbmax 80 \; thetamin 1 \; thetamax 90 \; anglediscr 0 \; anglestep
30;
#X obj 791 -1135 r dbmax;
#X obj 446 105 expr 6-$f1;
#X floatatom 487 130 5 0 0 0 - - -, f 5;
#X obj 23 47 expr~ ((1-$v4)*($v1+0.3*$v2*$v3)+($v2*$v4*2));
#X connect 1 0 110 1;
#X connect 1 0 118 0;
#X connect 1 0 119 0;
#X connect 3 0 129 1;
#X connect 4 0 8 0;
#X connect 5 0 0 0;
#X connect 5 0 0 1;
#X connect 6 0 5 0;
#X connect 7 0 11 0;
#X connect 7 0 127 0;
#X connect 8 0 5 1;
#X connect 9 0 1 0;
#X connect 12 0 125 0;
#X connect 13 0 125 0;
#X connect 14 0 42 0;
#X connect 15 0 42 1;
#X connect 16 0 46 0;
#X connect 18 0 9 0;
#X connect 19 0 10 0;
#X connect 19 0 129 3;
#X connect 20 0 7 0;
#X connect 21 0 4 0;
#X connect 24 0 6 1;
#X connect 26 0 28 0;
#X connect 28 0 25 0;
#X connect 30 0 37 1;
#X connect 31 0 36 3;
#X connect 32 0 36 2;
#X connect 33 0 36 1;
#X connect 34 0 36 0;
#X connect 36 0 124 0;
#X connect 36 1 124 1;
#X connect 36 2 124 2;
#X connect 36 3 124 3;
#X connect 37 0 41 0;
#X connect 37 1 41 1;
#X connect 37 2 41 2;
#X connect 38 0 37 2;
#X connect 41 0 40 0;
#X connect 41 0 35 0;
#X connect 42 0 43 0;
#X connect 42 1 43 1;
#X connect 42 2 43 2;
#X connect 43 0 16 0;
#X connect 44 0 46 1;
#X connect 45 0 46 2;
#X connect 46 0 47 0;
#X connect 46 1 47 1;
#X connect 46 2 47 2;
#X connect 47 0 17 0;
#X connect 47 0 24 0;
#X connect 49 0 117 0;
#X connect 49 1 117 1;
#X connect 49 2 117 2;
#X connect 49 3 117 3;
#X connect 51 0 49 0;
#X connect 52 0 49 1;
#X connect 53 0 49 2;
#X connect 54 0 49 3;
#X connect 56 0 116 0;
#X connect 56 1 116 1;
#X connect 56 2 116 2;
#X connect 57 0 56 0;
#X connect 58 0 56 1;
#X connect 59 0 56 2;
#X connect 61 0 115 0;
#X connect 61 1 115 1;
#X connect 61 2 115 2;
#X connect 62 0 61 0;
#X connect 63 0 61 1;
#X connect 64 0 61 2;
#X connect 65 0 68 0;
#X connect 65 1 68 1;
#X connect 65 2 68 2;
#X connect 66 0 65 1;
#X connect 67 0 65 2;
#X connect 68 0 64 0;
#X connect 69 0 65 0;
#X connect 70 0 71 0;
#X connect 72 0 73 0;
#X connect 73 0 74 0;
#X connect 73 0 74 1;
#X connect 77 0 90 0;
#X connect 78 0 76 0;
#X connect 78 0 77 0;
#X connect 79 0 80 0;
#X connect 81 0 86 0;
#X connect 84 0 104 0;
#X connect 85 0 83 0;
#X connect 85 0 84 0;
#X connect 86 0 82 0;
#X connect 86 0 82 1;
#X connect 87 0 79 0;
#X connect 89 0 70 0;
#X connect 90 0 72 0;
#X connect 91 0 92 0;
#X connect 93 0 100 0;
#X connect 96 0 97 0;
#X connect 97 0 93 0;
#X connect 98 0 95 0;
#X connect 98 0 96 0;
#X connect 100 0 94 0;
#X connect 100 0 94 1;
#X connect 101 0 91 0;
#X connect 102 0 89 0;
#X connect 103 0 87 0;
#X connect 104 0 81 0;
#X connect 105 0 101 0;
#X connect 106 0 109 0;
#X connect 107 0 109 1;
#X connect 108 0 107 0;
#X connect 109 0 129 0;
#X connect 110 0 113 0;
#X connect 110 1 113 1;
#X connect 111 0 110 0;
#X connect 111 0 114 0;
#X connect 113 0 112 0;
#X connect 113 0 129 2;
#X connect 115 0 2 0;
#X connect 115 0 119 1;
#X connect 116 0 60 0;
#X connect 116 0 55 0;
#X connect 117 0 50 0;
#X connect 117 0 48 0;
#X connect 118 0 69 0;
#X connect 119 0 123 0;
#X connect 119 1 123 1;
#X connect 119 2 123 2;
#X connect 119 3 123 3;
#X connect 120 0 119 2;
#X connect 121 0 119 3;
#X connect 123 0 122 0;
#X connect 123 0 106 0;
#X connect 123 0 108 0;
#X connect 124 0 39 0;
#X connect 124 0 29 0;
#X connect 126 0 37 0;
#X connect 127 0 42 2;
#X connect 127 0 128 0;
#X connect 129 0 6 0;
