#N canvas 977 17 930 990 10;
#X obj 7 579 dac~;
#X floatatom 591 -728 4 0 0 0 - - -, f 4;
#X floatatom 22 -409 5 0 0 0 - - -, f 5;
#X obj 135 1 noise~, f 8;
#X floatatom 146 427 5 0 1 0 - - -, f 5;
#X obj 19 512 *~;
#X obj 19 442 *~;
#X obj 590 -11 hsl 200 15 0 10 0 0 empty empty empty -2 -8 0 10 -262144
-1 -1 3611 1;
#X obj 49 480 expr 1-$f1;
#X obj 591 -770 hsl 100 15 0 180 0 0 empty empty empty -2 -8 0 10 -262144
-1 -1 3143 1;
#X floatatom 296 16 5 0 1 0 - - -, f 5;
#X floatatom 602 18 5 0 0 0 - - -, f 5;
#X obj 2 -1147 loadbang;
#X obj 78 -1147 bng 15 250 50 0 empty empty empty 17 7 0 10 -262144
-1 -1;
#X obj 418 5 r dmin;
#X obj 479 4 r dmax;
#X floatatom 325 112 5 0 0 0 - - -, f 5;
#X floatatom 344 255 5 0 0 0 - - -, f 5;
#X obj 591 -808 r pointer_target_angle;
#X obj 262 -11 r inside_target;
#X obj 594 -38 r distance_to_the_target;
#X obj 162 409 r mute;
#X text 104 -1147 to click if params have changed;
#X text 127 -1020 100 dB <=> unchanged loudness;
#X obj 98 385 dbtorms~;
#X obj 126 -1048 switch~;
#X obj 126 -1105 inlet;
#X text 189 -1048 turn patch off/on;
#X floatatom 126 -1078 5 0 0 0 - - -, f 5;
#X floatatom 456 -1038 5 0 0 0 - - -, f 5;
#X obj 864 -1136 r ad;
#X obj 585 -1137 r dmax;
#X obj 531 -1137 r dmin;
#X obj 460 -1137 r dbmax;
#X obj 394 -1137 r dbmin;
#X floatatom 844 -1035 5 0 0 0 - - -, f 5;
#X obj 480 -1105 bondo 4;
#X obj 842 -1099 bondo 3;
#X obj 914 -1136 r dmax;
#X msg 408 -1038 \; ad \$1;
#X msg 793 -1036 \; bd \$1;
#X obj 793 -1069 expr $f1-$f2*log($f3);
#X obj 456 36 bondo 3;
#X obj 335 68 expr if($f3<$f1 \, $f1 \, if($f3>$f2 \, $f2 \, $f3))
;
#X obj 367 113 r ad;
#X obj 426 113 r bd;
#X obj 368 159 bondo 3;
#X obj 330 185 expr $f2*log($f1)+$f3;
#X floatatom 465 -861 5 0 0 0 - - -, f 5;
#X obj 489 -928 bondo 4;
#X obj 404 -961 r fmin;
#X obj 469 -961 r fmax;
#X obj 540 -961 r thetamin;
#X obj 626 -961 r thetamax;
#X floatatom 840 -868 5 0 0 0 - - -, f 5;
#X obj 838 -932 bondo 3;
#X obj 786 -968 r fmin;
#X obj 860 -969 r af;
#X obj 910 -969 r thetamax;
#X obj 64 -498 bondo 3;
#X floatatom 167 -563 5 0 0 0 - - -, f 5;
#X obj 358 -632 bondo 3;
#X obj 414 -674 r anglediscr;
#X obj 497 -674 r anglestep;
#X obj 232 -600 expr if($f2<1 \, $f1 \, $f3*(floor(abs($f1-0.1)/$f3)))
;
#X floatatom 370 -670 5 0 0 0 - - -, f 5;
#X obj 22 -24 osc~;
#X obj 93 -21 osc~;
#X obj 67 -53 expr $f1*1;
#X obj 22 9 expr~ ($v1+$v2);
#X obj 425 -154 bondo 2;
#X obj 333 -249 r pointing_to_the_target;
#X floatatom 400 -78 5 0 1 0 - - -, f 5;
#X obj 288 -116 expr if($f1==1 && $f2>90 \, 0 \, if($f1==1 \, 1 \,
0));
#X floatatom 399 -207 5 0 1 0 - - -, f 5;
#X obj 15 -461 expr exp($f1*log($f3)+$f2);
#X obj 789 -901 expr log($f1)-$f2*log($f3);
#X obj 366 -702 expr 90-$f1;
#X obj 141 -365 bondo 4;
#X obj 180 -397 r fmin;
#X obj 227 -398 r fmax;
#X floatatom 49 -276 5 0 0 0 - - -, f 5;
#X obj 21 -322 expr if($f1 > 90 \, $f4 \, if($f2<$f3 \, $f3 \, if($f2>$f4
\, $f4 \, $f2)));
#X obj 791 -1135 r dbmax;
#X obj 126 168 r between_O_P;
#X obj 133 331 expr if($f1 == 1 \, $f2 \, $f3);
#X obj 158 109 r between_O_P;
#X obj 239 187 tgl 18 0 empty empty empty 17 7 0 10 -262144 -1 -1 1
1;
#X floatatom 142 361 5 0 0 0 - - -, f 5;
#X obj 198 235 expr $f1*$f2;
#X obj 217 298 bondo 3;
#X floatatom 190 209 5 0 0 0 - - -, f 5;
#X obj 239 212 bondo 2;
#X obj 227 140 edge, f 5;
#X obj 228 161 metro 75;
#X msg 415 -861 \; afc \$1;
#X msg 790 -866 \; bfc \$1;
#X obj 34 -561 r afc;
#X obj 109 -561 r bfc;
#X obj 407 -1074 expr ($f1-$f2)/(log($f4)-log($f3));
#X obj 417 -894 expr (log($f1)-log($f2))/log($f4)-log($f3);
#X obj 23 47 expr~ ((1-$v4)*($v1+0.3*$v2*0.7*$v3)+($v2*$v4));
#X msg 5 -1105 \; fmin 220 \; fmax 880 \; dmin 0.4 \; dmax 6 \; dbmin
60 \; dbmax 85 \; thetamin 1 \; thetamax 90 \; anglediscr 0 \; anglestep
30;
#X connect 1 0 70 1;
#X connect 1 0 77 0;
#X connect 1 0 78 0;
#X connect 3 0 101 1;
#X connect 4 0 8 0;
#X connect 5 0 0 0;
#X connect 5 0 0 1;
#X connect 6 0 5 0;
#X connect 7 0 11 0;
#X connect 7 0 42 2;
#X connect 8 0 5 1;
#X connect 9 0 1 0;
#X connect 12 0 102 0;
#X connect 13 0 102 0;
#X connect 14 0 42 0;
#X connect 15 0 42 1;
#X connect 16 0 46 0;
#X connect 18 0 9 0;
#X connect 19 0 10 0;
#X connect 19 0 101 3;
#X connect 20 0 7 0;
#X connect 21 0 4 0;
#X connect 24 0 6 1;
#X connect 26 0 28 0;
#X connect 28 0 25 0;
#X connect 30 0 37 1;
#X connect 31 0 36 3;
#X connect 32 0 36 2;
#X connect 33 0 36 1;
#X connect 34 0 36 0;
#X connect 36 0 99 0;
#X connect 36 1 99 1;
#X connect 36 2 99 2;
#X connect 36 3 99 3;
#X connect 37 0 41 0;
#X connect 37 1 41 1;
#X connect 37 2 41 2;
#X connect 38 0 37 2;
#X connect 41 0 40 0;
#X connect 41 0 35 0;
#X connect 42 0 43 0;
#X connect 42 1 43 1;
#X connect 42 2 43 2;
#X connect 43 0 16 0;
#X connect 44 0 46 1;
#X connect 45 0 46 2;
#X connect 46 0 47 0;
#X connect 46 1 47 1;
#X connect 46 2 47 2;
#X connect 47 0 17 0;
#X connect 47 0 92 1;
#X connect 47 0 90 2;
#X connect 49 0 100 0;
#X connect 49 1 100 1;
#X connect 49 2 100 2;
#X connect 49 3 100 3;
#X connect 50 0 49 0;
#X connect 51 0 49 1;
#X connect 52 0 49 2;
#X connect 53 0 49 3;
#X connect 55 0 76 0;
#X connect 55 1 76 1;
#X connect 55 2 76 2;
#X connect 56 0 55 0;
#X connect 57 0 55 1;
#X connect 58 0 55 2;
#X connect 59 0 75 0;
#X connect 59 1 75 1;
#X connect 59 2 75 2;
#X connect 60 0 59 2;
#X connect 61 0 64 0;
#X connect 61 1 64 1;
#X connect 61 2 64 2;
#X connect 62 0 61 1;
#X connect 63 0 61 2;
#X connect 64 0 60 0;
#X connect 65 0 61 0;
#X connect 66 0 69 0;
#X connect 67 0 69 1;
#X connect 68 0 67 0;
#X connect 69 0 101 0;
#X connect 70 0 73 0;
#X connect 70 1 73 1;
#X connect 71 0 70 0;
#X connect 71 0 74 0;
#X connect 73 0 72 0;
#X connect 73 0 101 2;
#X connect 75 0 2 0;
#X connect 75 0 78 1;
#X connect 76 0 96 0;
#X connect 76 0 54 0;
#X connect 77 0 65 0;
#X connect 78 0 82 0;
#X connect 78 1 82 1;
#X connect 78 2 82 2;
#X connect 78 3 82 3;
#X connect 79 0 78 2;
#X connect 80 0 78 3;
#X connect 82 0 81 0;
#X connect 82 0 66 0;
#X connect 82 0 68 0;
#X connect 83 0 37 0;
#X connect 84 0 90 0;
#X connect 85 0 88 0;
#X connect 85 0 24 0;
#X connect 86 0 93 0;
#X connect 87 0 92 0;
#X connect 89 0 90 1;
#X connect 90 0 85 0;
#X connect 90 1 85 1;
#X connect 90 2 85 2;
#X connect 92 0 89 0;
#X connect 92 1 89 1;
#X connect 93 0 94 0;
#X connect 94 0 91 0;
#X connect 94 0 87 0;
#X connect 97 0 59 0;
#X connect 98 0 59 1;
#X connect 99 0 39 0;
#X connect 99 0 29 0;
#X connect 100 0 95 0;
#X connect 100 0 48 0;
#X connect 101 0 6 0;
