#N canvas 0 23 1440 828 12;
#X obj 28 1367 dac~;
#X floatatom 383 369 4 0 0 0 - - -, f 4;
#X floatatom 194 1038 5 0 1 0 - - -, f 5;
#X obj 111 1086 noise~, f 8;
#X floatatom 165 1250 5 0 1 0 - - -, f 5;
#X obj 40 1300 *~;
#X obj 64 1279 expr 1-$f1;
#X obj 344 335 hsl 100 15 0 180 0 0 empty empty empty -2 -8 0 10 -262144
-1 -1 0 1;
#X floatatom 259 1083 5 0 1 0 - - -, f 5;
#X obj 25 -36 loadbang;
#X obj 102 -36 bng 15 250 50 0 empty empty empty 17 7 0 10 -262144
-1 -1;
#X obj 343 296 r pointer_target_angle;
#X obj 194 1003 r pointing_to_the_target;
#X obj 259 1054 r inside_target;
#X obj 189 1222 r mute;
#X text 127 -36 to click if params have changed;
#X text 151 86 100 dB <=> unchanged loudness;
#X obj 149 58 switch~;
#X obj 149 1 inlet;
#X text 212 58 turn patch off/on;
#X floatatom 149 28 5 0 0 0 - - -, f 5;
#X floatatom 479 68 5 0 0 0 - - -, f 5;
#X obj 887 -26 r ad;
#X obj 608 -28 r dmax;
#X obj 554 -28 r dmin;
#X obj 483 -28 r dbmax;
#X obj 431 33 expr ($f1-$f2)/log($f4/$f3);
#X obj 417 -28 r dbmin;
#X floatatom 867 71 5 0 0 0 - - -, f 5;
#X obj 503 1 bondo 4;
#X obj 865 7 bondo 3;
#X obj 814 -25 r dbmin;
#X obj 937 -26 r dmax;
#X msg 431 68 \; ad \$1;
#X msg 816 70 \; bd \$1;
#X obj 816 37 expr $f1-$f2*log($f3);
#X floatatom 488 250 5 0 0 0 - - -, f 5;
#X obj 512 179 bondo 4;
#X msg 439 245 \; af \$1;
#X floatatom 863 238 5 0 0 0 - - -, f 5;
#X obj 861 174 bondo 3;
#X obj 809 138 r fmin;
#X obj 883 137 r af;
#X obj 933 137 r thetamax;
#X msg 813 240 \; bf \$1;
#X floatatom 84 750 5 0 0 0 - - -, f 5;
#X floatatom 115 477 5 0 0 0 - - -, f 5;
#X obj 86 674 bondo 3;
#X obj 56 611 r af;
#X obj 131 611 r bf;
#X floatatom 193 601 5 0 0 0 - - -, f 5;
#X obj 153 515 bondo 3;
#X obj 167 477 r anglediscr;
#X obj 272 475 r anglestep;
#X obj 27 547 expr if($f2<1 \, $f1 \, $f3*(floor(abs($f1-0.1)/$f3)))
;
#X obj 41 996 osc~;
#X obj 112 1008 osc~;
#X obj 95 978 expr $f1*1;
#X obj 40 1042 expr~ ($v1+$v2);
#X floatatom 541 620 5 0 1 0 - - -, f 5;
#X obj 454 644 bondo 2;
#X obj 540 585 r target_behind;
#X floatatom 449 770 5 0 1 0 - - -, f 5;
#X obj 812 205 expr log($f1)-$f2*log($f3);
#X obj 742 859 r db;
#X obj 39 1225 *~;
#X floatatom 775 908 5 0 0 0 - - -, f 5;
#X obj 504 140 r fmin;
#X obj 451 140 r fmax;
#X obj 648 134 r thetamax;
#X obj 571 135 r thetamin;
#X obj 405 1177 dbtorms~;
#X obj 457 1022 r between_O_P;
#X obj 489 1133 expr if($f1 == 1 \, $f2 \, $f3);
#X obj 561 875 r between_O_P;
#X obj 583 971 tgl 18 0 empty empty empty 17 7 0 10 -262144 -1 -1 0
1;
#X floatatom 500 1162 5 0 0 0 - - -, f 5;
#X obj 557 1022 expr $f1*$f2;
#X obj 576 1092 bondo 3;
#X floatatom 538 969 5 0 0 0 - - -, f 5;
#X obj 574 996 bondo 2;
#X obj 580 916 edge, f 5;
#X obj 581 940 metro 75;
#X obj 439 210 expr (log($f1)-log($f2))/(log($f3)-log($f4));
#X obj 37 711 expr exp($f1*log($f3)+$f2);
#X floatatom 100 930 5 0 0 0 - - -, f 5;
#X obj 130 831 bondo 3;
#X obj 227 790 r fmax;
#X obj 159 791 r fmin;
#X obj 41 887 expr if($f1<$f2 \, $f2 \, if($f1>$f3 \, $f3 \, $f1))
;
#X obj 1117 622 soundfiler;
#X floatatom 1118 659 5 0 0 0 - - -, f 5;
#X obj 1132 809 line~;
#X obj 1135 848 tabread~ victory_array;
#X obj 1139 904 dac~;
#N canvas 992 312 450 300 (subpatch) 0;
#X array victory_array 23294 float 2 black black;
#X coords 0 1 23294 -1 200 140 1;
#X restore 1233 638 graph;
#X floatatom 1028 739 5 0 0 0 - - -, f 5;
#X obj 1072 692 edge, f 5;
#X obj 1027 641 r victory;
#X obj 1516 565 soundfiler;
#X floatatom 1542 600 5 0 0 0 - - -, f 5;
#X obj 1558 756 line~;
#X obj 1565 852 dac~;
#X floatatom 1460 667 5 0 0 0 - - -, f 5;
#X obj 1498 641 edge, f 5;
#X obj 1453 599 r defeat;
#X obj 1561 796 tabread~ defeat_array;
#X msg 1423 499 read -resize -maxsize 1e+10 ../../data/sound/fail/defeat.wav
defeat_array;
#N canvas 645 275 450 300 (subpatch) 0;
#X array defeat_array 85655 float 2 black black;
#X coords 0 1 85655 -1 200 140 1;
#X restore 1614 546 graph;
#X msg 1080 574 read -resize -maxsize 1e+10 ../../data/sound/victory/victory.wav
victory_array;
#X obj 1331 368 line~;
#X obj 1338 464 dac~;
#N canvas 658 288 450 300 (subpatch) 0;
#X array start_array 7084 float 2 black black;
#X coords 0 1 7084 -1 200 140 1;
#X restore 1450 244 graph;
#X obj 1335 408 tabread~ start_array;
#X obj 1078 536 loadbang;
#X obj 1420 465 loadbang;
#X msg 1549 704 0 \, 85655 1942;
#X obj 1335 230 soundfiler;
#X floatatom 1337 265 5 0 0 0 - - -, f 5;
#X floatatom 1190 303 5 0 0 0 - - -, f 5;
#X obj 1250 273 edge, f 5;
#X obj 1184 211 r start;
#X msg 1336 169 read -resize -maxsize 1e+10 ../../data/sound/start/start.wav
start_array;
#X obj 1336 135 loadbang;
#X msg 1321 327 0 \, 7084 221;
#X obj 41 1131 expr~ ((1-$v4)*(0.5*$v1+0.2*$v2*$v3)+0.6*$v2*$v4)*$f5
;
#X msg 1124 755 0 \, 23294 971;
#X obj 382 692 expr if($f1<90&&$f2==0 \, 1 \, 0);
#X msg 24 4 \; fmin 110 \; fmax 440 \; fcst 220 \; dmin 0.4 \; dmax
6 \; dbmin 50 \; dbmax 80 \; thetamin 5 \; thetamax 90 \; anglediscr
0 \; anglestep 15 \; db 80;
#X connect 1 0 60 0;
#X connect 2 0 125 2;
#X connect 3 0 125 1;
#X connect 4 0 6 0;
#X connect 5 0 0 0;
#X connect 5 0 0 1;
#X connect 6 0 5 1;
#X connect 7 0 1 0;
#X connect 7 0 46 0;
#X connect 8 0 125 3;
#X connect 9 0 128 0;
#X connect 10 0 128 0;
#X connect 11 0 7 0;
#X connect 12 0 2 0;
#X connect 13 0 8 0;
#X connect 14 0 4 0;
#X connect 18 0 20 0;
#X connect 20 0 17 0;
#X connect 22 0 30 1;
#X connect 23 0 29 3;
#X connect 24 0 29 2;
#X connect 25 0 29 1;
#X connect 26 0 33 0;
#X connect 26 0 21 0;
#X connect 27 0 29 0;
#X connect 29 0 26 0;
#X connect 29 1 26 1;
#X connect 29 2 26 2;
#X connect 29 3 26 3;
#X connect 30 0 35 0;
#X connect 30 1 35 1;
#X connect 30 2 35 2;
#X connect 31 0 30 0;
#X connect 32 0 30 2;
#X connect 35 0 34 0;
#X connect 35 0 28 0;
#X connect 37 0 83 0;
#X connect 37 1 83 1;
#X connect 37 2 83 2;
#X connect 37 3 83 3;
#X connect 40 0 63 0;
#X connect 40 1 63 1;
#X connect 40 2 63 2;
#X connect 41 0 40 0;
#X connect 42 0 40 1;
#X connect 43 0 40 2;
#X connect 46 0 51 0;
#X connect 47 0 84 0;
#X connect 47 1 84 1;
#X connect 47 2 84 2;
#X connect 48 0 47 0;
#X connect 49 0 47 1;
#X connect 50 0 47 2;
#X connect 51 0 54 0;
#X connect 51 1 54 1;
#X connect 51 2 54 2;
#X connect 52 0 51 1;
#X connect 53 0 51 2;
#X connect 54 0 50 0;
#X connect 55 0 58 0;
#X connect 56 0 58 1;
#X connect 57 0 56 0;
#X connect 58 0 125 0;
#X connect 59 0 60 1;
#X connect 60 0 127 0;
#X connect 60 1 127 1;
#X connect 61 0 59 0;
#X connect 63 0 44 0;
#X connect 63 0 39 0;
#X connect 64 0 66 0;
#X connect 64 0 80 1;
#X connect 64 0 78 2;
#X connect 65 0 5 0;
#X connect 67 0 37 1;
#X connect 68 0 37 0;
#X connect 69 0 37 3;
#X connect 70 0 37 2;
#X connect 71 0 65 1;
#X connect 72 0 78 0;
#X connect 73 0 76 0;
#X connect 73 0 71 0;
#X connect 74 0 81 0;
#X connect 75 0 80 0;
#X connect 77 0 78 1;
#X connect 78 0 73 0;
#X connect 78 1 73 1;
#X connect 78 2 73 2;
#X connect 80 0 77 0;
#X connect 80 1 77 1;
#X connect 81 0 82 0;
#X connect 82 0 79 0;
#X connect 82 0 75 0;
#X connect 83 0 38 0;
#X connect 83 0 36 0;
#X connect 84 0 45 0;
#X connect 84 0 86 0;
#X connect 86 0 89 0;
#X connect 86 1 89 1;
#X connect 86 2 89 2;
#X connect 87 0 86 2;
#X connect 88 0 86 1;
#X connect 89 0 85 0;
#X connect 89 0 55 0;
#X connect 89 0 57 0;
#X connect 90 0 91 0;
#X connect 92 0 93 0;
#X connect 93 0 94 0;
#X connect 93 0 94 1;
#X connect 97 0 126 0;
#X connect 98 0 96 0;
#X connect 98 0 97 0;
#X connect 99 0 100 0;
#X connect 101 0 106 0;
#X connect 104 0 116 0;
#X connect 105 0 103 0;
#X connect 105 0 104 0;
#X connect 106 0 102 0;
#X connect 106 0 102 1;
#X connect 107 0 99 0;
#X connect 109 0 90 0;
#X connect 110 0 113 0;
#X connect 113 0 111 0;
#X connect 113 0 111 1;
#X connect 114 0 109 0;
#X connect 115 0 107 0;
#X connect 116 0 101 0;
#X connect 117 0 118 0;
#X connect 120 0 124 0;
#X connect 121 0 119 0;
#X connect 121 0 120 0;
#X connect 122 0 117 0;
#X connect 123 0 122 0;
#X connect 124 0 110 0;
#X connect 125 0 65 0;
#X connect 126 0 92 0;
#X connect 127 0 62 0;
#X connect 127 0 125 4;
