#N canvas 1421 258 1134 1009 16;
#X obj 208 389 osc~ 220;
#X obj 300 490 *~;
#X obj 284 584 dac~;
#X msg 458 80 0;
#X msg 513 130 -3;
#X floatatom 513 299 5 0 0 0 - - -, f 5;
#X obj 399 233 dbtorms;
#X obj 406 181 + 100;
#X floatatom 581 232 5 0 0 0 - - -, f 5;
#X msg 583 163 -6;
#X obj 396 382 line~;
#X msg 403 321 \$1 1;
#X connect 0 0 1 0;
#X connect 1 0 2 0;
#X connect 1 0 2 1;
#X connect 3 0 7 0;
#X connect 4 0 7 0;
#X connect 6 0 5 0;
#X connect 6 0 11 0;
#X connect 7 0 8 0;
#X connect 7 0 6 0;
#X connect 9 0 7 0;
#X connect 10 0 1 1;
#X connect 11 0 10 0;
