#N canvas 61 30 1859 1025 10;
#X obj -80 1973 dac~;
#X floatatom 344 986 4 0 0 0 - - -, f 4;
#X floatatom 86 1644 5 0 1 0 - - -, f 5;
#X obj 3 1692 noise~, f 8;
#X floatatom 57 1855 5 0 1 0 - - -, f 5;
#X obj -68 1906 *~;
#X obj -44 1885 expr 1-$f1;
#X obj 236 941 hsl 100 15 0 180 0 0 empty empty empty -2 -8 0 10 -262144
-1 -1 9900 1;
#X floatatom 151 1689 5 0 1 0 - - -, f 5;
#X obj -83 567 loadbang;
#X obj -7 567 bng 15 250 50 0 empty empty empty 17 7 0 10 -262144 -1
-1;
#X obj 235 902 r pointer_target_angle;
#X obj 86 1609 r pointing_to_the_target;
#X obj 151 1660 r inside_target;
#X obj 81 1828 r mute;
#X text 19 567 to click if params have changed;
#X text 42 692 100 dB <=> unchanged loudness;
#X obj 41 664 switch~;
#X obj 41 607 inlet;
#X text 104 664 turn patch off/on;
#X floatatom 41 634 5 0 0 0 - - -, f 5;
#X floatatom 372 674 5 0 0 0 - - -, f 5;
#X obj 779 578 r ad;
#X obj 500 576 r dmax;
#X obj 446 576 r dmin;
#X obj 375 576 r dbmax;
#X obj 323 639 expr ($f1-$f2)/log($f4/$f3);
#X obj 309 576 r dbmin;
#X floatatom 759 677 5 0 0 0 - - -, f 5;
#X obj 395 607 bondo 4;
#X obj 757 613 bondo 3;
#X obj 706 579 r dbmin;
#X obj 829 578 r dmax;
#X msg 323 674 \; ad \$1;
#X msg 708 676 \; bd \$1;
#X obj 708 643 expr $f1-$f2*log($f3);
#X floatatom 380 856 5 0 0 0 - - -, f 5;
#X obj 404 784 bondo 4;
#X msg 331 851 \; af \$1;
#X floatatom 755 844 5 0 0 0 - - -, f 5;
#X obj 753 780 bondo 3;
#X obj 701 744 r fmin;
#X obj 775 743 r af;
#X obj 825 743 r thetamax;
#X msg 705 846 \; bf \$1;
#X floatatom -24 1356 5 0 0 0 - - -, f 5;
#X obj -22 1280 bondo 3;
#X obj -52 1217 r af;
#X obj 23 1217 r bf;
#X floatatom 84 1207 5 0 0 0 - - -, f 5;
#X obj -67 1602 osc~;
#X obj 4 1614 osc~;
#X obj -13 1584 expr $f1*1;
#X obj -68 1648 expr~ ($v1+$v2);
#X floatatom 383 1206 5 0 1 0 - - -, f 5;
#X obj 346 1250 bondo 2;
#X obj 382 1172 r target_behind;
#X obj 274 1298 expr if($f1<90&&$f2==0 \, 1 \, 0);
#X floatatom 341 1376 5 0 1 0 - - -, f 5;
#X obj 704 811 expr log($f1)-$f2*log($f3);
#X obj -67 1737 expr~ ((1-$v4)*(0.5*$v1+0.2*$v2*$v3)+0.6*$v2*$v4)*$f5
;
#X obj 499 1489 r db, f 5;
#X obj -69 1831 *~;
#X floatatom 515 1534 5 0 0 0 - - -, f 5;
#X obj 396 746 r fmin;
#X obj 344 746 r fmax;
#X obj 540 740 r thetamax;
#X obj 462 741 r thetamin;
#X obj 224 1785 dbtorms~;
#X obj 282 1579 r between_O_P;
#X obj 314 1690 expr if($f1 == 1 \, $f2 \, $f3);
#X obj 386 1432 r between_O_P;
#X obj 408 1528 tgl 18 0 empty empty empty 17 7 0 10 -262144 -1 -1
0 1;
#X floatatom 341 1712 5 0 0 0 - - -, f 5;
#X obj 382 1579 expr $f1*$f2;
#X obj 401 1649 bondo 3;
#X floatatom 363 1527 5 0 0 0 - - -, f 5;
#X obj 399 1553 bondo 2;
#X obj 405 1473 edge, f 5;
#X obj 406 1497 metro 75;
#X obj 331 816 expr (log($f1)-log($f2))/(log($f3)-log($f4));
#X obj -71 1316 expr exp($f1*log($f3)+$f2);
#X floatatom -8 1536 5 0 0 0 - - -, f 5;
#X obj 21 1437 bondo 3;
#X obj 120 1396 r fmax;
#X obj 51 1397 r fmin;
#X obj -67 1493 expr if($f1<$f2 \, $f2 \, if($f1>$f3 \, $f3 \, $f1))
;
#X obj 753 1170 bondo 6;
#X floatatom 691 1306 5 0 0 0 - - -, f 5;
#X obj 650 1566 metro 250;
#X obj 649 1597 tgl 18 0 empty empty empty 17 7 0 10 -262144 -1 -1
1 1;
#X obj 648 1521 edge, f 5;
#X obj 693 1468 expr if($f1 == 90 \, $f2 \, if($f1 == 45 \, $f3 \,
if($f1 == 22.5 \, $f4 \, if($f1 == 11.25 \, $f5 \, $f6))));
#X obj 735 1410 bondo 6;
#X obj 748 1286 r r1;
#X obj 763 1307 r r2;
#X obj 778 1328 r r3;
#X obj 790 1349 r r4;
#X obj 804 1372 r r5;
#X floatatom 739 1512 5 0 0 0 - - -, f 5;
#X obj 707 1593 r db, f 5;
#X floatatom 720 1633 5 0 0 0 - - -, f 5;
#X obj 645 1668 expr $f1*$f2;
#X obj 662 1642 bondo 2;
#X floatatom 667 1710 5 0 0 0 - - -, f 5;
#X obj 733 1234 expr if($f1<$f2&&$f1>$f3 \, $f2 \, if($f1<$f3&&$f1>$f4
\, $f3 \, if($f1<$f4&&$f1>$f5 \, $f4 \, if($f1<$f5&&$f1>$f6 \, $f5
\, $f6))));
#X obj -8 1090 bondo 6;
#X obj -28 1154 expr if($f1<$f2&&$f1>$f3 \, $f2 \, if($f1<$f3&&$f1>$f4
\, $f3 \, if($f1<$f4&&$f1>$f5 \, $f4 \, if($f1<$f5&&$f1>$f6 \, $f5
\, $f6))));
#X msg -84 609 \; fmin 110 \; fmax 440 \; fcst 220 \; dmin 0.4 \; dmax
6 \; dbmin 50 \; dbmax 80 \; thetamin 5 \; thetamax 90 \; anglediscr
1 \; anglestep 15 \; db 80 \; a1 90 \; a2 45 \; a3 22.5 \; a4 11.25
\; a5 5.625 \; r1 500 \; r2 400 \; r3 300 \; r4 150 \; r5 75;
#X obj 5 929 r a1;
#X obj 18 954 r a2;
#X obj 33 978 r a3;
#X obj 61 1055 r a5;
#X obj 49 1001 r a4;
#X obj 757 965 r a1;
#X obj 775 990 r a2;
#X obj 790 1014 r a3;
#X obj 806 1037 r a4;
#X obj 820 1066 r a5;
#X connect 1 0 55 0;
#X connect 1 0 87 0;
#X connect 2 0 60 2;
#X connect 3 0 60 1;
#X connect 4 0 6 0;
#X connect 5 0 0 0;
#X connect 5 0 0 1;
#X connect 6 0 5 1;
#X connect 7 0 1 0;
#X connect 7 0 106 0;
#X connect 8 0 60 3;
#X connect 9 0 108 0;
#X connect 10 0 108 0;
#X connect 11 0 7 0;
#X connect 12 0 2 0;
#X connect 13 0 8 0;
#X connect 14 0 4 0;
#X connect 18 0 20 0;
#X connect 20 0 17 0;
#X connect 22 0 30 1;
#X connect 23 0 29 3;
#X connect 24 0 29 2;
#X connect 25 0 29 1;
#X connect 26 0 33 0;
#X connect 26 0 21 0;
#X connect 27 0 29 0;
#X connect 29 0 26 0;
#X connect 29 1 26 1;
#X connect 29 2 26 2;
#X connect 29 3 26 3;
#X connect 30 0 35 0;
#X connect 30 1 35 1;
#X connect 30 2 35 2;
#X connect 31 0 30 0;
#X connect 32 0 30 2;
#X connect 35 0 34 0;
#X connect 35 0 28 0;
#X connect 37 0 80 0;
#X connect 37 1 80 1;
#X connect 37 2 80 2;
#X connect 37 3 80 3;
#X connect 40 0 59 0;
#X connect 40 1 59 1;
#X connect 40 2 59 2;
#X connect 41 0 40 0;
#X connect 42 0 40 1;
#X connect 43 0 40 2;
#X connect 46 0 81 0;
#X connect 46 1 81 1;
#X connect 46 2 81 2;
#X connect 47 0 46 0;
#X connect 48 0 46 1;
#X connect 49 0 46 2;
#X connect 50 0 53 0;
#X connect 51 0 53 1;
#X connect 52 0 51 0;
#X connect 53 0 60 0;
#X connect 54 0 55 1;
#X connect 55 0 57 0;
#X connect 55 1 57 1;
#X connect 56 0 54 0;
#X connect 57 0 58 0;
#X connect 57 0 60 4;
#X connect 59 0 44 0;
#X connect 59 0 39 0;
#X connect 60 0 62 0;
#X connect 61 0 63 0;
#X connect 61 0 77 1;
#X connect 61 0 75 2;
#X connect 62 0 5 0;
#X connect 64 0 37 1;
#X connect 65 0 37 0;
#X connect 66 0 37 3;
#X connect 67 0 37 2;
#X connect 68 0 62 1;
#X connect 69 0 75 0;
#X connect 70 0 73 0;
#X connect 71 0 78 0;
#X connect 72 0 77 0;
#X connect 74 0 75 1;
#X connect 75 0 70 0;
#X connect 75 1 70 1;
#X connect 75 2 70 2;
#X connect 77 0 74 0;
#X connect 77 1 74 1;
#X connect 78 0 79 0;
#X connect 79 0 76 0;
#X connect 79 0 72 0;
#X connect 80 0 38 0;
#X connect 80 0 36 0;
#X connect 81 0 45 0;
#X connect 81 0 83 0;
#X connect 83 0 86 0;
#X connect 83 1 86 1;
#X connect 83 2 86 2;
#X connect 84 0 83 2;
#X connect 85 0 83 1;
#X connect 86 0 82 0;
#X connect 86 0 50 0;
#X connect 86 0 52 0;
#X connect 87 0 105 0;
#X connect 87 1 105 1;
#X connect 87 2 105 2;
#X connect 87 3 105 3;
#X connect 87 4 105 4;
#X connect 87 5 105 5;
#X connect 88 0 91 0;
#X connect 89 0 90 0;
#X connect 90 0 103 0;
#X connect 91 0 89 0;
#X connect 92 0 99 0;
#X connect 92 0 89 1;
#X connect 93 0 92 0;
#X connect 93 1 92 1;
#X connect 93 2 92 2;
#X connect 93 3 92 3;
#X connect 93 4 92 4;
#X connect 93 5 92 5;
#X connect 94 0 93 1;
#X connect 95 0 93 2;
#X connect 96 0 93 3;
#X connect 97 0 93 4;
#X connect 98 0 93 5;
#X connect 100 0 101 0;
#X connect 100 0 103 1;
#X connect 102 0 104 0;
#X connect 102 0 68 0;
#X connect 103 0 102 0;
#X connect 103 1 102 1;
#X connect 105 0 93 0;
#X connect 105 0 88 0;
#X connect 106 0 107 0;
#X connect 106 1 107 1;
#X connect 106 2 107 2;
#X connect 106 3 107 3;
#X connect 106 4 107 4;
#X connect 106 5 107 5;
#X connect 107 0 49 0;
#X connect 109 0 106 1;
#X connect 110 0 106 2;
#X connect 111 0 106 3;
#X connect 112 0 106 5;
#X connect 113 0 106 4;
#X connect 114 0 87 1;
#X connect 115 0 87 2;
#X connect 116 0 87 3;
#X connect 117 0 87 4;
#X connect 118 0 87 5;
