#N canvas 518 301 583 655 10;
#N canvas 948 124 407 421 binaire 0;
#X obj 170 5 inlet;
#X floatatom 171 94 5 0 1 0 - - -, f 5;
#X obj 278 300 *~;
#X obj 115 310 *~;
#X obj 196 386 outlet~;
#X obj 32 245 osc~ 110;
#X obj 172 237 osc~ 220;
#X obj 171 134 expr $f1 / 20;
#X obj 101 205 expr 0.05 - $f1;
#X obj 171 47 expr $f1 == 127;
#X connect 0 0 9 0;
#X connect 1 0 7 0;
#X connect 2 0 4 0;
#X connect 3 0 4 0;
#X connect 5 0 3 0;
#X connect 6 0 2 0;
#X connect 7 0 2 1;
#X connect 7 0 8 0;
#X connect 8 0 3 1;
#X connect 9 0 1 0;
#X restore 261 217 pd binaire;
#X obj 189 374 dac~;
#N canvas 2511 351 680 581 angle 1;
#X obj 323 -84 expr $f1 / 12.7;
#X floatatom 323 -41 5 0 10 0 - - -, f 5;
#X obj 390 1 expr $f1 == 10;
#X floatatom 405 39 5 0 1 0 - - -, f 5;
#X obj 259 305 *~;
#X obj 361 312 *~;
#X obj 323 -124 inlet;
#X obj 295 418 outlet~;
#X floatatom 371 106 5 0 0 0 - - -, f 5;
#X floatatom 272 69 5 0 0 0 - - -, f 5;
#X floatatom 247 226 6 0 0 0 - - -, f 6;
#X obj 308 154 -;
#X obj 279 189 expr abs($f1);
#X obj 319 332 +~;
#X obj 149 219 osc~ 110;
#X obj 311 238 osc~ 220;
#X obj 493 216 inlet;
#X obj 455 332 *~;
#X obj 360 380 *~;
#X obj 487 259 expr 0.25 - ($f1 / 24);
#X floatatom 527 374 5 0 0 0 - - -, f 5;
#X obj 197 22 expr $f1 / 40;
#X obj 387 72 expr $f1 / 4;
#X connect 0 0 1 0;
#X connect 1 0 2 0;
#X connect 1 0 21 0;
#X connect 2 0 3 0;
#X connect 3 0 22 0;
#X connect 4 0 13 0;
#X connect 4 0 18 0;
#X connect 4 0 7 0;
#X connect 5 0 13 1;
#X connect 5 0 7 0;
#X connect 6 0 0 0;
#X connect 8 0 11 0;
#X connect 8 0 5 1;
#X connect 9 0 11 1;
#X connect 10 0 4 1;
#X connect 11 0 12 0;
#X connect 12 0 10 0;
#X connect 14 0 4 0;
#X connect 15 0 5 0;
#X connect 15 0 17 0;
#X connect 16 0 19 0;
#X connect 19 0 17 1;
#X connect 19 0 18 1;
#X connect 19 0 20 0;
#X connect 21 0 9 0;
#X connect 22 0 8 0;
#X restore 111 215 pd angle;
#N canvas 2556 14 348 219 silence 0;
#X obj 130 169 outlet~;
#X obj 127 74 osc~ 0;
#X connect 1 0 0 0;
#X restore 182 216 pd silence;
#N canvas 1434 94 336 392 init 0;
#X obj 145 31 inlet;
#X obj 194 320 outlet~;
#X floatatom 150 128 5 0 1 0 - - -, f 5;
#X obj 55 161 osc~ 220;
#X obj 122 214 *~;
#X obj 150 81 expr $f1 == 127;
#X obj 142 161 expr $f1 / 4;
#X connect 0 0 5 0;
#X connect 2 0 6 0;
#X connect 3 0 4 0;
#X connect 4 0 1 0;
#X connect 5 0 2 0;
#X connect 6 0 4 1;
#X restore 348 217 pd init;
#X floatatom 366 142 5 0 0 0 - - -, f 5;
#X obj 205 23 ctlin 87;
#N canvas 2980 345 624 368 panoramic 0;
#X obj 96 100 *~;
#X obj 39 56 osc~ 220;
#X obj 481 2 inlet;
#X obj 205 328 outlet~;
#X floatatom 123 59 5 0 0 0 - - -, f 5;
#X obj 136 96 inlet;
#X floatatom 138 122 5 0 0 0 - - -, f 5;
#X obj 105 190 *~;
#X obj 118 149 expr 10 / $f1;
#X obj 517 44 expr $f1 != 0;
#X floatatom 435 71 5 0 0 0 - - -, f 5;
#X floatatom 517 72 5 0 0 0 - - -, f 5;
#X obj 181 276 earplug~;
#X obj 275 2 inlet;
#X obj 314 44 expr $f1 != 0;
#X floatatom 232 71 5 0 0 0 - - -, f 5;
#X floatatom 314 72 5 0 0 0 - - -, f 5;
#X obj 272 127 *;
#X obj 480 138 *;
#X floatatom 226 227 5 0 0 0 - - -, f 5;
#X floatatom 352 232 5 0 0 0 - - -, f 5;
#X connect 0 0 7 0;
#X connect 1 0 0 0;
#X connect 2 0 9 0;
#X connect 2 0 10 0;
#X connect 4 0 0 1;
#X connect 5 0 6 0;
#X connect 6 0 8 0;
#X connect 7 0 12 0;
#X connect 8 0 7 1;
#X connect 9 0 11 0;
#X connect 10 0 18 1;
#X connect 11 0 18 0;
#X connect 12 0 3 0;
#X connect 12 1 3 0;
#X connect 13 0 14 0;
#X connect 13 0 15 0;
#X connect 14 0 16 0;
#X connect 15 0 17 1;
#X connect 16 0 17 0;
#X connect 17 0 19 0;
#X connect 18 0 20 0;
#X connect 19 0 12 1;
#X connect 20 0 12 2;
#X restore 463 186 pd panoramic;
#X obj 365 81 ctlin 97;
#X obj 467 67 ctlin 88;
#X obj 325 390 *~;
#X obj 371 318 hsl 128 15 60 74 0 0 empty empty empty -2 -8 0 10 -262144
-1 -1 0 1;
#X floatatom 398 384 5 0 0 0 - - -, f 5;
#X obj 276 456 vu 15 120 empty empty -1 -8 0 10 -66577 -1 1 0;
#X obj 276 427 pvu~;
#X obj 297 352 noise~;
#X floatatom 255 601 5 0 0 0 - - -, f 5;
#X floatatom 306 600 5 0 0 0 - - -, f 5;
#X floatatom 388 494 5 0 0 0 - - -, f 5;
#X obj 380 447 dbtorms;
#X obj 198 302 mux~ . . . . .;
#N canvas 584 53 593 693 pitch 0;
#X obj 406 662 outlet~;
#X obj 271 327 osc~;
#X obj 464 468 *~;
#X floatatom 473 259 5 0 1 0 - - -, f 5;
#X obj 300 454 *~;
#X obj 395 521 +~;
#X floatatom 342 393 5 0 0 0 - - -, f 5;
#X obj 411 416 noise~;
#X floatatom 518 351 5 0 0 0 - - -, f 5;
#X obj 569 398 inlet;
#X floatatom 505 500 5 0 0 0 - - -, f 5;
#X obj 580 497 expr $f1 < 0.01;
#X floatatom 591 563 5 0 0 0 - - -, f 5;
#X obj 498 619 *~;
#X obj 555 455 expr $f1 / 508;
#X obj 474 218 expr $f1 == 16383;
#X obj 306 5 midiin;
#X obj 306 32 xbendin;
#X obj 105 222 expr ((($f2-$f3)*$f1)/16383)+$f3;
#X obj 357 358 expr 0.05 - $f1;
#X obj 472 301 expr $f1 / 40;
#X floatatom 105 252 8 0 0 0 - - -, f 8;
#X obj 199 154 hsl 128 15 221 660 0 0 empty empty empty -2 -8 0 10
-262144 -1 -1 0 1;
#X obj 292 183 hsl 128 15 0 220 0 0 empty empty empty -2 -8 0 10 -262144
-1 -1 0 1;
#X floatatom 223 183 8 0 0 0 - - -, f 8;
#X floatatom 316 207 8 0 0 0 - - -, f 8;
#X floatatom 290 100 7 0 0 0 - - -, f 7;
#X text 236 131 Fmax Value;
#X text 372 209 Fmin Value;
#X obj 135 445 hsl 128 15 110 660 0 0 empty empty empty -2 -8 0 10
-262144 -1 -1 0 1;
#X obj 222 545 osc~;
#X floatatom 127 519 8 0 0 0 - - -, f 8;
#X obj 441 571 *~;
#X connect 1 0 4 0;
#X connect 2 0 5 1;
#X connect 3 0 20 0;
#X connect 4 0 5 0;
#X connect 5 0 32 0;
#X connect 6 0 4 1;
#X connect 7 0 2 0;
#X connect 9 0 14 0;
#X connect 10 0 13 1;
#X connect 10 0 32 1;
#X connect 11 0 12 0;
#X connect 14 0 10 0;
#X connect 14 0 11 0;
#X connect 15 0 3 0;
#X connect 16 0 17 0;
#X connect 17 0 18 0;
#X connect 17 0 26 0;
#X connect 17 0 15 0;
#X connect 18 0 21 0;
#X connect 19 0 6 0;
#X connect 20 0 8 0;
#X connect 20 0 2 1;
#X connect 20 0 19 0;
#X connect 21 0 1 0;
#X connect 22 0 18 1;
#X connect 22 0 24 0;
#X connect 23 0 18 2;
#X connect 23 0 25 0;
#X connect 29 0 30 0;
#X connect 29 0 31 0;
#X connect 30 0 13 0;
#X connect 32 0 0 0;
#X restore 417 217 pd pitch;
#X obj 29 233 ctlin 89;
#X floatatom 69 308 5 0 0 0 - - -, f 5;
#X connect 0 0 20 2;
#X connect 2 0 20 0;
#X connect 3 0 20 1;
#X connect 4 0 20 3;
#X connect 5 0 7 0;
#X connect 5 0 2 1;
#X connect 5 0 21 0;
#X connect 6 0 2 0;
#X connect 6 0 0 0;
#X connect 6 0 4 0;
#X connect 6 0 7 1;
#X connect 8 0 5 0;
#X connect 9 0 7 2;
#X connect 11 0 12 0;
#X connect 11 0 10 1;
#X connect 11 0 19 0;
#X connect 13 0 16 0;
#X connect 13 1 17 0;
#X connect 14 0 13 0;
#X connect 15 0 10 0;
#X connect 19 0 18 0;
#X connect 20 0 1 0;
#X connect 20 0 1 1;
#X connect 21 0 20 4;
#X connect 22 0 20 0;
#X connect 22 0 23 0;
