#N canvas 261 188 583 655 10;
#N canvas 970 292 479 469 binaire 1;
#X obj 102 27 inlet;
#X floatatom 102 107 5 0 1 0 - - -, f 5;
#X obj 151 355 outlet~;
#X obj 102 60 expr $f1 == 127;
#X obj 106 227 osc~;
#X obj 228 162 inlet;
#X floatatom 235 208 5 0 0 0 - - -, f 5;
#X obj 150 284 *~;
#X floatatom 209 264 5 0 0 0 - - -, f 5;
#X floatatom 138 194 5 0 0 0 - - -, f 5;
#X obj 102 147 expr $f1*280+380;
#X obj 194 230 expr (((0.075-0.001)*$f1)/127)+0.001;
#X connect 0 0 3 0;
#X connect 1 0 10 0;
#X connect 3 0 1 0;
#X connect 4 0 7 0;
#X connect 5 0 6 0;
#X connect 5 0 11 0;
#X connect 7 0 2 0;
#X connect 10 0 4 0;
#X connect 10 0 9 0;
#X connect 11 0 7 1;
#X connect 11 0 8 0;
#X restore 261 217 pd binaire;
#X obj 189 374 dac~;
#N canvas 2556 14 348 219 silence 0;
#X obj 130 169 outlet~;
#X obj 127 74 osc~ 0;
#X connect 1 0 0 0;
#X restore 182 216 pd silence;
#N canvas 1414 74 336 392 init 0;
#X obj 145 31 inlet;
#X obj 194 320 outlet~;
#X floatatom 150 128 5 0 1 0 - - -, f 5;
#X obj 55 161 osc~ 220;
#X obj 122 214 *~;
#X obj 150 81 expr $f1 == 127;
#X obj 142 161 expr $f1 / 4;
#X connect 0 0 5 0;
#X connect 2 0 6 0;
#X connect 3 0 4 0;
#X connect 4 0 1 0;
#X connect 5 0 2 0;
#X connect 6 0 4 1;
#X restore 348 217 pd init;
#X floatatom 366 142 5 0 0 0 - - -, f 5;
#X obj 205 23 ctlin 87;
#N canvas 3000 365 624 368 panoramic 0;
#X obj 96 100 *~;
#X obj 39 56 osc~ 220;
#X obj 481 2 inlet;
#X obj 205 328 outlet~;
#X floatatom 123 59 5 0 0 0 - - -, f 5;
#X obj 136 96 inlet;
#X floatatom 138 122 5 0 0 0 - - -, f 5;
#X obj 105 190 *~;
#X obj 118 149 expr 10 / $f1;
#X obj 517 44 expr $f1 != 0;
#X floatatom 435 71 5 0 0 0 - - -, f 5;
#X floatatom 517 72 5 0 0 0 - - -, f 5;
#X obj 181 276 earplug~;
#X obj 275 2 inlet;
#X obj 314 44 expr $f1 != 0;
#X floatatom 232 71 5 0 0 0 - - -, f 5;
#X floatatom 314 72 5 0 0 0 - - -, f 5;
#X obj 272 127 *;
#X obj 480 138 *;
#X floatatom 226 227 5 0 0 0 - - -, f 5;
#X floatatom 352 232 5 0 0 0 - - -, f 5;
#X connect 0 0 7 0;
#X connect 1 0 0 0;
#X connect 2 0 9 0;
#X connect 2 0 10 0;
#X connect 4 0 0 1;
#X connect 5 0 6 0;
#X connect 6 0 8 0;
#X connect 7 0 12 0;
#X connect 8 0 7 1;
#X connect 9 0 11 0;
#X connect 10 0 18 1;
#X connect 11 0 18 0;
#X connect 12 0 3 0;
#X connect 12 1 3 0;
#X connect 13 0 14 0;
#X connect 13 0 15 0;
#X connect 14 0 16 0;
#X connect 15 0 17 1;
#X connect 16 0 17 0;
#X connect 17 0 19 0;
#X connect 18 0 20 0;
#X connect 19 0 12 1;
#X connect 20 0 12 2;
#X restore 463 186 pd panoramic;
#X obj 365 81 ctlin 97;
#X obj 467 67 ctlin 88;
#X obj 325 390 *~;
#X obj 371 318 hsl 128 15 45 77.5 0 0 empty empty empty -2 -8 0 10
-262144 -1 -1 0 1;
#X floatatom 398 384 5 0 0 0 - - -, f 5;
#X obj 276 456 vu 15 120 empty empty -1 -8 0 10 -66577 -1 1 0;
#X obj 276 427 pvu~;
#X obj 297 352 noise~;
#X floatatom 255 601 5 0 0 0 - - -, f 5;
#X floatatom 306 600 5 0 0 0 - - -, f 5;
#X floatatom 388 494 5 0 0 0 - - -, f 5;
#X obj 380 447 dbtorms;
#X obj 198 302 mux~ . . . . .;
#N canvas 55 14 928 1003 pitch 1;
#X obj 250 492 outlet~;
#X obj 204 327 osc~, f 5;
#X obj 341 278 inlet;
#X floatatom 319 418 5 0 0 0 - - -, f 5;
#X obj 374 419 expr $f1 < 0.01;
#X floatatom 375 461 5 0 0 0 - - -, f 5;
#X obj 306 5 midiin;
#X obj 306 32 xbendin;
#X obj 105 222 expr ((($f2-$f3)*$f1)/16383)+$f3;
#X floatatom 105 252 8 0 0 0 - - -, f 8;
#X obj 198 150 hsl 128 15 221 660 0 0 empty empty empty -2 -8 0 10
-262144 -1 -1 12700 1;
#X obj 294 185 hsl 128 15 0 220 0 0 empty empty empty -2 -8 0 10 -262144
-1 -1 12700 1;
#X floatatom 223 183 8 0 0 0 - - -, f 8;
#X floatatom 316 207 8 0 0 0 - - -, f 8;
#X floatatom 290 100 7 0 0 0 - - -, f 7;
#X text 236 131 Fmax Value;
#X text 372 209 Fmin Value;
#X obj 250 446 *~;
#X floatatom 397 328 5 0 0 0 - - -, f 5;
#X obj 362 387 expr (((0.075-0.001)*$f1)/127)+0.001;
#X obj 327 356 expr (0.075*$f1)/127;
#X connect 1 0 17 0;
#X connect 2 0 18 0;
#X connect 3 0 17 1;
#X connect 4 0 5 0;
#X connect 6 0 7 0;
#X connect 7 0 8 0;
#X connect 7 0 14 0;
#X connect 8 0 9 0;
#X connect 9 0 1 0;
#X connect 10 0 8 1;
#X connect 10 0 12 0;
#X connect 11 0 8 2;
#X connect 11 0 13 0;
#X connect 17 0 0 0;
#X connect 18 0 20 0;
#X connect 20 0 3 0;
#X restore 417 217 pd pitch;
#X obj 29 233 ctlin 89;
#X floatatom 69 308 5 0 0 0 - - -, f 5;
#N canvas 1156 258 408 581 contact 1;
#X obj 162 309 *~;
#X obj 162 339 outlet~;
#X obj 115 238 noise~;
#X floatatom 216 226 5 0 0.05 0 - - -, f 5;
#X connect 0 0 1 0;
#X connect 2 0 0 0;
#X connect 3 0 0 1;
#X restore 105 216 pd contact;
#X connect 0 0 19 2;
#X connect 2 0 19 1;
#X connect 3 0 19 3;
#X connect 4 0 6 0;
#X connect 4 0 20 0;
#X connect 4 0 0 1;
#X connect 5 0 0 0;
#X connect 5 0 3 0;
#X connect 5 0 6 1;
#X connect 7 0 4 0;
#X connect 8 0 6 2;
#X connect 10 0 11 0;
#X connect 10 0 9 1;
#X connect 10 0 18 0;
#X connect 12 0 15 0;
#X connect 12 1 16 0;
#X connect 13 0 12 0;
#X connect 14 0 9 0;
#X connect 18 0 17 0;
#X connect 19 0 1 0;
#X connect 19 0 1 1;
#X connect 20 0 19 4;
#X connect 21 0 19 0;
#X connect 21 0 22 0;
#X connect 23 0 19 0;
