#N canvas 61 30 1859 1025 10;
#X obj 185 1536 dac~;
#X floatatom 505 555 4 0 0 0 - - -, f 4;
#X floatatom 351 1207 5 0 1 0 - - -, f 5;
#X obj 268 1255 noise~, f 8;
#X floatatom 322 1418 5 0 1 0 - - -, f 5;
#X obj 197 1469 *~;
#X obj 221 1448 expr 1-$f1;
#X obj 501 504 hsl 100 15 0 180 0 0 empty empty empty -2 -8 0 10 -262144
-1 -1 9900 1;
#X floatatom 416 1252 5 0 1 0 - - -, f 5;
#X obj 182 130 loadbang;
#X obj 258 130 bng 15 250 50 0 empty empty empty 17 7 0 10 -262144
-1 -1;
#X obj 500 465 r pointer_target_angle;
#X obj 351 1172 r pointing_to_the_target;
#X obj 416 1223 r inside_target;
#X obj 346 1391 r mute;
#X text 284 130 to click if params have changed;
#X text 307 255 100 dB <=> unchanged loudness;
#X obj 306 227 switch~;
#X obj 306 170 inlet;
#X text 369 227 turn patch off/on;
#X floatatom 306 197 5 0 0 0 - - -, f 5;
#X floatatom 637 237 5 0 0 0 - - -, f 5;
#X obj 1044 141 r ad;
#X obj 765 139 r dmax;
#X obj 711 139 r dmin;
#X obj 640 139 r dbmax;
#X obj 588 202 expr ($f1-$f2)/log($f4/$f3);
#X obj 574 139 r dbmin;
#X floatatom 1024 240 5 0 0 0 - - -, f 5;
#X obj 660 170 bondo 4;
#X obj 1022 176 bondo 3;
#X obj 971 142 r dbmin;
#X obj 1094 141 r dmax;
#X msg 588 237 \; ad \$1;
#X msg 973 239 \; bd \$1;
#X obj 973 206 expr $f1-$f2*log($f3);
#X floatatom 645 419 5 0 0 0 - - -, f 5;
#X obj 669 347 bondo 4;
#X msg 596 414 \; af \$1;
#X floatatom 1020 407 5 0 0 0 - - -, f 5;
#X obj 1018 343 bondo 3;
#X obj 966 307 r fmin;
#X obj 1040 306 r af;
#X obj 1090 306 r thetamax;
#X msg 970 409 \; bf \$1;
#X floatatom 272 646 5 0 0 0 - - -, f 5;
#X obj 310 684 bondo 3;
#X obj 324 646 r anglediscr;
#X obj 429 644 r anglestep;
#X obj 184 716 expr if($f2<1 \, $f1 \, $f3*(floor(abs($f1-0.1)/$f3)))
;
#X obj 198 1165 osc~;
#X obj 269 1177 osc~;
#X obj 252 1147 expr $f1*1;
#X obj 197 1211 expr~ ($v1+$v2);
#X floatatom 628 778 5 0 1 0 - - -, f 5;
#X obj 591 810 bondo 2;
#X obj 627 744 r target_behind;
#X obj 580 867 expr if($f1<90&&$f2==0 \, 1 \, 0);
#X floatatom 586 936 5 0 1 0 - - -, f 5;
#X obj 969 374 expr log($f1)-$f2*log($f3);
#X obj 196 1394 *~;
#X obj 661 309 r fmin;
#X obj 609 309 r fmax;
#X obj 805 303 r thetamax;
#X obj 727 304 r thetamin;
#X obj 562 1346 dbtorms~;
#X obj 614 1191 r between_O_P;
#X obj 646 1302 expr if($f1 == 1 \, $f2 \, $f3);
#X obj 718 1044 r between_O_P;
#X obj 740 1140 tgl 18 0 empty empty empty 17 7 0 10 -262144 -1 -1
0 1;
#X floatatom 657 1331 5 0 0 0 - - -, f 5;
#X obj 714 1191 expr $f1*$f2;
#X obj 733 1261 bondo 3;
#X floatatom 695 1139 5 0 0 0 - - -, f 5;
#X obj 731 1165 bondo 2;
#X obj 737 1085 edge, f 5;
#X obj 738 1109 metro 75;
#X obj 596 379 expr (log($f1)-log($f2))/(log($f3)-log($f4));
#X floatatom 1037 739 5 0 0 0 - - -, f 5;
#X floatatom 1091 592 5 0 0 0 - - -, f 5;
#X obj 969 593 r dbmax;
#X obj 1029 592 r dbmin;
#X obj 1134 592 r thetamax;
#X obj 1102 659 bondo 5;
#X obj 1211 600 hsl 200 15 0 10 0 0 empty empty empty -2 -8 0 10 -262144
-1 -1 6323 1;
#X floatatom 1226 625 5 0 0 0 - - -, f 5;
#X obj 1211 570 r distance_to_the_target;
#X obj 985 701 expr ($f1-$f2)*(1-($f3/$f4))*exp(-(10/$f5)*($f3/$f4))+$f2
;
#X floatatom 303 785 5 0 0 0 - - -, f 5;
#X obj 342 790 r thetamax;
#X obj 283 878 bondo 5;
#X obj 362 858 hsl 200 15 0 10 0 0 empty empty empty -2 -8 0 10 -262144
-1 -1 6323 1;
#X floatatom 373 877 5 0 0 0 - - -, f 5;
#X obj 364 828 r distance_to_the_target;
#X obj 190 840 r fmax;
#X obj 250 839 r fmin;
#X floatatom 267 1075 5 0 0 0 - - -, f 5;
#X obj 293 1002 bondo 3;
#X obj 392 961 r fmax;
#X obj 323 962 r fmin;
#X obj 204 1038 expr if($f1<$f2 \, $f2 \, if($f1>$f3 \, $f3 \, $f1))
;
#X obj 867 862 expr if($f3<$f1 \, $f1 \, if($f3>$f2 \, $f2 \, $f3))
;
#X obj 959 785 r dbmax;
#X obj 890 788 r dbmin;
#X obj 994 824 bondo 3;
#X floatatom 934 919 5 0 0 0 - - -, f 5;
#X floatatom 872 1046 5 0 0 0 - - -, f 5;
#X obj 859 1002 r db;
#X msg 182 174 \; fmin 110 \; fmax 440 \; fcst 220 \; dmin 0.4 \; dmax
6 \; dbmin 50 \; dbmax 80 \; thetamin 5 \; thetamax 90 \; anglediscr
0 \; anglestep 15 \; db 80;
#X obj 198 1300 expr~ ((1-$v4)*(0.5*$v1+0*0.2*$v2*0.45*$v3)+0.6*$v2*$v4)*$f5
;
#X obj 183 928 expr ($f1-$f2)*(1-($f3/$f4))*exp(-((0.5/$f5)*($f3/$f4)))+$f2
;
#X connect 1 0 55 0;
#X connect 2 0 109 2;
#X connect 3 0 109 1;
#X connect 4 0 6 0;
#X connect 5 0 0 0;
#X connect 5 0 0 1;
#X connect 6 0 5 1;
#X connect 7 0 1 0;
#X connect 7 0 45 0;
#X connect 8 0 109 3;
#X connect 9 0 108 0;
#X connect 10 0 108 0;
#X connect 11 0 7 0;
#X connect 12 0 2 0;
#X connect 13 0 8 0;
#X connect 14 0 4 0;
#X connect 18 0 20 0;
#X connect 20 0 17 0;
#X connect 22 0 30 1;
#X connect 23 0 29 3;
#X connect 24 0 29 2;
#X connect 25 0 29 1;
#X connect 26 0 33 0;
#X connect 26 0 21 0;
#X connect 27 0 29 0;
#X connect 29 0 26 0;
#X connect 29 1 26 1;
#X connect 29 2 26 2;
#X connect 29 3 26 3;
#X connect 30 0 35 0;
#X connect 30 1 35 1;
#X connect 30 2 35 2;
#X connect 31 0 30 0;
#X connect 32 0 30 2;
#X connect 35 0 34 0;
#X connect 35 0 28 0;
#X connect 37 0 77 0;
#X connect 37 1 77 1;
#X connect 37 2 77 2;
#X connect 37 3 77 3;
#X connect 40 0 59 0;
#X connect 40 1 59 1;
#X connect 40 2 59 2;
#X connect 41 0 40 0;
#X connect 42 0 40 1;
#X connect 43 0 40 2;
#X connect 45 0 46 0;
#X connect 46 0 49 0;
#X connect 46 1 49 1;
#X connect 46 2 49 2;
#X connect 47 0 46 1;
#X connect 48 0 46 2;
#X connect 49 0 88 0;
#X connect 50 0 53 0;
#X connect 51 0 53 1;
#X connect 52 0 51 0;
#X connect 53 0 109 0;
#X connect 54 0 55 1;
#X connect 55 0 57 0;
#X connect 55 1 57 1;
#X connect 56 0 54 0;
#X connect 57 0 58 0;
#X connect 57 0 109 4;
#X connect 59 0 44 0;
#X connect 59 0 39 0;
#X connect 60 0 5 0;
#X connect 61 0 37 1;
#X connect 62 0 37 0;
#X connect 63 0 37 3;
#X connect 64 0 37 2;
#X connect 65 0 60 1;
#X connect 66 0 72 0;
#X connect 67 0 70 0;
#X connect 67 0 65 0;
#X connect 68 0 75 0;
#X connect 69 0 74 0;
#X connect 71 0 72 1;
#X connect 72 0 67 0;
#X connect 72 1 67 1;
#X connect 72 2 67 2;
#X connect 74 0 71 0;
#X connect 74 1 71 1;
#X connect 75 0 76 0;
#X connect 76 0 73 0;
#X connect 76 0 69 0;
#X connect 77 0 38 0;
#X connect 77 0 36 0;
#X connect 79 0 83 2;
#X connect 80 0 83 0;
#X connect 81 0 83 1;
#X connect 82 0 83 3;
#X connect 83 0 87 0;
#X connect 83 1 87 1;
#X connect 83 2 87 2;
#X connect 83 3 87 3;
#X connect 83 4 87 4;
#X connect 84 0 85 0;
#X connect 84 0 83 4;
#X connect 86 0 84 0;
#X connect 87 0 78 0;
#X connect 87 0 104 2;
#X connect 88 0 90 2;
#X connect 89 0 90 3;
#X connect 90 0 110 0;
#X connect 90 1 110 1;
#X connect 90 2 110 2;
#X connect 90 3 110 3;
#X connect 90 4 110 4;
#X connect 91 0 92 0;
#X connect 91 0 90 4;
#X connect 93 0 91 0;
#X connect 94 0 90 0;
#X connect 95 0 90 1;
#X connect 97 0 100 0;
#X connect 97 1 100 1;
#X connect 97 2 100 2;
#X connect 98 0 97 2;
#X connect 99 0 97 1;
#X connect 100 0 96 0;
#X connect 100 0 50 0;
#X connect 100 0 52 0;
#X connect 101 0 105 0;
#X connect 102 0 104 1;
#X connect 103 0 104 0;
#X connect 104 0 101 0;
#X connect 104 1 101 1;
#X connect 104 2 101 2;
#X connect 107 0 106 0;
#X connect 107 0 74 1;
#X connect 107 0 72 2;
#X connect 109 0 60 0;
#X connect 110 0 97 0;
