#N canvas 61 30 1859 1025 12;
#X floatatom 1211 -818 4 0 0 0 - - -, f 4;
#X floatatom 1625 -119 5 0 1 0 - - -, f 5;
#X obj 1449 -45 *~;
#X obj 1621 -89 expr 1-$f1;
#X obj 1129 -854 hsl 100 15 -3 3 0 0 empty empty empty -2 -8 0 10 -262144
-1 -1 0 1;
#X obj 637 -1273 loadbang;
#X obj 739 -1273 bng 15 250 50 0 empty empty empty 17 7 0 10 -262144
-1 -1;
#X obj 1616 -159 r mute;
#X text 776 -1273 to click if params have changed;
#X text 806 -1104 100 dB <=> unchanged loudness;
#X obj 805 -1142 switch~;
#X obj 805 -1220 inlet;
#X text 891 -1142 turn patch off/on;
#X floatatom 805 -1182 5 0 0 0 - - -, f 5;
#X floatatom 1471 -1131 5 0 0 0 - - -, f 5;
#X obj 2025 -1261 r ad;
#X obj 1646 -1264 r dmax;
#X obj 1573 -1264 r dmin;
#X obj 1476 -1264 r dbmax;
#X obj 1405 -1179 expr ($f1-$f2)/log($f4/$f3);
#X obj 1386 -1264 r dbmin;
#X floatatom 1998 -1126 5 0 0 0 - - -, f 5;
#X obj 1503 -1222 bondo 4;
#X obj 1996 -1214 bondo 3;
#X obj 1926 -1259 r dbmin;
#X obj 2094 -1261 r dmax;
#X msg 1405 -1131 \; ad \$1;
#X msg 1928 -1127 \; bd \$1;
#X obj 1928 -1173 expr $f1-$f2*log($f3);
#X floatatom 1510 -869 5 0 0 0 - - -, f 5;
#X obj 1516 -980 bondo 4;
#X msg 1443 -876 \; af \$1;
#X floatatom 2019 -886 5 0 0 0 - - -, f 5;
#X obj 1990 -986 bondo 3;
#X obj 1919 -1035 r fmin;
#X obj 2021 -1036 r af;
#X obj 2088 -1036 r thetamax;
#X msg 1952 -883 \; bf \$1;
#X obj 1951 -931 expr log($f1)-$f2*log($f3);
#X obj 2047 -710 r db;
#X obj 1532 -140 *~;
#X floatatom 2074 -670 5 0 0 0 - - -, f 5;
#X obj 1504 -1033 r fmin;
#X obj 1434 -1033 r fmax;
#X obj 1700 -1041 r thetamax;
#X obj 1594 -1039 r thetamin;
#X obj 1610 -222 dbtorms~;
#X obj 1811 -625 r between_O_P;
#X obj 1784 -377 expr if($f1 == 1 \, $f2 \, $f3);
#X obj 1898 -706 r between_O_P;
#X obj 1928 -575 tgl 18 0 empty empty empty 17 7 0 10 -262144 -1 -1
0 1;
#X floatatom 1807 -330 5 0 0 0 - - -, f 5;
#X obj 1893 -505 expr $f1*$f2;
#X obj 1903 -433 bondo 3;
#X floatatom 1867 -577 5 0 0 0 - - -, f 5;
#X obj 1916 -542 bondo 2;
#X obj 1924 -650 edge, f 5;
#X obj 1926 -617 metro 75;
#X obj 1443 -924 expr (log($f1)-log($f2))/(log($f3)-log($f4));
#X obj 2337 -376 soundfiler;
#X floatatom 2340 -326 5 0 0 0 - - -, f 5;
#X obj 2359 -123 line~;
#X obj 2363 -69 tabread~ victory_array;
#X obj 2368 7 dac~;
#N canvas 979 299 450 300 (subpatch) 0;
#X array victory_array 23294 float 2 black black;
#X coords 0 1 23294 -1 200 140 1;
#X restore 2497 -355 graph;
#X floatatom 2245 -204 5 0 0 0 - - -, f 5;
#X obj 2277 -281 edge, f 5;
#X obj 2242 -339 r victory;
#X obj 2881 -454 soundfiler;
#X floatatom 2917 -406 5 0 0 0 - - -, f 5;
#X obj 2938 -194 line~;
#X obj 2947 -63 dac~;
#X floatatom 2805 -315 5 0 0 0 - - -, f 5;
#X obj 2857 -351 edge, f 5;
#X obj 2797 -407 r defeat;
#X obj 2944 -139 tabread~ defeat_array;
#X msg 2756 -544 read -resize -maxsize 1e+10 ../../data/sound/fail/defeat.wav
defeat_array;
#N canvas 632 262 450 300 (subpatch) 0;
#X array defeat_array 85655 float 2 black black;
#X coords 0 1 85655 -1 200 140 1;
#X restore 3015 -480 graph;
#X msg 2288 -441 read -resize -maxsize 1e+10 ../../data/sound/victory/victory.wav
victory_array;
#X msg 2346 -195 0 \, 23294 971;
#X obj 2630 -722 line~;
#X obj 2639 -592 dac~;
#N canvas 645 275 450 300 (subpatch) 0;
#X array start_array 7084 float 2 black black;
#X coords 0 1 7084 -1 200 140 1;
#X restore 2792 -890 graph;
#X obj 2636 -668 tabread~ start_array;
#X obj 2286 -494 loadbang;
#X obj 2751 -591 loadbang;
#X msg 2927 -266 0 \, 85655 1942;
#X obj 2636 -910 soundfiler;
#X floatatom 2638 -862 5 0 0 0 - - -, f 5;
#X floatatom 2438 -810 5 0 0 0 - - -, f 5;
#X obj 2519 -851 edge, f 5;
#X obj 2430 -936 r start;
#X msg 2637 -993 read -resize -maxsize 1e+10 ../../data/sound/start/start.wav
start_array;
#X obj 2637 -1039 loadbang;
#X msg 2617 -777 0 \, 7084 221;
#X obj 962 -902 r distance_verticale;
#X floatatom 1041 -778 4 0 0 0 - - -, f 4;
#X obj 965 -808 hsl 100 15 -3 3 0 0 empty empty empty -2 -8 0 10 -262144
-1 -1 4832 1;
#X obj 1127 -902 r distance_horizontale;
#X obj 1289 -847 r la;
#X floatatom 1394 -814 5 0 0 0 - - -, f 5;
#X obj 2228 -1148 r distance_horizontale;
#X floatatom 1281 -811 5 0 0 0 - - -, f 5;
#X floatatom 1348 -816 5 0 0 0 - - -, f 5;
#X floatatom 1114 -545 5 0 0 0 - - -, f 5;
#X floatatom 1468 -729 5 0 0 0 - - -, f 5;
#X obj 2238 -1009 route 1 2;
#X floatatom 2337 -1027 5 0 1 0 - - -, f 5;
#X obj 2241 -917 bng 15 250 50 0 empty empty empty 17 7 0 10 -262144
-1 -1;
#X obj 2273 -917 bng 15 250 50 0 empty empty empty 17 7 0 10 -262144
-1 -1;
#X obj 2302 -915 bng 15 250 50 0 empty empty empty 17 7 0 10 -262144
-1 -1;
#X obj 2232 -1118 hsl 100 15 -1 1 0 0 empty empty empty -2 -8 0 10
-262144 -1 -1 9634 1;
#X floatatom 2260 -1088 5 0 1 0 - - -, f 5;
#X obj 2235 -1060 expr if($f1<-0.15 \, 1 \, if($f1>0.15 \, 2 \, 3))
;
#X obj 986 -435 r db, f 6;
#X floatatom 1001 -368 5 0 0 0 - - -, f 5;
#X obj 761 -383 r between_O_P;
#X obj 895 -186 expr if($f1 == 1 \, $f2 \, $f3);
#X obj 803 -619 r between_O_P, f 11;
#X obj 909 -439 tgl 18 0 empty empty empty 17 7 0 10 -262144 -1 -1
0 1;
#X floatatom 1024 -152 5 0 0 0 - - -, f 5;
#X obj 886 -351 expr $f1*$f2;
#X obj 939 -262 bondo 3;
#X floatatom 847 -440 5 0 0 0 - - -, f 5;
#X obj 887 -409 bondo 2;
#X obj 805 -560 edge, f 5;
#X obj 807 -528 metro 75;
#X obj 1073 -131 dbtorms~;
#X obj 1181 -87 *~;
#X obj 756 -257 r distance_horizontale;
#X obj 877 -88 bondo 2;
#X obj 853 -32 expr $f1*$f2;
#X obj 1702 -509 r distance_horizontale;
#X obj 1633 -353 bondo 2;
#X obj 1610 -298 expr $f1*$f2;
#X obj 758 -224 hsl 100 15 -3 3 0 0 empty empty empty -2 -8 0 10 -262144
-1 -1 50 1;
#X floatatom 848 -196 5 0 0 0 - - -, f 5;
#X floatatom 835 1 5 0 0 0 - - -, f 5;
#X obj 1701 -480 hsl 100 15 -3 3 0 0 empty empty empty -2 -8 0 10 -262144
-1 -1 6511 1;
#X floatatom 1729 -454 5 0 0 0 - - -, f 5;
#X floatatom 1698 -209 5 0 0 0 - - -, f 5;
#X floatatom 1237 -373 5 0 1 0 - - -, f 5;
#X obj 1139 -335 noise~, f 8;
#X floatatom 1304 -335 5 0 1 0 - - -, f 5;
#X obj 1233 -430 r pointing_to_the_target;
#X obj 1304 -368 r inside_target;
#X obj 1054 -439 osc~;
#X obj 1140 -426 osc~;
#X obj 1120 -461 expr $f1*1;
#X obj 1056 -386 expr~ ($v1+$v2);
#X obj 1258 -29 *~;
#X floatatom 1318 -108 5 0 1 0 - - -, f 5;
#X obj 1308 -71 expr 1-$f1;
#X obj 1309 -147 r mute;
#X obj 1458 -771 r default;
#X floatatom 1685 -734 4 0 0 0 - - -, f 4;
#X obj 1639 -774 hsl 100 15 0 180 0 0 empty empty empty -2 -8 0 10
-262144 -1 -1 744 1;
#X obj 1638 -819 r pointer_target_angle;
#X floatatom 1770 -722 5 0 1 0 - - -, f 5;
#X obj 1668 -693 bondo 2;
#X obj 1769 -762 r target_behind;
#X obj 1584 -637 expr if($f1<90&&$f2==0 \, 1 \, 0);
#X floatatom 1663 -546 5 0 1 0 - - -, f 5;
#X msg 637 -1215 \; fmin 110 \; fmax 440 \; fcst 220 \; dmin 0.4 \;
dmax 6 \; dbmin 50 \; dbmax 80 \; thetamin 5 \; thetamax 90 \; anglediscr
0 \; anglestep 15 \; db 80 \; radius 15 \; la 440 \; si 493.88 \; sol
392 \; default 0 \; BB 0;
#X obj 1385 -846 r sol;
#X obj 1343 -844 r si;
#X obj 1327 8 dac~;
#X obj 1455 -362 expr 1-$f1;
#X floatatom 1476 -329 5 0 1 0 - - -, f 5;
#X obj 641 -280 r distance_verticale;
#X floatatom 696 -201 4 0 0 0 - - -, f 4;
#X obj 641 -224 hsl 100 15 -3 3 0 0 empty empty empty -2 -8 0 10 -262144
-1 -1 4950 1;
#X floatatom 717 -90 4 0 0 0 - - -, f 4;
#X obj 1546 -510 r distance_verticale;
#X floatatom 1514 -449 4 0 0 0 - - -, f 4;
#X obj 1546 -482 hsl 100 15 -3 3 0 0 empty empty empty -2 -8 0 10 -262144
-1 -1 4932 1;
#X floatatom 1562 -353 5 0 1 0 - - -, f 5;
#X obj 678 -169 bondo 2;
#X obj 1601 -447 bondo 2;
#X obj 1077 -725 bondo 2;
#X obj 992 -646 expr if($f1>$f2&&$f1>-$f2 \, 220 \, if ($f1>$f2&&$f1<-$f2
\, 440 \, if ($f1<$f2&&$f1>-$f2 \, 440 \, if ($f1<$f2&&$f1<-$f2 \,
660 \, 0)))), f 42;
#X obj 1062 -279 expr~ ((1-$v4)*(0.5*$v1*$v6+0.2*$v2*$v3)+0.6*$v2*$v4)*$v5
;
#X obj 658 -132 expr if($f1<-$f2&&$f1>$f2&&$f2<0 \, 0 \, 1);
#X obj 1510 -400 expr if($f1>-$f2&&$f1<$f2&&$f2>0 \, 0 \, 1);
#X connect 1 0 3 0;
#X connect 2 0 166 1;
#X connect 3 0 2 1;
#X connect 4 0 0 0;
#X connect 4 0 179 1;
#X connect 5 0 163 0;
#X connect 6 0 163 0;
#X connect 7 0 1 0;
#X connect 11 0 13 0;
#X connect 13 0 10 0;
#X connect 15 0 23 1;
#X connect 16 0 22 3;
#X connect 17 0 22 2;
#X connect 18 0 22 1;
#X connect 19 0 26 0;
#X connect 19 0 14 0;
#X connect 20 0 22 0;
#X connect 22 0 19 0;
#X connect 22 1 19 1;
#X connect 22 2 19 2;
#X connect 22 3 19 3;
#X connect 23 0 28 0;
#X connect 23 1 28 1;
#X connect 23 2 28 2;
#X connect 24 0 23 0;
#X connect 25 0 23 2;
#X connect 28 0 27 0;
#X connect 28 0 21 0;
#X connect 30 0 58 0;
#X connect 30 1 58 1;
#X connect 30 2 58 2;
#X connect 30 3 58 3;
#X connect 33 0 38 0;
#X connect 33 1 38 1;
#X connect 33 2 38 2;
#X connect 34 0 33 0;
#X connect 35 0 33 1;
#X connect 36 0 33 2;
#X connect 38 0 37 0;
#X connect 38 0 32 0;
#X connect 39 0 41 0;
#X connect 39 0 55 1;
#X connect 39 0 53 2;
#X connect 40 0 2 0;
#X connect 42 0 30 1;
#X connect 43 0 30 0;
#X connect 44 0 30 3;
#X connect 45 0 30 2;
#X connect 46 0 40 1;
#X connect 47 0 53 0;
#X connect 48 0 51 0;
#X connect 48 0 133 1;
#X connect 49 0 56 0;
#X connect 50 0 55 0;
#X connect 52 0 53 1;
#X connect 53 0 48 0;
#X connect 53 1 48 1;
#X connect 53 2 48 2;
#X connect 55 0 52 0;
#X connect 55 1 52 1;
#X connect 56 0 57 0;
#X connect 57 0 54 0;
#X connect 57 0 50 0;
#X connect 58 0 31 0;
#X connect 58 0 29 0;
#X connect 59 0 60 0;
#X connect 61 0 62 0;
#X connect 62 0 63 0;
#X connect 62 0 63 1;
#X connect 66 0 79 0;
#X connect 67 0 65 0;
#X connect 67 0 66 0;
#X connect 68 0 69 0;
#X connect 70 0 75 0;
#X connect 73 0 86 0;
#X connect 74 0 72 0;
#X connect 74 0 73 0;
#X connect 75 0 71 0;
#X connect 75 0 71 1;
#X connect 76 0 68 0;
#X connect 78 0 59 0;
#X connect 79 0 61 0;
#X connect 80 0 83 0;
#X connect 83 0 81 0;
#X connect 83 0 81 1;
#X connect 84 0 78 0;
#X connect 85 0 76 0;
#X connect 86 0 70 0;
#X connect 87 0 88 0;
#X connect 90 0 94 0;
#X connect 91 0 89 0;
#X connect 91 0 90 0;
#X connect 92 0 87 0;
#X connect 93 0 92 0;
#X connect 94 0 80 0;
#X connect 95 0 97 0;
#X connect 97 0 96 0;
#X connect 97 0 179 0;
#X connect 98 0 4 0;
#X connect 99 0 102 0;
#X connect 101 0 111 0;
#X connect 106 0 108 0;
#X connect 106 1 109 0;
#X connect 106 2 110 0;
#X connect 111 0 112 0;
#X connect 111 0 113 0;
#X connect 113 0 106 0;
#X connect 113 0 107 0;
#X connect 114 0 115 0;
#X connect 114 0 124 1;
#X connect 114 0 122 2;
#X connect 116 0 122 0;
#X connect 117 0 120 0;
#X connect 118 0 125 0;
#X connect 119 0 124 0;
#X connect 120 0 130 1;
#X connect 121 0 122 1;
#X connect 122 0 117 0;
#X connect 122 1 117 1;
#X connect 122 2 117 2;
#X connect 124 0 121 0;
#X connect 124 1 121 1;
#X connect 125 0 126 0;
#X connect 126 0 123 0;
#X connect 126 0 119 0;
#X connect 127 0 128 1;
#X connect 128 0 150 0;
#X connect 129 0 135 0;
#X connect 130 0 131 0;
#X connect 130 1 131 1;
#X connect 131 0 127 0;
#X connect 131 0 137 0;
#X connect 132 0 138 0;
#X connect 133 0 134 0;
#X connect 133 1 134 1;
#X connect 134 0 46 0;
#X connect 134 0 140 0;
#X connect 135 0 136 0;
#X connect 135 0 177 1;
#X connect 138 0 139 0;
#X connect 138 0 178 1;
#X connect 141 0 181 2;
#X connect 142 0 181 1;
#X connect 143 0 181 3;
#X connect 144 0 141 0;
#X connect 144 0 167 0;
#X connect 145 0 143 0;
#X connect 146 0 149 0;
#X connect 147 0 149 1;
#X connect 148 0 147 0;
#X connect 149 0 181 0;
#X connect 150 0 166 0;
#X connect 151 0 152 0;
#X connect 152 0 150 1;
#X connect 153 0 151 0;
#X connect 154 0 105 0;
#X connect 155 0 159 0;
#X connect 156 0 155 0;
#X connect 157 0 156 0;
#X connect 158 0 159 1;
#X connect 159 0 161 0;
#X connect 159 1 161 1;
#X connect 160 0 158 0;
#X connect 161 0 162 0;
#X connect 161 0 181 4;
#X connect 164 0 100 0;
#X connect 165 0 103 0;
#X connect 167 0 168 0;
#X connect 167 0 181 5;
#X connect 169 0 171 0;
#X connect 171 0 170 0;
#X connect 171 0 177 0;
#X connect 173 0 175 0;
#X connect 175 0 174 0;
#X connect 175 0 178 0;
#X connect 177 0 182 0;
#X connect 177 1 182 1;
#X connect 178 0 183 0;
#X connect 178 1 183 1;
#X connect 179 0 180 0;
#X connect 179 1 180 1;
#X connect 180 0 104 0;
#X connect 180 0 146 0;
#X connect 180 0 148 0;
#X connect 181 0 128 0;
#X connect 181 0 40 0;
#X connect 182 0 130 0;
#X connect 182 0 172 0;
#X connect 183 0 133 0;
#X connect 183 0 176 0;
