#N canvas 328 176 1217 621 10;
#X obj 380 181 *~;
#X obj 436 110 hsl 500 15 0.01 0.25 0 0 empty empty empty -2 -8 0 10
-262144 -1 -1 8600 1;
#X floatatom 455 174 5 0 0.25 0 - - -, f 5;
#X obj 249 244 vu 15 120 empty empty -1 -8 0 10 -66577 -1 1 0;
#X obj 331 218 pvu~;
#X floatatom 228 389 5 0 0 0 - - -, f 5;
#X floatatom 279 388 5 0 0 0 - - -, f 5;
#X floatatom 443 285 5 0 0 0 - - -, f 5;
#X obj 435 238 rmstodb;
#X obj 372 302 dac~;
#X obj 275 130 osc~;
#X obj 253 53 hsl 1000 15 220 14000 0 0 empty empty empty -2 -8 0 10
-262144 -1 -1 1800 1;
#X floatatom 302 87 7 0 0 0 - - -, f 7;
#X obj 349 119 noise~;
#X connect 0 0 4 0;
#X connect 0 0 9 1;
#X connect 0 0 9 0;
#X connect 1 0 2 0;
#X connect 1 0 0 1;
#X connect 1 0 8 0;
#X connect 3 0 5 0;
#X connect 3 1 6 0;
#X connect 4 0 3 0;
#X connect 8 0 7 0;
#X connect 10 0 0 0;
#X connect 11 0 12 0;
#X connect 11 0 10 0;
