#N canvas 540 51 1385 969 16;
#X obj 275 92 inlet;
#X obj 284 502 outlet~;
#X obj 521 98 inlet;
#X text 274 64 fréquence fondamentale;
#X text 508 64 dissonance (booléen);
#X obj 74 196 osc~;
#X text 21 9 https://fr.wikipedia.org/wiki/Consonance_(musique);
#X floatatom 520 150 5 0 0 0 - - -, f 5;
#X obj 320 198 phasor~;
#X obj 284 439 mux~ 0 1;
#X floatatom 275 134 5 0 0 0 - - -, f 5;
#X obj 170 258 osc~;
#X obj 147 199 expr $f1*1;
#X obj 93 328 expr~ ($v1+$v2);
#X obj 309 336 expr~ $v1/2;
#X connect 0 0 10 0;
#X connect 2 0 7 0;
#X connect 5 0 13 0;
#X connect 7 0 9 0;
#X connect 8 0 14 0;
#X connect 9 0 1 0;
#X connect 10 0 5 0;
#X connect 10 0 8 0;
#X connect 10 0 12 0;
#X connect 11 0 13 1;
#X connect 12 0 11 0;
#X connect 13 0 9 0;
#X connect 14 0 9 1;
