#N canvas 344 302 656 554 10;
#X obj 64 188 pythagorean-chord;
#X obj 66 360 dac~;
#X floatatom 64 146 5 0 0 0 - - -, f 5;
#X obj 64 87 hsl 128 15 100 400 0 0 empty empty empty -2 -8 0 10 -262144
-1 -1 0 1;
#X msg 97 10 \; pd dsp 0;
#X text 120 52 OFF;
#X msg 14 10 \; pd dsp 1;
#X text 33 54 ON;
#X obj 163 146 tgl 15 0 empty empty empty 17 7 0 10 -262144 -1 -1 0
1;
#X obj 66 321 *~;
#X obj 102 279 dbtorms;
#X obj 105 222 loadbang;
#X msg 105 250 80;
#X connect 0 0 9 0;
#X connect 2 0 0 0;
#X connect 3 0 2 0;
#X connect 8 0 0 1;
#X connect 9 0 1 0;
#X connect 10 0 9 1;
#X connect 11 0 12 0;
#X connect 12 0 10 0;
