#N canvas 33 111 1390 969 16;
#X obj 232 323 inlet;
#X obj 148 632 outlet~;
#X obj 485 83 inlet;
#X text 231 295 fréquence fondamentale;
#X text 472 49 dissonance (booléen);
#X obj 231 548 osc~;
#X obj 148 548 osc~;
#X obj 315 547 osc~;
#X obj 149 409 *;
#X obj 316 406 *;
#X obj 148 592 expr~ $v1+$v2+$v3;
#X obj 466 282 loadbang;
#X obj 80 135 loadbang;
#X obj 129 368 bondo 2;
#X obj 299 367 bondo 2;
#X msg 466 325 1.5;
#X text 21 9 https://fr.wikipedia.org/wiki/Consonance_(musique);
#X floatatom 223 137 5 0 0 0 - - -, f 5;
#X floatatom 163 465 5 0 0 0 - - -, f 5;
#X floatatom 247 466 5 0 0 0 - - -, f 5;
#X floatatom 327 466 5 0 0 0 - - -, f 5;
#X obj 93 328 mux 0 1;
#X obj 80 210 t b b;
#X obj 823 275 hsl 512 15 1 2 0 0 empty empty empty -2 -8 0 10 -262144
-1 -1 0 1;
#X floatatom 821 335 5 0 0 0 - - -, f 5;
#X msg 38 264 1.25;
#X msg 101 264 1.0594;
#X connect 0 0 5 0;
#X connect 0 0 13 1;
#X connect 0 0 14 0;
#X connect 0 0 19 0;
#X connect 2 0 17 0;
#X connect 5 0 10 1;
#X connect 6 0 10 0;
#X connect 8 0 6 0;
#X connect 8 0 18 0;
#X connect 9 0 7 0;
#X connect 9 0 20 0;
#X connect 10 0 1 0;
#X connect 11 0 15 0;
#X connect 12 0 22 0;
#X connect 13 0 8 0;
#X connect 13 1 8 1;
#X connect 14 0 9 0;
#X connect 14 1 9 1;
#X connect 15 0 14 1;
#X connect 17 0 22 0;
#X connect 17 0 21 2;
#X connect 21 0 13 0;
#X connect 22 0 25 0;
#X connect 22 1 26 0;
#X connect 23 0 24 0;
#X connect 25 0 21 0;
#X connect 26 0 21 1;
