#N canvas 612 72 1228 896 12;
#X obj 8 826 dac~;
#X floatatom 565 121 4 0 0 0 - - -, f 4;
#X floatatom 46 223 5 0 0 0 - - -, f 5;
#X obj 21 559 osc~;
#X floatatom 345 216 5 0 1 0 - - -, f 5;
#X obj 99 558 osc~;
#X floatatom 573 351 5 0 1 0 - - -, f 5;
#X obj 184 561 noise~, f 8;
#X floatatom 577 699 5 0 1 0 - - -, f 5;
#X obj 21 760 *~;
#X obj 50 727 expr 1-$f1;
#X obj 565 95 hsl 100 15 0 180 0 0 empty empty empty -2 -8 0 10 -262144
-1 -1 1115 1;
#X floatatom 572 569 5 0 1 0 - - -, f 5;
#X obj 21 604 expr~ (1-$v5)*($v1+$v2+0.2*$v3*$v4)+0.6*$v5*$v3;
#X obj 345 177 expr if($f1<90 \, 0 \, 1);
#X obj 22 -46 loadbang;
#X obj 97 -46 bng 15 250 50 0 empty empty empty 17 7 0 10 -262144 -1
-1;
#X obj 565 57 r pointer_target_angle;
#X obj 574 316 r pointing_to_the_target;
#X obj 572 539 r inside_target;
#X text 123 -48 to click if params have changed;
#X text 396 215 back to the target;
#X obj 193 270 t b f;
#X obj 175 57 switch~;
#X obj 175 -5 inlet;
#X text 238 56 turn patch off/on;
#X floatatom 175 26 5 0 0 0 - - -, f 5;
#X obj 19 179 r freq;
#X obj 577 669 r mute;
#X obj 63 670 dbtorms~;
#X obj 21 703 *~;
#X obj 63 637 r dbmax;
#X floatatom 143 669 5 0 1 0 - - -, f 5;
#X msg 21 -3 \; freq 220 \; dbmax 90;
#X obj 102 335 expr 1.26*$f1*$f2;
#X floatatom 155 406 5 0 1 0 - - -, f 5;
#X connect 1 0 14 0;
#X connect 2 0 34 0;
#X connect 3 0 13 0;
#X connect 4 0 22 0;
#X connect 5 0 13 1;
#X connect 6 0 13 3;
#X connect 7 0 13 2;
#X connect 8 0 10 0;
#X connect 9 0 0 0;
#X connect 9 0 0 1;
#X connect 10 0 9 1;
#X connect 11 0 1 0;
#X connect 12 0 13 4;
#X connect 13 0 30 0;
#X connect 14 0 4 0;
#X connect 15 0 33 0;
#X connect 16 0 33 0;
#X connect 17 0 11 0;
#X connect 18 0 6 0;
#X connect 19 0 12 0;
#X connect 22 0 34 0;
#X connect 22 1 34 1;
#X connect 24 0 26 0;
#X connect 26 0 23 0;
#X connect 27 0 3 0;
#X connect 27 0 2 0;
#X connect 28 0 8 0;
#X connect 29 0 30 1;
#X connect 30 0 9 0;
#X connect 31 0 29 0;
#X connect 31 0 32 0;
#X connect 34 0 5 0;
#X connect 34 0 35 0;
