#N canvas 61 30 1859 1025 12;
#X floatatom 219 293 5 0 1 0 - - -, f 5;
#X obj 85 283 noise~, f 8;
#X floatatom 370 311 5 0 1 0 - - -, f 5;
#X obj 220 257 r pointing_to_the_target;
#X obj 369 283 r inside_target;
#X obj 70 727 dac~;
#X floatatom 186 598 5 0 1 0 - - -, f 5;
#X obj 82 662 *~;
#X obj 120 631 expr 1-$f1;
#X obj 214 567 r mute;
#X obj 134 437 dbtorms~;
#X obj 84 467 *~;
#X obj 188 404 r dbmax;
#X obj 14 96 loadbang;
#X obj 89 96 bng 15 250 50 0 empty empty empty 17 7 0 10 -262144 -1
-1;
#X text 115 94 to click if params have changed;
#X obj 167 200 switch~;
#X obj 167 137 inlet;
#X text 230 190 turn patch off/on;
#X floatatom 167 169 5 0 0 0 - - -, f 5;
#X text 13 14 si la cible n'est pas pointée: pas de son \; si la
cible est pointée: bruit blanc faible \; si dans la cible: bruit
blanc fort \; , f 94;
#X obj 83 342 expr~ (1-$v3)*(0.2*$v1*$v2)+0.6*$v3*$v1;
#X floatatom 203 432 5 0 1 0 - - -, f 5;
#X floatatom 232 460 5 0 1 0 - - -, f 5;
#X obj 88 530 *~;
#X obj 166 493 expr 1-$f1;
#X floatatom 277 502 5 0 1 0 - - -, f 5;
#X obj 85 587 *~;
#X obj 211 535 expr 1-$f1;
#X msg 13 139 \; freq 220 \; dbmax 80;
#X obj 305 472 r between_O_P;
#X obj 260 429 r target_behind;
#X connect 0 0 21 1;
#X connect 1 0 21 0;
#X connect 2 0 21 2;
#X connect 3 0 0 0;
#X connect 4 0 2 0;
#X connect 6 0 8 0;
#X connect 7 0 5 0;
#X connect 7 0 5 1;
#X connect 8 0 7 1;
#X connect 9 0 6 0;
#X connect 10 0 11 1;
#X connect 11 0 24 0;
#X connect 12 0 10 0;
#X connect 12 0 22 0;
#X connect 13 0 29 0;
#X connect 14 0 29 0;
#X connect 17 0 19 0;
#X connect 19 0 16 0;
#X connect 21 0 11 0;
#X connect 23 0 25 0;
#X connect 24 0 27 0;
#X connect 25 0 24 1;
#X connect 26 0 28 0;
#X connect 27 0 7 0;
#X connect 28 0 27 1;
#X connect 30 0 26 0;
#X connect 31 0 23 0;
