#N canvas 966 462 826 828 12;
#X obj 9 768 dac~;
#X obj 22 158 osc~;
#X obj 185 162 noise~, f 8;
#X floatatom 578 639 5 0 1 0 - - -, f 5;
#X obj 22 702 *~;
#X obj 22 631 *~;
#X obj 570 237 hsl 100 15 0 2 0 0 empty empty empty -2 -8 0 10 -262144
-1 -1 0 1;
#X obj 51 669 expr 1-$f1;
#X obj 150 267 t b float;
#X obj 244 266 t b float;
#X obj 343 267 t b float;
#X floatatom 570 269 5 0 0 0 - - -, f 5;
#X obj 150 318 expr if($f3<$f1 \, 1 \, if($f3>$f2 \, 0 \, ($f2-$f3)/($f2-$f1)))
;
#X obj 22 199 expr~ (1-$v5)*($v1+$v2+0.2*$v3*$v4)+0.6*$v5*$v3;
#X obj 22 -47 loadbang;
#X obj 97 -47 bng 15 250 50 0 empty empty empty 17 7 0 10 -262144 -1
-1;
#X obj 150 229 r dmin;
#X obj 244 230 r dmax;
#X obj 149 390 t b float;
#X obj 241 388 t b float;
#X obj 340 390 t b float;
#X floatatom 149 355 5 0 0 0 - - -, f 5;
#X obj 241 353 r dbmin;
#X obj 340 354 r dbmax;
#X obj 148 456 expr $f2+($f3-$f2)*$f1;
#X floatatom 168 499 5 0 0 0 - - -, f 5;
#X obj 570 207 r distance_to_the_target;
#X obj 578 606 r mute;
#X text 123 -49 to click if params have changed;
#X text 97 75 100 dB <=> unchanged loudness;
#X obj 81 547 dbtorms~;
#X obj 22 122 r freq, f 7;
#X msg 21 -4 \; freq 330 \; dmin 0 \; dmax 2 \; dbmin 88 \; dbmax 100
;
#X obj 97 47 switch~;
#X obj 97 -16 inlet;
#X text 160 46 turn patch off/on;
#X floatatom 97 16 5 0 0 0 - - -, f 5;
#X floatatom 574 24 5 0 1 0 - - -, f 5;
#X floatatom 573 91 5 0 1 0 - - -, f 5;
#X obj 575 -11 r pointing_to_the_target;
#X obj 573 61 r inside_target;
#X connect 1 0 13 0;
#X connect 2 0 13 2;
#X connect 3 0 7 0;
#X connect 4 0 0 0;
#X connect 4 0 0 1;
#X connect 5 0 4 0;
#X connect 6 0 10 0;
#X connect 6 0 11 0;
#X connect 7 0 4 1;
#X connect 8 0 12 0;
#X connect 8 1 12 0;
#X connect 9 0 12 0;
#X connect 9 1 12 1;
#X connect 10 0 12 0;
#X connect 10 1 12 2;
#X connect 12 0 21 0;
#X connect 13 0 5 0;
#X connect 14 0 32 0;
#X connect 15 0 32 0;
#X connect 16 0 8 0;
#X connect 17 0 9 0;
#X connect 18 0 24 0;
#X connect 18 1 24 0;
#X connect 19 0 24 0;
#X connect 19 1 24 1;
#X connect 20 0 24 0;
#X connect 20 1 24 2;
#X connect 21 0 18 0;
#X connect 22 0 19 0;
#X connect 23 0 20 0;
#X connect 24 0 25 0;
#X connect 24 0 30 0;
#X connect 26 0 6 0;
#X connect 27 0 3 0;
#X connect 30 0 5 1;
#X connect 31 0 1 0;
#X connect 34 0 36 0;
#X connect 36 0 33 0;
#X connect 37 0 13 3;
#X connect 38 0 13 4;
#X connect 39 0 37 0;
#X connect 40 0 38 0;
