#N canvas 231 65 860 1088 12;
#X msg 263 823 disconnect;
#X msg 263 789 connect localhost 3011;
#X obj 172 0 import mrpeach;
#X obj 213 924 tgl 15 0 empty empty connexion 17 7 0 10 -257985 -1
-1 1 1;
#X floatatom 300 148 5 0 0 0 - - -, f 5;
#X obj 300 112 hsl 100 15 0 180 0 0 empty empty empty -2 -8 0 10 -262144
-1 -1 2300 1;
#X msg 300 181 send /advis/pointer_target_angle \$1;
#X text 304 921 coché si la connexion est établie;
#X text 432 788 cliquer sur connect \, l'adresse du destinaire et le
port sont à préciser;
#X floatatom 336 223 5 0 1 0 - - -, f 5;
#X floatatom 364 297 5 0 1 0 - - -, f 5;
#X floatatom 388 405 5 0 0 0 - - -, f 5;
#X obj 388 372 hsl 100 15 0 5 0 0 empty empty empty -2 -8 0 10 -262144
-1 -1 0 1;
#X floatatom 404 470 5 0 1 0 - - -, f 5;
#X msg 364 330 send /advis/inside_target \$1;
#X msg 388 438 send /advis/distance_to_the_target \$1;
#X msg 404 502 send /advis/mute \$1;
#X msg 336 256 send /advis/pointing_to_the_target \$1;
#X obj 213 892 mrpeach/udpsend;
#X obj 213 738 mrpeach/packOSC;
#X floatatom 217 40 5 0 1 0 - - -, f 5;
#X msg 217 77 send /advis/code_angle \$1;
#X floatatom 419 538 5 0 1 0 - - -, f 5;
#X msg 419 570 send /advis/target_behind \$1;
#X floatatom 438 635 5 0 1 0 - - -, f 5;
#X obj 438 607 hsl 100 15 0 1 0 0 empty empty empty -2 -8 0 10 -262144
-1 -1 3350 1;
#X msg 438 667 send /advis/pointer_length \$1;
#X connect 0 0 18 0;
#X connect 1 0 18 0;
#X connect 4 0 6 0;
#X connect 5 0 4 0;
#X connect 6 0 19 0;
#X connect 9 0 17 0;
#X connect 10 0 14 0;
#X connect 11 0 15 0;
#X connect 12 0 11 0;
#X connect 13 0 16 0;
#X connect 14 0 19 0;
#X connect 15 0 19 0;
#X connect 16 0 19 0;
#X connect 17 0 19 0;
#X connect 18 0 3 0;
#X connect 19 0 18 0;
#X connect 20 0 21 0;
#X connect 21 0 19 0;
#X connect 22 0 23 0;
#X connect 23 0 19 0;
#X connect 24 0 26 0;
#X connect 25 0 24 0;
#X connect 26 0 19 0;
