#N canvas 1199 166 1324 942 12;
#X obj 9 1271 dac~;
#X floatatom 709 134 4 0 0 0 - - -, f 4;
#X floatatom 133 439 5 0 0 0 - - -, f 5;
#X obj 21 608 osc~;
#X floatatom 346 442 5 0 1 0 - - -, f 5;
#X obj 103 608 osc~;
#X floatatom 574 502 5 0 1 0 - - -, f 5;
#X obj 184 637 noise~, f 8;
#X floatatom 578 1144 5 0 1 0 - - -, f 5;
#X obj 22 1205 *~;
#X obj 22 1134 *~;
#X obj 570 740 hsl 100 15 0 2 0 0 empty empty empty -2 -8 0 10 -262144
-1 -1 7738 1;
#X obj 51 1172 expr 1-$f1;
#X obj 20 386 expr (($f1-$f2)*$f3)/90+$f2;
#X obj 709 108 hsl 100 15 0 180 0 0 empty empty empty -2 -8 0 10 -262144
-1 -1 2843 1;
#X floatatom 573 569 5 0 1 0 - - -, f 5;
#X floatatom 570 772 5 0 0 0 - - -, f 5;
#X obj 150 821 expr if($f3<$f1 \, 1 \, if($f3>$f2 \, 0 \, ($f2-$f3)/($f2-$f1)))
;
#X obj 22 702 expr~ (1-$v5)*($v1+$v2+0.2*$v3*$v4)+0.6*$v5*$v3;
#X obj 22 -47 loadbang;
#X obj 97 -47 bng 15 250 50 0 empty empty empty 17 7 0 10 -262144 -1
-1;
#X obj 20 276 r fmin;
#X obj 114 276 r fmax;
#X obj 156 740 r dmin;
#X obj 344 740 r dmax;
#X floatatom 149 858 5 0 0 0 - - -, f 5;
#X obj 224 859 r dbmin;
#X obj 305 858 r dbmax;
#X obj 148 959 expr $f2+($f3-$f2)*$f1;
#X floatatom 168 1002 5 0 0 0 - - -, f 5;
#X obj 709 70 r pointer_target_angle;
#X obj 575 467 r pointing_to_the_target;
#X obj 573 539 r inside_target;
#X obj 570 710 r distance_to_the_target;
#X obj 578 1109 r mute;
#X text 123 -49 to click if params have changed;
#X text 188 92 100 dB <=> unchanged loudness;
#X obj 81 1050 dbtorms~;
#X obj 188 57 switch~;
#X obj 188 -6 inlet;
#X text 251 56 turn patch off/on;
#X floatatom 188 26 5 0 0 0 - - -, f 5;
#X obj 103 562 expr 1.26*$f1*$f2;
#X obj 91 348 bondo 3;
#X obj 183 181 expr if($f1<90 \, $f1 \, 180-$f1);
#X floatatom 183 211 5 0 0 0 - - -, f 5;
#X floatatom 176 308 5 0 0 0 - - -, f 5;
#X obj 302 245 bondo 3;
#X obj 325 213 r anglediscr;
#X obj 438 213 r anglestep;
#X obj 132 507 bondo 2;
#X obj 321 786 bondo 3;
#X obj 201 918 bondo 3;
#X obj 176 277 expr if($f2<1 \, $f1 \, $f3*(floor(abs($f1-0.1)/$f3)))
;
#X floatatom 647 278 5 0 1 0 - - -, f 5;
#X text 397 441 target behind;
#X obj 648 243 r target_behind;
#X msg 21 -4 \; fmin 220 \; fmax 440 \; dmin 0 \; dmax 2 \; dbmin 78
\; dbmax 90 \; anglediscr 0 \; anglestep 30 \; angletorchmin 30 \;
angletorchmax 90 \; pointersizemin 0.15 \; pointersizemax 0.75;
#X obj 1070 55 r angletorchmin;
#X obj 1084 80 r angletorchmax;
#X obj 1042 4 r pointersizemin;
#X obj 1057 29 r pointersizemax;
#X text 1005 280 target inside beam;
#X obj 917 5 r pointer_length;
#X text 1210 157 beam angle;
#X obj 1028 106 bondo 5;
#X obj 921 150 expr if ($f1<$f2 \, $f4 \, if($f1>$f3 \, $f5 \, $f4+($f5-$f4)*(($f1-$f2)/($f3-$f2))))
;
#X floatatom 921 206 5 0 1 0 - - -, f 5;
#X floatatom 998 66 5 0 1 0 - - -, f 5;
#X obj 813 280 expr if ($f1<$f2/2 \, 1 \, 0);
#X obj 460 356 bondo 3;
#X obj 346 404 expr if($f1<90&&$f2==0&&$f3==1 \, 0 \, 1);
#X floatatom 814 316 5 0 1 0 - - -, f 5;
#X obj 875 244 bondo 2;
#X connect 1 0 44 0;
#X connect 1 0 70 0;
#X connect 1 0 73 0;
#X connect 2 0 50 0;
#X connect 3 0 18 0;
#X connect 4 0 50 1;
#X connect 5 0 18 1;
#X connect 6 0 18 3;
#X connect 7 0 18 2;
#X connect 8 0 12 0;
#X connect 9 0 0 0;
#X connect 9 0 0 1;
#X connect 10 0 9 0;
#X connect 11 0 16 0;
#X connect 11 0 51 2;
#X connect 12 0 9 1;
#X connect 13 0 3 0;
#X connect 13 0 2 0;
#X connect 14 0 1 0;
#X connect 15 0 18 4;
#X connect 17 0 25 0;
#X connect 18 0 10 0;
#X connect 19 0 57 0;
#X connect 20 0 57 0;
#X connect 21 0 43 0;
#X connect 22 0 43 1;
#X connect 23 0 51 0;
#X connect 24 0 51 1;
#X connect 25 0 52 0;
#X connect 26 0 52 1;
#X connect 27 0 52 2;
#X connect 28 0 29 0;
#X connect 28 0 37 0;
#X connect 30 0 14 0;
#X connect 31 0 6 0;
#X connect 32 0 15 0;
#X connect 33 0 11 0;
#X connect 34 0 8 0;
#X connect 37 0 10 1;
#X connect 39 0 41 0;
#X connect 41 0 38 0;
#X connect 42 0 5 0;
#X connect 43 0 13 0;
#X connect 43 1 13 1;
#X connect 43 2 13 2;
#X connect 44 0 45 0;
#X connect 45 0 47 0;
#X connect 46 0 43 2;
#X connect 47 0 53 0;
#X connect 47 1 53 1;
#X connect 47 2 53 2;
#X connect 48 0 47 1;
#X connect 49 0 47 2;
#X connect 50 0 42 0;
#X connect 50 1 42 1;
#X connect 51 0 17 0;
#X connect 51 1 17 1;
#X connect 51 2 17 2;
#X connect 52 0 28 0;
#X connect 52 1 28 1;
#X connect 52 2 28 2;
#X connect 53 0 46 0;
#X connect 54 0 70 1;
#X connect 56 0 54 0;
#X connect 58 0 65 3;
#X connect 59 0 65 4;
#X connect 60 0 65 1;
#X connect 61 0 65 2;
#X connect 63 0 68 0;
#X connect 65 0 66 0;
#X connect 65 1 66 1;
#X connect 65 2 66 2;
#X connect 65 3 66 3;
#X connect 65 4 66 4;
#X connect 66 0 67 0;
#X connect 67 0 73 1;
#X connect 68 0 65 0;
#X connect 69 0 72 0;
#X connect 70 0 71 0;
#X connect 70 1 71 1;
#X connect 70 2 71 2;
#X connect 71 0 4 0;
#X connect 72 0 70 2;
#X connect 73 0 69 0;
#X connect 73 1 69 1;
