#N canvas 749 124 1859 990 12;
#X obj 24 1646 dac~;
#X floatatom 611 377 4 0 0 0 - - -, f 4;
#X floatatom 150 646 5 0 0 0 - - -, f 5;
#X floatatom 496 704 5 0 1 0 - - -, f 5;
#X floatatom 181 1028 5 0 1 0 - - -, f 5;
#X obj 95 1031 noise~, f 8;
#X floatatom 171 1516 5 0 1 0 - - -, f 5;
#X obj 36 1579 *~;
#X obj 36 1509 *~;
#X obj 726 922 hsl 200 15 0 10 0 0 empty empty empty -2 -8 0 10 -262144
-1 -1 2037 1;
#X obj 66 1547 expr 1-$f1;
#X obj 611 335 hsl 100 15 0 180 0 0 empty empty empty -2 -8 0 10 -262144
-1 -1 1421 1;
#X floatatom 272 1056 5 0 1 0 - - -, f 5;
#X floatatom 726 953 5 0 0 0 - - -, f 5;
#X floatatom 197 437 5 0 0 0 - - -, f 5;
#X obj 22 -42 loadbang;
#X obj 98 -42 bng 15 250 50 0 empty empty empty 17 7 0 10 -262144 -1
-1;
#X obj 539 989 r dmin;
#X obj 600 988 r dmax;
#X floatatom 446 1096 5 0 0 0 - - -, f 5;
#X floatatom 465 1239 5 0 0 0 - - -, f 5;
#X obj 611 297 r pointer_target_angle;
#X obj 181 993 r pointing_to_the_target;
#X obj 272 1027 r inside_target;
#X obj 726 892 r distance_to_the_target;
#X obj 171 1481 r mute;
#X text 124 -42 to click if params have changed;
#X text 147 85 100 dB <=> unchanged loudness;
#X obj 96 1425 dbtorms~;
#X obj 146 57 switch~;
#X obj 146 0 inlet;
#X text 209 57 turn patch off/on;
#X floatatom 146 27 5 0 0 0 - - -, f 5;
#X floatatom 476 67 5 0 0 0 - - -, f 5;
#X obj 884 -31 r ad;
#X obj 605 -32 r dmax;
#X obj 551 -32 r dmin;
#X obj 480 -32 r dbmax;
#X obj 428 32 expr ($f1-$f2)/log($f4/$f3);
#X obj 414 -32 r dbmin;
#X floatatom 864 70 5 0 0 0 - - -, f 5;
#X obj 500 0 bondo 4;
#X obj 862 6 bondo 3;
#X obj 811 -30 r dbmin;
#X obj 934 -31 r dmax;
#X msg 428 67 \; ad \$1;
#X msg 813 69 \; bd \$1;
#X obj 813 36 expr $f1-$f2*log($f3);
#X obj 577 1020 bondo 3;
#X obj 447 1059 expr if($f3<$f1 \, $f1 \, if($f3>$f2 \, $f2 \, $f3))
;
#X obj 488 1097 r ad;
#X obj 547 1097 r bd;
#X obj 489 1143 bondo 3;
#X obj 444 1197 expr $f2*log($f1)+$f3;
#X floatatom 485 244 5 0 0 0 - - -, f 5;
#X obj 509 177 bondo 4;
#X msg 436 244 \; af \$1;
#X obj 424 144 r fmin;
#X obj 489 144 r fmax;
#X obj 560 144 r thetamin;
#X obj 646 144 r thetamax;
#X floatatom 860 237 5 0 0 0 - - -, f 5;
#X obj 858 173 bondo 3;
#X obj 806 137 r fmin;
#X obj 880 136 r af;
#X obj 930 136 r thetamax;
#X msg 810 239 \; bf \$1;
#X obj 87 556 bondo 3;
#X obj 57 493 r af;
#X obj 132 493 r bf;
#X text 548 704 target behind;
#X floatatom 190 534 5 0 0 0 - - -, f 5;
#X obj 316 471 bondo 3;
#X obj 339 439 r anglediscr;
#X obj 452 439 r anglestep;
#X obj 190 503 expr if($f2<1 \, $f1 \, $f3*(floor(abs($f1-0.1)/$f3)))
;
#X floatatom 864 535 5 0 1 0 - - -, f 5;
#X obj 610 572 bondo 2;
#X obj 865 500 r target_behind;
#X obj 809 204 expr log($f1)-$f2*log($f3);
#X obj 38 592 expr exp($f1*log($f3)+$f2);
#X floatatom 101 828 5 0 0 0 - - -, f 5;
#X obj 149 725 bondo 3;
#X obj 230 685 r fmax;
#X obj 171 684 r fmin;
#X obj 42 785 expr if($f1<$f2 \, $f2 \, if($f1>$f3 \, $f3 \, $f1))
;
#X obj 496 621 expr if($f1<90&&$f2==0 \, 1 \, 0);
#X obj 437 209 expr (log($f1)-log($f2))/(log($f4)-log($f3));
#X obj 39 907 osc~;
#X obj 110 919 osc~;
#X obj 93 889 expr $f1*1;
#X obj 38 953 expr~ ($v1+$v2);
#X obj 190 1226 r between_O_P;
#X obj 197 1389 expr if($f1 == 1 \, $f2 \, $f3);
#X obj 222 1167 r between_O_P;
#X obj 303 1245 tgl 18 0 empty empty empty 17 7 0 10 -262144 -1 -1
0 1;
#X floatatom 206 1419 5 0 0 0 - - -, f 5;
#X obj 280 1295 expr $f1*$f2;
#X obj 278 1345 bondo 3;
#X floatatom 254 1267 5 0 0 0 - - -, f 5;
#X obj 303 1270 bondo 2;
#X obj 291 1198 edge, f 5;
#X obj 292 1219 metro 75;
#X obj 36 1091 expr~ ((1-$v4)*(0.5*$v1+0.2*$v2*0.5*$v3)+0.4*$v2*$v4)*$f5
;
#X msg 22 -4 \; fmin 110 \; fmax 440 \; dmin 0.4 \; dmax 6 \; dbmin
60 \; dbmax 80 \; thetamin 5 \; thetamax 90 \; anglediscr 0 \; anglestep
30, f 14;
#X connect 1 0 77 0;
#X connect 1 0 14 0;
#X connect 3 0 103 4;
#X connect 4 0 103 2;
#X connect 5 0 103 1;
#X connect 6 0 10 0;
#X connect 7 0 0 0;
#X connect 7 0 0 1;
#X connect 8 0 7 0;
#X connect 9 0 13 0;
#X connect 9 0 48 2;
#X connect 10 0 7 1;
#X connect 11 0 1 0;
#X connect 12 0 103 3;
#X connect 14 0 72 0;
#X connect 15 0 104 0;
#X connect 16 0 104 0;
#X connect 17 0 48 0;
#X connect 18 0 48 1;
#X connect 19 0 52 0;
#X connect 21 0 11 0;
#X connect 22 0 4 0;
#X connect 23 0 12 0;
#X connect 24 0 9 0;
#X connect 25 0 6 0;
#X connect 28 0 8 1;
#X connect 30 0 32 0;
#X connect 32 0 29 0;
#X connect 34 0 42 1;
#X connect 35 0 41 3;
#X connect 36 0 41 2;
#X connect 37 0 41 1;
#X connect 38 0 45 0;
#X connect 38 0 33 0;
#X connect 39 0 41 0;
#X connect 41 0 38 0;
#X connect 41 1 38 1;
#X connect 41 2 38 2;
#X connect 41 3 38 3;
#X connect 42 0 47 0;
#X connect 42 1 47 1;
#X connect 42 2 47 2;
#X connect 43 0 42 0;
#X connect 44 0 42 2;
#X connect 47 0 46 0;
#X connect 47 0 40 0;
#X connect 48 0 49 0;
#X connect 48 1 49 1;
#X connect 48 2 49 2;
#X connect 49 0 19 0;
#X connect 50 0 52 1;
#X connect 51 0 52 2;
#X connect 52 0 53 0;
#X connect 52 1 53 1;
#X connect 52 2 53 2;
#X connect 53 0 20 0;
#X connect 53 0 100 1;
#X connect 53 0 98 2;
#X connect 55 0 87 0;
#X connect 55 1 87 1;
#X connect 55 2 87 2;
#X connect 55 3 87 3;
#X connect 57 0 55 0;
#X connect 58 0 55 1;
#X connect 59 0 55 2;
#X connect 60 0 55 3;
#X connect 62 0 79 0;
#X connect 62 1 79 1;
#X connect 62 2 79 2;
#X connect 63 0 62 0;
#X connect 64 0 62 1;
#X connect 65 0 62 2;
#X connect 67 0 80 0;
#X connect 67 1 80 1;
#X connect 67 2 80 2;
#X connect 68 0 67 0;
#X connect 69 0 67 1;
#X connect 71 0 67 2;
#X connect 72 0 75 0;
#X connect 72 1 75 1;
#X connect 72 2 75 2;
#X connect 73 0 72 1;
#X connect 74 0 72 2;
#X connect 75 0 71 0;
#X connect 76 0 77 1;
#X connect 77 0 86 0;
#X connect 77 1 86 1;
#X connect 78 0 76 0;
#X connect 79 0 66 0;
#X connect 79 0 61 0;
#X connect 80 0 2 0;
#X connect 80 0 82 0;
#X connect 82 0 85 0;
#X connect 82 1 85 1;
#X connect 82 2 85 2;
#X connect 83 0 82 2;
#X connect 84 0 82 1;
#X connect 85 0 81 0;
#X connect 85 0 88 0;
#X connect 85 0 90 0;
#X connect 86 0 3 0;
#X connect 87 0 56 0;
#X connect 87 0 54 0;
#X connect 88 0 91 0;
#X connect 89 0 91 1;
#X connect 90 0 89 0;
#X connect 91 0 103 0;
#X connect 92 0 98 0;
#X connect 93 0 96 0;
#X connect 93 0 28 0;
#X connect 94 0 101 0;
#X connect 95 0 100 0;
#X connect 97 0 98 1;
#X connect 98 0 93 0;
#X connect 98 1 93 1;
#X connect 98 2 93 2;
#X connect 100 0 97 0;
#X connect 100 1 97 1;
#X connect 101 0 102 0;
#X connect 102 0 99 0;
#X connect 102 0 95 0;
#X connect 103 0 8 0;
