#N canvas 826 58 1695 1250 16;
#X obj 544 412 osc~;
#X obj 625 412 osc~;
#X obj 711 413 osc~;
#X floatatom 541 171 5 0 0 0 - - -, f 5;
#X obj 627 338 *;
#X obj 711 337 *;
#X msg 627 171 1.26562;
#X msg 738 287 1.5;
#X obj 545 521 expr~ $v1+$v2+$v3;
#X obj 546 701 *~;
#X obj 531 785 dac~;
#X obj 542 116 hsl 512 15 110 440 1 0 empty empty empty -2 -8 0 10
-262144 -1 -1 2350 0;
#X obj 595 566 hsl 512 15 55 80 0 1 empty empty empty -2 -8 0 10 -262144
-1 -1 23500 0;
#X floatatom 588 655 5 0 0 0 - - -, f 5;
#X obj 604 174 bng 15 250 50 0 empty empty empty 17 7 0 10 -262144
-1 -1;
#X obj 711 288 bng 15 250 50 0 empty empty empty 17 7 0 10 -262144
-1 -1;
#X msg 699 240 1.25;
#X msg 658 206 1.25992;
#X obj 591 617 dbtorms;
#X floatatom 693 618 5 0 0 0 - - -, f 5;
#X connect 0 0 8 0;
#X connect 3 0 4 0;
#X connect 3 0 0 0;
#X connect 3 0 5 0;
#X connect 4 0 1 0;
#X connect 5 0 2 0;
#X connect 6 0 4 1;
#X connect 7 0 5 1;
#X connect 8 0 9 0;
#X connect 9 0 10 0;
#X connect 9 0 10 1;
#X connect 11 0 3 0;
#X connect 12 0 19 0;
#X connect 12 0 18 0;
#X connect 13 0 9 1;
#X connect 14 0 4 0;
#X connect 15 0 5 0;
#X connect 16 0 4 1;
#X connect 17 0 4 1;
#X connect 18 0 13 0;
