#N canvas 730 54 998 990 12;
#X floatatom 290 688 4 0 0 0 - - -, f 4;
#X floatatom 766 1269 5 0 1 0 - - -, f 5;
#X obj 615 1333 *~;
#X obj 762 1295 expr 1-$f1;
#X obj 220 657 hsl 100 15 -3 3 0 0 empty empty empty -2 -8 0 10 -262144
-1 -1 0 1;
#X obj 104 278 loadbang;
#X obj 192 278 bng 15 250 50 0 empty empty empty 17 7 0 10 -262144
-1 -1;
#X obj 758 1235 r mute;
#X text 223 278 to click if params have changed;
#X text 249 423 100 dB <=> unchanged loudness;
#X obj 248 391 switch~;
#X obj 248 324 inlet;
#X text 322 391 turn patch off/on;
#X floatatom 248 356 5 0 0 0 - - -, f 5;
#X floatatom 634 402 5 0 0 0 - - -, f 5;
#X obj 1109 290 r ad;
#X obj 784 288 r dmax;
#X obj 721 288 r dmin;
#X obj 638 288 r dbmax;
#X obj 577 361 expr ($f1-$f2)/log($f4/$f3);
#X obj 561 288 r dbmin;
#X floatatom 1086 406 5 0 0 0 - - -, f 5;
#X obj 661 324 bondo 4;
#X obj 1084 331 bondo 3;
#X obj 1024 292 r dbmin;
#X obj 1168 290 r dmax;
#X msg 577 402 \; ad \$1;
#X msg 1026 405 \; bd \$1;
#X obj 1026 366 expr $f1-$f2*log($f3);
#X floatatom 667 626 5 0 0 0 - - -, f 5;
#X obj 672 531 bondo 4;
#X msg 610 620 \; af \$1;
#X floatatom 1104 612 5 0 0 0 - - -, f 5;
#X obj 1079 526 bondo 3;
#X obj 1018 484 r fmin;
#X obj 1105 483 r af;
#X obj 1163 483 r thetamax;
#X msg 1046 614 \; bf \$1;
#X obj 1045 573 expr log($f1)-$f2*log($f3);
#X obj 686 1251 *~;
#X obj 662 486 r fmin;
#X obj 602 486 r fmax;
#X obj 830 479 r thetamax;
#X obj 739 481 r thetamin;
#X obj 753 1181 dbtorms~;
#X obj 895 916 r between_O_P;
#X obj 902 1048 expr if($f1 == 1 \, $f2 \, $f3);
#X obj 1000 766 r between_O_P;
#X obj 1026 878 tgl 18 0 empty empty empty 17 7 0 10 -262144 -1 -1
0 1;
#X floatatom 922 1088 5 0 0 0 - - -, f 5;
#X obj 996 938 expr $f1*$f2;
#X obj 1004 1000 bondo 3;
#X floatatom 973 877 5 0 0 0 - - -, f 5;
#X obj 1015 907 bondo 2;
#X obj 1022 814 edge, f 5;
#X obj 1024 842 metro 75;
#X obj 610 579 expr (log($f1)-log($f2))/(log($f3)-log($f4));
#X obj 1376 1049 soundfiler;
#X floatatom 1379 1092 5 0 0 0 - - -, f 5;
#X obj 1395 1266 line~;
#X obj 1398 1312 tabread~ victory_array;
#X obj 1403 1378 dac~;
#N canvas 979 299 450 300 (subpatch) 0;
#X array victory_array 23294 float 2 black black;
#X coords 0 1 23294 -1 200 140 1;
#X restore 1513 1067 graph;
#X floatatom 1297 1196 5 0 0 0 - - -, f 5;
#X obj 1325 1130 edge, f 5;
#X obj 1295 1081 r victory;
#X obj 1842 982 soundfiler;
#X floatatom 1873 1023 5 0 0 0 - - -, f 5;
#X obj 1891 1205 line~;
#X obj 1899 1317 dac~;
#X floatatom 1777 1101 5 0 0 0 - - -, f 5;
#X obj 1822 1070 edge, f 5;
#X obj 1770 1022 r defeat;
#X obj 1896 1252 tabread~ defeat_array;
#X msg 1735 905 read -resize -maxsize 1e+10 ../../data/sound/fail/defeat.wav
defeat_array;
#N canvas 645 275 450 300 (subpatch) 0;
#X array defeat_array 85655 float 2 black black;
#X coords 0 1 85655 -1 200 140 1;
#X restore 1957 960 graph;
#X msg 1334 993 read -resize -maxsize 1e+10 ../../data/sound/victory/victory.wav
victory_array;
#X msg 1384 1204 0 \, 23294 971;
#X obj 1627 752 line~;
#X obj 1635 864 dac~;
#N canvas 671 301 450 300 (subpatch) 0;
#X array start_array 7084 float 2 black black;
#X coords 0 1 7084 -1 200 140 1;
#X restore 1766 608 graph;
#X obj 1632 799 tabread~ start_array;
#X obj 1332 948 loadbang;
#X obj 1731 865 loadbang;
#X msg 1882 1143 0 \, 85655 1942;
#X obj 1632 591 soundfiler;
#X floatatom 1634 632 5 0 0 0 - - -, f 5;
#X floatatom 1463 677 5 0 0 0 - - -, f 5;
#X obj 1532 642 edge, f 5;
#X obj 1456 569 r start;
#X msg 1633 520 read -resize -maxsize 1e+10 ../../data/sound/start/start.wav
start_array;
#X obj 1633 481 loadbang;
#X msg 1616 705 0 \, 7084 221;
#X obj 380 543 r distance_verticale;
#X floatatom 392 651 4 0 0 0 - - -, f 4;
#X obj 383 624 hsl 100 15 -3 3 0 0 empty empty empty -2 -8 0 10 -262144
-1 -1 5752 1;
#X obj 212 610 r distance_horizontale;
#X obj 478 645 r la;
#X floatatom 413 706 5 0 0 0 - - -, f 5;
#X obj 1283 387 r distance_horizontale;
#X floatatom 471 676 5 0 0 0 - - -, f 5;
#X floatatom 528 672 5 0 0 0 - - -, f 5;
#X floatatom 426 974 5 0 0 0 - - -, f 5;
#X floatatom 631 746 5 0 0 0 - - -, f 5;
#X obj 1291 506 route 1 2;
#X floatatom 1376 491 5 0 1 0 - - -, f 5;
#X obj 1301 575 bng 15 250 50 0 empty empty empty 17 7 0 10 -262144
-1 -1;
#X obj 1321 585 bng 15 250 50 0 empty empty empty 17 7 0 10 -262144
-1 -1;
#X obj 1349 584 bng 15 250 50 0 empty empty empty 17 7 0 10 -262144
-1 -1;
#X obj 1286 413 hsl 100 15 -1 1 0 0 empty empty empty -2 -8 0 10 -262144
-1 -1 0 1;
#X floatatom 1310 439 5 0 1 0 - - -, f 5;
#X obj 1289 463 expr if($f1<-0.15 \, 1 \, if($f1>0.15 \, 2 \, 3));
#X floatatom 218 1063 5 0 0 0 - - -, f 5;
#X obj 17 1025 r between_O_P;
#X obj 140 1212 expr if($f1 == 1 \, $f2 \, $f3);
#X obj 95 856 r between_O_P, f 11;
#X obj 132 979 tgl 18 0 empty empty empty 17 7 0 10 -262144 -1 -1 0
1;
#X floatatom 214 1252 5 0 0 0 - - -, f 5;
#X obj 64 1059 expr $f1*$f2;
#X obj 62 1103 bondo 3;
#X floatatom 73 977 5 0 0 0 - - -, f 5;
#X obj 133 1021 bondo 2;
#X obj 97 906 edge, f 5;
#X obj 99 934 metro 75;
#X obj 293 1259 dbtorms~;
#X obj 385 1297 *~;
#X obj 21 1151 r distance_horizontale;
#X obj 125 1296 bondo 2;
#X obj 104 1345 expr $f1*$f2;
#X obj 781 962 r distance_horizontale;
#X obj 773 1069 bondo 2;
#X obj 753 1116 expr $f1*$f2;
#X obj 23 1179 hsl 100 15 -3 3 0 0 empty empty empty -2 -8 0 10 -262144
-1 -1 0 1;
#X floatatom 40 1212 5 0 0 0 - - -, f 5;
#X floatatom 89 1373 5 0 0 0 - - -, f 5;
#X obj 780 987 hsl 100 15 -3 3 0 0 empty empty empty -2 -8 0 10 -262144
-1 -1 0 1;
#X floatatom 802 1009 5 0 0 0 - - -, f 5;
#X floatatom 808 1204 5 0 0 0 - - -, f 5;
#X floatatom 432 1036 5 0 1 0 - - -, f 5;
#X obj 349 1084 noise~, f 8;
#X floatatom 497 1081 5 0 1 0 - - -, f 5;
#X obj 497 1052 r inside_target;
#X obj 276 995 osc~;
#X obj 350 1006 osc~;
#X obj 333 976 expr $f1*1;
#X obj 278 1040 expr~ ($v1+$v2);
#X obj 451 1346 *~;
#X floatatom 503 1279 5 0 1 0 - - -, f 5;
#X obj 494 1310 expr 1-$f1;
#X obj 495 1245 r mute;
#X obj 623 710 r default;
#X floatatom 817 742 4 0 0 0 - - -, f 4;
#X obj 778 708 hsl 100 15 0 180 0 0 empty empty empty -2 -8 0 10 -262144
-1 -1 2960 1;
#X obj 777 669 r pointer_target_angle;
#X floatatom 890 752 5 0 1 0 - - -, f 5;
#X obj 803 777 bondo 2;
#X obj 889 718 r target_behind;
#X obj 731 825 expr if($f1<90&&$f2==0 \, 1 \, 0);
#X floatatom 798 903 5 0 1 0 - - -, f 5;
#X obj 405 679 r sol;
#X obj 524 648 r si;
#X obj 380 767 bondo 6;
#X obj 510 1379 dac~;
#X obj 219 816 expr if($f1>0.15&&$f2>0.15 \, $f3 \, if ($f1>0.15&&$f2<0.15&&$f2>-0.15
\, $f4 \, if ($f1>0.15&&$f2<-0.15 \, $f5 \, if ($f1<0.15&&$f1>-0.15&&$f2>0.15
\, $f3 \, if ($f1<0.15&&$f1>-0.15&&$f2<0.15&&$f2>-0.15 \, $f6 \, if
($f1<0.15&&$f1>-0.15&&$f2<-0.15 \, $f5 \, if ($f1<-0.15&&$f2>0.15 \,
$f3 \, if ($f1<-0.15&&$f2<0.15&&$f2>-0.15 \, $f4 \, if ($f1<-0.15&&$f2<-0.15
\, $f5 \, $f6)))))))));
#X obj 284 1131 expr~ ((1-$v4)*(0.5*$v1+0.2*$v2*$v3)+0.6*$v2*$v4)*$f5
;
#X obj 431 1002 expr if($f1==$f2 \, 1 \, 0);
#X obj 12 696 hsl 200 15 0 10 0 0 empty empty empty -2 -8 0 10 -262144
-1 -1 3589 1;
#X floatatom 12 727 5 0 0 0 - - -, f 5;
#X obj -171 728 r dmin;
#X obj -110 727 r dmax;
#X floatatom -264 835 5 0 0 0 - - -, f 5;
#X floatatom -245 978 5 0 0 0 - - -, f 5;
#X obj 12 666 r distance_to_the_target;
#X obj -133 759 bondo 3;
#X obj -263 798 expr if($f3<$f1 \, $f1 \, if($f3>$f2 \, $f2 \, $f3))
;
#X obj -222 836 r ad;
#X obj -163 836 r bd;
#X obj -221 882 bondo 3;
#X obj -260 935 expr $f2*log($f1)+$f3;
#X obj 1393 767 hsl 200 15 0 10 0 0 empty empty empty -2 -8 0 10 -262144
-1 -1 3589 1;
#X floatatom 1393 798 5 0 0 0 - - -, f 5;
#X obj 1210 799 r dmin;
#X obj 1271 798 r dmax;
#X floatatom 1117 906 5 0 0 0 - - -, f 5;
#X floatatom 1136 1049 5 0 0 0 - - -, f 5;
#X obj 1393 737 r distance_to_the_target;
#X obj 1248 830 bondo 3;
#X obj 1118 869 expr if($f3<$f1 \, $f1 \, if($f3>$f2 \, $f2 \, $f3))
;
#X obj 1159 907 r ad;
#X obj 1218 907 r bd;
#X obj 1160 953 bondo 3;
#X obj 1115 1007 expr $f2*log($f1)+$f3;
#X msg 104 328 \; fmin 110 \; fmax 440 \; fcst 220 \; dmin 0.4 \; dmax
6 \; dbmin 50 \; dbmax 80 \; thetamin 5 \; thetamax 90 \; anglediscr
0 \; anglestep 15 \; db 80 \; radius 15 \; la 440 \; si 660 \; sol
220 \; default 0 \; BB 0;
#X obj 29 1249 expr if($f1>-0.15 \, 0 \, 1);
#X obj 747 1033 expr if($f1<0.15 \, 0 \, 1);
#X connect 1 0 3 0;
#X connect 2 0 162 1;
#X connect 3 0 2 1;
#X connect 4 0 0 0;
#X connect 4 0 161 0;
#X connect 5 0 192 0;
#X connect 6 0 192 0;
#X connect 7 0 1 0;
#X connect 11 0 13 0;
#X connect 13 0 10 0;
#X connect 15 0 23 1;
#X connect 16 0 22 3;
#X connect 17 0 22 2;
#X connect 18 0 22 1;
#X connect 19 0 26 0;
#X connect 19 0 14 0;
#X connect 20 0 22 0;
#X connect 22 0 19 0;
#X connect 22 1 19 1;
#X connect 22 2 19 2;
#X connect 22 3 19 3;
#X connect 23 0 28 0;
#X connect 23 1 28 1;
#X connect 23 2 28 2;
#X connect 24 0 23 0;
#X connect 25 0 23 2;
#X connect 28 0 27 0;
#X connect 28 0 21 0;
#X connect 30 0 56 0;
#X connect 30 1 56 1;
#X connect 30 2 56 2;
#X connect 30 3 56 3;
#X connect 33 0 38 0;
#X connect 33 1 38 1;
#X connect 33 2 38 2;
#X connect 34 0 33 0;
#X connect 35 0 33 1;
#X connect 36 0 33 2;
#X connect 38 0 37 0;
#X connect 38 0 32 0;
#X connect 39 0 2 0;
#X connect 40 0 30 1;
#X connect 41 0 30 0;
#X connect 42 0 30 3;
#X connect 43 0 30 2;
#X connect 44 0 39 1;
#X connect 45 0 51 0;
#X connect 46 0 49 0;
#X connect 46 0 130 1;
#X connect 47 0 54 0;
#X connect 48 0 53 0;
#X connect 50 0 51 1;
#X connect 51 0 46 0;
#X connect 51 1 46 1;
#X connect 51 2 46 2;
#X connect 53 0 50 0;
#X connect 53 1 50 1;
#X connect 54 0 55 0;
#X connect 55 0 52 0;
#X connect 55 0 48 0;
#X connect 56 0 31 0;
#X connect 56 0 29 0;
#X connect 57 0 58 0;
#X connect 59 0 60 0;
#X connect 60 0 61 0;
#X connect 60 0 61 1;
#X connect 64 0 77 0;
#X connect 65 0 63 0;
#X connect 65 0 64 0;
#X connect 66 0 67 0;
#X connect 68 0 73 0;
#X connect 71 0 84 0;
#X connect 72 0 70 0;
#X connect 72 0 71 0;
#X connect 73 0 69 0;
#X connect 73 0 69 1;
#X connect 74 0 66 0;
#X connect 76 0 57 0;
#X connect 77 0 59 0;
#X connect 78 0 81 0;
#X connect 81 0 79 0;
#X connect 81 0 79 1;
#X connect 82 0 76 0;
#X connect 83 0 74 0;
#X connect 84 0 68 0;
#X connect 85 0 86 0;
#X connect 88 0 92 0;
#X connect 89 0 87 0;
#X connect 89 0 88 0;
#X connect 90 0 85 0;
#X connect 91 0 90 0;
#X connect 92 0 78 0;
#X connect 93 0 95 0;
#X connect 95 0 94 0;
#X connect 95 0 161 1;
#X connect 96 0 4 0;
#X connect 97 0 100 0;
#X connect 97 0 161 3;
#X connect 99 0 109 0;
#X connect 102 0 165 0;
#X connect 104 0 106 0;
#X connect 104 1 107 0;
#X connect 104 2 108 0;
#X connect 109 0 110 0;
#X connect 109 0 111 0;
#X connect 111 0 104 0;
#X connect 111 0 105 0;
#X connect 113 0 119 0;
#X connect 114 0 117 0;
#X connect 115 0 122 0;
#X connect 116 0 121 0;
#X connect 117 0 127 1;
#X connect 118 0 119 1;
#X connect 119 0 114 0;
#X connect 119 1 114 1;
#X connect 119 2 114 2;
#X connect 121 0 118 0;
#X connect 121 1 118 1;
#X connect 122 0 123 0;
#X connect 123 0 120 0;
#X connect 123 0 116 0;
#X connect 124 0 125 1;
#X connect 125 0 146 0;
#X connect 126 0 132 0;
#X connect 127 0 128 0;
#X connect 127 1 128 1;
#X connect 128 0 124 0;
#X connect 128 0 134 0;
#X connect 129 0 135 0;
#X connect 130 0 131 0;
#X connect 130 1 131 1;
#X connect 131 0 44 0;
#X connect 131 0 137 0;
#X connect 132 0 133 0;
#X connect 132 0 193 0;
#X connect 135 0 136 0;
#X connect 135 0 194 0;
#X connect 138 0 164 2;
#X connect 139 0 164 1;
#X connect 140 0 164 3;
#X connect 141 0 140 0;
#X connect 142 0 145 0;
#X connect 143 0 145 1;
#X connect 144 0 143 0;
#X connect 145 0 164 0;
#X connect 146 0 162 0;
#X connect 147 0 148 0;
#X connect 148 0 146 1;
#X connect 149 0 147 0;
#X connect 150 0 103 0;
#X connect 150 0 161 5;
#X connect 150 0 165 1;
#X connect 151 0 155 0;
#X connect 152 0 151 0;
#X connect 153 0 152 0;
#X connect 154 0 155 1;
#X connect 155 0 157 0;
#X connect 155 1 157 1;
#X connect 156 0 154 0;
#X connect 157 0 158 0;
#X connect 157 0 164 4;
#X connect 159 0 98 0;
#X connect 159 0 161 2;
#X connect 160 0 101 0;
#X connect 160 0 161 4;
#X connect 161 0 163 0;
#X connect 161 1 163 1;
#X connect 161 2 163 2;
#X connect 161 3 163 3;
#X connect 161 4 163 4;
#X connect 161 5 163 5;
#X connect 163 0 102 0;
#X connect 163 0 142 0;
#X connect 163 0 144 0;
#X connect 164 0 125 0;
#X connect 164 0 39 0;
#X connect 165 0 138 0;
#X connect 166 0 167 0;
#X connect 166 0 173 2;
#X connect 168 0 173 0;
#X connect 169 0 173 1;
#X connect 170 0 177 0;
#X connect 172 0 166 0;
#X connect 173 0 174 0;
#X connect 173 1 174 1;
#X connect 173 2 174 2;
#X connect 174 0 170 0;
#X connect 175 0 177 1;
#X connect 176 0 177 2;
#X connect 177 0 178 0;
#X connect 177 1 178 1;
#X connect 177 2 178 2;
#X connect 178 0 171 0;
#X connect 178 0 121 1;
#X connect 178 0 119 2;
#X connect 179 0 180 0;
#X connect 179 0 186 2;
#X connect 181 0 186 0;
#X connect 182 0 186 1;
#X connect 183 0 190 0;
#X connect 185 0 179 0;
#X connect 186 0 187 0;
#X connect 186 1 187 1;
#X connect 186 2 187 2;
#X connect 187 0 183 0;
#X connect 188 0 190 1;
#X connect 189 0 190 2;
#X connect 190 0 191 0;
#X connect 190 1 191 1;
#X connect 190 2 191 2;
#X connect 191 0 184 0;
#X connect 191 0 53 1;
#X connect 191 0 51 2;
#X connect 193 0 127 0;
#X connect 194 0 130 0;
